G04*
G04 #@! TF.GenerationSoftware,Altium Limited,Altium Designer,21.6.1 (37)*
G04*
G04 Layer_Physical_Order=2*
G04 Layer_Color=16711680*
%FSLAX24Y24*%
%MOIN*%
G70*
G04*
G04 #@! TF.SameCoordinates,2CDDA2BD-A9AE-4566-A957-8AB6CD1B29DF*
G04*
G04*
G04 #@! TF.FilePolarity,Positive*
G04*
G01*
G75*
%ADD34C,0.0250*%
%ADD35C,0.0300*%
%ADD36C,0.0400*%
%ADD37O,0.0433X0.0669*%
%ADD38C,0.0591*%
%ADD39R,0.0591X0.0591*%
%ADD40C,0.0728*%
%ADD41R,0.0728X0.0728*%
%ADD42C,0.0157*%
%ADD43R,0.0472X0.0551*%
%ADD44R,0.0394X0.0945*%
%ADD45R,0.1299X0.0945*%
%ADD46R,0.0354X0.0276*%
G36*
X9474Y11042D02*
X9546Y11012D01*
X9609Y10964D01*
X9657Y10901D01*
X9687Y10828D01*
X9691Y10798D01*
X9697Y10750D01*
X9697Y10700D01*
X9700Y446D01*
X9700Y446D01*
X9700D01*
X9700Y446D01*
X9689Y367D01*
X9656Y287D01*
X9603Y218D01*
X9534Y165D01*
X9453Y131D01*
X9408Y125D01*
X9360Y121D01*
X9357Y121D01*
X9311Y121D01*
X6238Y121D01*
X6202Y156D01*
Y573D01*
X6204Y586D01*
X6489D01*
X6567Y597D01*
X6600Y610D01*
Y1050D01*
X6700D01*
Y619D01*
X6733Y624D01*
X6810Y655D01*
X6876Y706D01*
X6907Y747D01*
X7986D01*
X8064Y758D01*
X8137Y788D01*
X8200Y836D01*
X8500Y1136D01*
X8548Y1199D01*
X8579Y1272D01*
X8589Y1350D01*
Y1374D01*
X8795D01*
Y1700D01*
X8459D01*
Y1800D01*
X8795D01*
Y2126D01*
X8761D01*
Y2524D01*
X8795D01*
Y2850D01*
X8459D01*
Y2950D01*
X8830D01*
X8925Y3045D01*
X8950D01*
X9048Y3065D01*
X9130Y3120D01*
X9185Y3202D01*
X9205Y3300D01*
X9185Y3398D01*
X9130Y3480D01*
X9048Y3535D01*
X8950Y3555D01*
X8819D01*
X8777Y3546D01*
X8722Y3535D01*
X8722Y3535D01*
X8722D01*
X8690Y3515D01*
X8639Y3480D01*
X8434Y3276D01*
X8269D01*
X8250Y3322D01*
X9319Y4391D01*
X9367Y4453D01*
X9397Y4526D01*
X9401Y4555D01*
X9595D01*
Y5345D01*
X8805D01*
Y4874D01*
X8802Y4855D01*
Y4730D01*
X7572Y3500D01*
X7524Y3438D01*
X7488Y3462D01*
X7400Y3479D01*
X6614D01*
X6609Y3529D01*
X6620Y3532D01*
X6679Y3571D01*
X6718Y3630D01*
X6722Y3650D01*
X6378D01*
X6382Y3630D01*
X6421Y3571D01*
X6480Y3532D01*
X6491Y3529D01*
X6486Y3479D01*
X5900D01*
X5887Y3477D01*
X5347D01*
X5325Y3472D01*
X4250D01*
Y3335D01*
X3066D01*
X2978Y3318D01*
X2978Y3318D01*
X2903Y3268D01*
X2238Y2602D01*
X2188Y2528D01*
X2171Y2440D01*
Y1750D01*
X2188Y1662D01*
X2238Y1588D01*
X2312Y1538D01*
X2400Y1521D01*
X3142D01*
X3152Y1471D01*
X3089Y1445D01*
X3023Y1394D01*
X2972Y1328D01*
X2962Y1305D01*
X1606D01*
X1422Y1489D01*
X1339Y1544D01*
X1241Y1564D01*
X1144Y1544D01*
X1061Y1489D01*
X1006Y1406D01*
X986Y1309D01*
X1006Y1211D01*
X1061Y1128D01*
X1320Y870D01*
X1402Y815D01*
X1500Y795D01*
X2962D01*
X2972Y772D01*
X3023Y706D01*
X3089Y655D01*
X3166Y624D01*
X3198Y619D01*
Y1050D01*
X3248D01*
Y1100D01*
X3568D01*
Y1168D01*
X3557Y1251D01*
X3525Y1328D01*
X3474Y1394D01*
X3408Y1445D01*
X3345Y1471D01*
X3355Y1521D01*
X3839D01*
X3865Y1479D01*
X3864Y1471D01*
X3845Y1375D01*
Y1189D01*
X3798D01*
Y120D01*
X533Y120D01*
X483Y120D01*
X435Y126D01*
X397Y131D01*
X317Y164D01*
X249Y216D01*
X196Y285D01*
X163Y364D01*
X159Y402D01*
X153Y450D01*
X153Y450D01*
X153Y499D01*
Y10785D01*
X153Y10786D01*
X162Y10854D01*
X188Y10919D01*
X231Y10974D01*
X286Y11016D01*
X351Y11043D01*
X419Y11052D01*
X420Y11052D01*
X9395D01*
X9397Y11052D01*
X9474Y11042D01*
D02*
G37*
G36*
X7414Y2912D02*
Y2524D01*
X8072D01*
X8086Y2524D01*
Y2524D01*
X8106D01*
X8156Y2488D01*
Y2162D01*
X8122Y2126D01*
X8086D01*
Y2126D01*
X7414D01*
Y2005D01*
X7300D01*
X7202Y1985D01*
X7120Y1930D01*
X7065Y1848D01*
X7045Y1750D01*
X7065Y1652D01*
X7120Y1570D01*
X7202Y1515D01*
X7300Y1495D01*
X7414D01*
Y1374D01*
X7373Y1353D01*
X6953D01*
Y2331D01*
X6958Y2345D01*
X6969Y2428D01*
Y2496D01*
X6331D01*
Y2428D01*
X6342Y2345D01*
X6347Y2331D01*
Y1265D01*
X6342Y1251D01*
X6334Y1192D01*
X5909D01*
X5909Y1192D01*
X5889Y1189D01*
X5609D01*
Y929D01*
X5603Y886D01*
Y617D01*
X5609Y573D01*
Y120D01*
X5332Y120D01*
X5297Y156D01*
Y1189D01*
X5229D01*
Y1400D01*
X5212Y1488D01*
X5162Y1562D01*
X4812Y1912D01*
X4738Y1962D01*
X4650Y1979D01*
X2629D01*
Y2345D01*
X2883Y2599D01*
X2889Y2596D01*
X3568D01*
Y2664D01*
X3557Y2747D01*
X3525Y2824D01*
X3519Y2831D01*
X3541Y2876D01*
X4250D01*
Y2328D01*
X5750D01*
Y3018D01*
X5897D01*
X5910Y3021D01*
X6558D01*
X6567Y2973D01*
X6490Y2941D01*
X6424Y2890D01*
X6374Y2824D01*
X6342Y2747D01*
X6331Y2664D01*
Y2596D01*
X6969D01*
Y2664D01*
X6958Y2747D01*
X6926Y2824D01*
X6876Y2890D01*
X6810Y2941D01*
X6733Y2973D01*
X6742Y3021D01*
X7305D01*
X7414Y2912D01*
D02*
G37*
%LPC*%
G36*
X7150Y10872D02*
Y10750D01*
X7272D01*
X7268Y10770D01*
X7229Y10829D01*
X7170Y10868D01*
X7150Y10872D01*
D02*
G37*
G36*
X7050D02*
X7030Y10868D01*
X6971Y10829D01*
X6932Y10770D01*
X6928Y10750D01*
X7050D01*
Y10872D01*
D02*
G37*
G36*
X3200Y10772D02*
Y10650D01*
X3322D01*
X3318Y10670D01*
X3279Y10729D01*
X3220Y10768D01*
X3200Y10772D01*
D02*
G37*
G36*
X3100D02*
X3080Y10768D01*
X3021Y10729D01*
X2982Y10670D01*
X2978Y10650D01*
X3100D01*
Y10772D01*
D02*
G37*
G36*
X7272Y10650D02*
X7150D01*
Y10528D01*
X7170Y10532D01*
X7229Y10571D01*
X7268Y10630D01*
X7272Y10650D01*
D02*
G37*
G36*
X7050D02*
X6928D01*
X6932Y10630D01*
X6971Y10571D01*
X7030Y10532D01*
X7050Y10528D01*
Y10650D01*
D02*
G37*
G36*
X3322Y10550D02*
X3200D01*
Y10428D01*
X3220Y10432D01*
X3279Y10471D01*
X3318Y10530D01*
X3322Y10550D01*
D02*
G37*
G36*
X3100D02*
X2978D01*
X2982Y10530D01*
X3021Y10471D01*
X3080Y10432D01*
X3100Y10428D01*
Y10550D01*
D02*
G37*
G36*
X5100Y10472D02*
Y10350D01*
X5222D01*
X5218Y10370D01*
X5179Y10429D01*
X5120Y10468D01*
X5100Y10472D01*
D02*
G37*
G36*
X5000D02*
X4980Y10468D01*
X4921Y10429D01*
X4882Y10370D01*
X4878Y10350D01*
X5000D01*
Y10472D01*
D02*
G37*
G36*
X5222Y10250D02*
X5100D01*
Y10128D01*
X5120Y10132D01*
X5179Y10171D01*
X5218Y10230D01*
X5222Y10250D01*
D02*
G37*
G36*
X5000D02*
X4878D01*
X4882Y10230D01*
X4921Y10171D01*
X4980Y10132D01*
X5000Y10128D01*
Y10250D01*
D02*
G37*
G36*
X8850Y10172D02*
Y10050D01*
X8972D01*
X8968Y10070D01*
X8929Y10129D01*
X8870Y10168D01*
X8850Y10172D01*
D02*
G37*
G36*
X8750D02*
X8730Y10168D01*
X8671Y10129D01*
X8632Y10070D01*
X8628Y10050D01*
X8750D01*
Y10172D01*
D02*
G37*
G36*
X700Y10768D02*
X579Y10752D01*
X466Y10705D01*
X369Y10631D01*
X295Y10534D01*
X248Y10421D01*
X232Y10300D01*
X248Y10179D01*
X295Y10066D01*
X369Y9969D01*
X466Y9895D01*
X579Y9848D01*
X700Y9832D01*
X821Y9848D01*
X934Y9895D01*
X1031Y9969D01*
X1105Y10066D01*
X1152Y10179D01*
X1168Y10300D01*
X1152Y10421D01*
X1105Y10534D01*
X1031Y10631D01*
X934Y10705D01*
X821Y10752D01*
X700Y10768D01*
D02*
G37*
G36*
X8972Y9950D02*
X8850D01*
Y9828D01*
X8870Y9832D01*
X8929Y9871D01*
X8968Y9930D01*
X8972Y9950D01*
D02*
G37*
G36*
X8750D02*
X8628D01*
X8632Y9930D01*
X8671Y9871D01*
X8730Y9832D01*
X8750Y9828D01*
Y9950D01*
D02*
G37*
G36*
X7100Y9922D02*
Y9800D01*
X7222D01*
X7218Y9820D01*
X7179Y9879D01*
X7120Y9918D01*
X7100Y9922D01*
D02*
G37*
G36*
X7000D02*
X6980Y9918D01*
X6921Y9879D01*
X6882Y9820D01*
X6878Y9800D01*
X7000D01*
Y9922D01*
D02*
G37*
G36*
X3450Y9872D02*
Y9750D01*
X3572D01*
X3568Y9770D01*
X3529Y9829D01*
X3470Y9868D01*
X3450Y9872D01*
D02*
G37*
G36*
X3350D02*
X3330Y9868D01*
X3271Y9829D01*
X3232Y9770D01*
X3228Y9750D01*
X3350D01*
Y9872D01*
D02*
G37*
G36*
X7222Y9700D02*
X7100D01*
Y9578D01*
X7120Y9582D01*
X7179Y9621D01*
X7218Y9680D01*
X7222Y9700D01*
D02*
G37*
G36*
X7000D02*
X6878D01*
X6882Y9680D01*
X6921Y9621D01*
X6980Y9582D01*
X7000Y9578D01*
Y9700D01*
D02*
G37*
G36*
X3572Y9650D02*
X3450D01*
Y9528D01*
X3470Y9532D01*
X3529Y9571D01*
X3568Y9630D01*
X3572Y9650D01*
D02*
G37*
G36*
X3350D02*
X3228D01*
X3232Y9630D01*
X3271Y9571D01*
X3330Y9532D01*
X3350Y9528D01*
Y9650D01*
D02*
G37*
G36*
X3150Y9422D02*
Y9300D01*
X3272D01*
X3268Y9320D01*
X3229Y9379D01*
X3170Y9418D01*
X3150Y9422D01*
D02*
G37*
G36*
X3050D02*
X3030Y9418D01*
X2971Y9379D01*
X2932Y9320D01*
X2928Y9300D01*
X3050D01*
Y9422D01*
D02*
G37*
G36*
X6550Y9372D02*
Y9250D01*
X6672D01*
X6668Y9270D01*
X6629Y9329D01*
X6570Y9368D01*
X6550Y9372D01*
D02*
G37*
G36*
X6450D02*
X6430Y9368D01*
X6371Y9329D01*
X6332Y9270D01*
X6328Y9250D01*
X6450D01*
Y9372D01*
D02*
G37*
G36*
X5550Y9222D02*
Y9100D01*
X5672D01*
X5668Y9120D01*
X5629Y9179D01*
X5570Y9218D01*
X5550Y9222D01*
D02*
G37*
G36*
X5450D02*
X5430Y9218D01*
X5371Y9179D01*
X5332Y9120D01*
X5328Y9100D01*
X5450D01*
Y9222D01*
D02*
G37*
G36*
X4250D02*
Y9100D01*
X4372D01*
X4368Y9120D01*
X4329Y9179D01*
X4270Y9218D01*
X4250Y9222D01*
D02*
G37*
G36*
X4150D02*
X4130Y9218D01*
X4071Y9179D01*
X4032Y9120D01*
X4028Y9100D01*
X4150D01*
Y9222D01*
D02*
G37*
G36*
X3272Y9200D02*
X3150D01*
Y9078D01*
X3170Y9082D01*
X3229Y9121D01*
X3268Y9180D01*
X3272Y9200D01*
D02*
G37*
G36*
X3050D02*
X2928D01*
X2932Y9180D01*
X2971Y9121D01*
X3030Y9082D01*
X3050Y9078D01*
Y9200D01*
D02*
G37*
G36*
X6672Y9150D02*
X6550D01*
Y9028D01*
X6570Y9032D01*
X6629Y9071D01*
X6668Y9130D01*
X6672Y9150D01*
D02*
G37*
G36*
X6450D02*
X6328D01*
X6332Y9130D01*
X6371Y9071D01*
X6430Y9032D01*
X6450Y9028D01*
Y9150D01*
D02*
G37*
G36*
X8850Y9122D02*
Y9000D01*
X8972D01*
X8968Y9020D01*
X8929Y9079D01*
X8870Y9118D01*
X8850Y9122D01*
D02*
G37*
G36*
X8750D02*
X8730Y9118D01*
X8671Y9079D01*
X8632Y9020D01*
X8628Y9000D01*
X8750D01*
Y9122D01*
D02*
G37*
G36*
X5672Y9000D02*
X5550D01*
Y8878D01*
X5570Y8882D01*
X5629Y8921D01*
X5668Y8980D01*
X5672Y9000D01*
D02*
G37*
G36*
X5450D02*
X5328D01*
X5332Y8980D01*
X5371Y8921D01*
X5430Y8882D01*
X5450Y8878D01*
Y9000D01*
D02*
G37*
G36*
X4372D02*
X4250D01*
Y8878D01*
X4270Y8882D01*
X4329Y8921D01*
X4368Y8980D01*
X4372Y9000D01*
D02*
G37*
G36*
X4150D02*
X4028D01*
X4032Y8980D01*
X4071Y8921D01*
X4130Y8882D01*
X4150Y8878D01*
Y9000D01*
D02*
G37*
G36*
X8972Y8900D02*
X8850D01*
Y8778D01*
X8870Y8782D01*
X8929Y8821D01*
X8968Y8880D01*
X8972Y8900D01*
D02*
G37*
G36*
X8750D02*
X8628D01*
X8632Y8880D01*
X8671Y8821D01*
X8730Y8782D01*
X8750Y8778D01*
Y8900D01*
D02*
G37*
G36*
X8850Y8322D02*
Y8200D01*
X8972D01*
X8968Y8220D01*
X8929Y8279D01*
X8870Y8318D01*
X8850Y8322D01*
D02*
G37*
G36*
X8750D02*
X8730Y8318D01*
X8671Y8279D01*
X8632Y8220D01*
X8628Y8200D01*
X8750D01*
Y8322D01*
D02*
G37*
G36*
X8972Y8100D02*
X8850D01*
Y7978D01*
X8870Y7982D01*
X8929Y8021D01*
X8968Y8080D01*
X8972Y8100D01*
D02*
G37*
G36*
X8750D02*
X8628D01*
X8632Y8080D01*
X8671Y8021D01*
X8730Y7982D01*
X8750Y7978D01*
Y8100D01*
D02*
G37*
G36*
X9250Y7342D02*
Y7000D01*
X9592D01*
X9585Y7053D01*
X9545Y7149D01*
X9482Y7232D01*
X9399Y7295D01*
X9303Y7335D01*
X9250Y7342D01*
D02*
G37*
G36*
X4478Y7652D02*
X4390Y7634D01*
X4316Y7584D01*
X4266Y7510D01*
X4248Y7422D01*
Y7283D01*
X4201D01*
Y6807D01*
X4755D01*
Y7283D01*
X4707D01*
Y7422D01*
X4690Y7510D01*
X4640Y7584D01*
X4566Y7634D01*
X4478Y7652D01*
D02*
G37*
G36*
X1164Y8764D02*
X236D01*
Y7836D01*
X1164D01*
Y8071D01*
X2178D01*
X3289Y6959D01*
Y6807D01*
X3844D01*
Y7283D01*
X3614D01*
X2435Y8462D01*
X2360Y8512D01*
X2273Y8529D01*
X1164D01*
Y8764D01*
D02*
G37*
G36*
X3050Y6922D02*
Y6800D01*
X3172D01*
X3168Y6820D01*
X3129Y6879D01*
X3070Y6918D01*
X3050Y6922D01*
D02*
G37*
G36*
X2950D02*
X2930Y6918D01*
X2871Y6879D01*
X2832Y6820D01*
X2828Y6800D01*
X2950D01*
Y6922D01*
D02*
G37*
G36*
X750Y6872D02*
Y6750D01*
X872D01*
X868Y6770D01*
X829Y6829D01*
X770Y6868D01*
X750Y6872D01*
D02*
G37*
G36*
X650D02*
X630Y6868D01*
X571Y6829D01*
X532Y6770D01*
X528Y6750D01*
X650D01*
Y6872D01*
D02*
G37*
G36*
X3172Y6700D02*
X3050D01*
Y6578D01*
X3070Y6582D01*
X3129Y6621D01*
X3168Y6680D01*
X3172Y6700D01*
D02*
G37*
G36*
X2950D02*
X2828D01*
X2832Y6680D01*
X2871Y6621D01*
X2930Y6582D01*
X2950Y6578D01*
Y6700D01*
D02*
G37*
G36*
X9592Y6900D02*
X9250D01*
Y6558D01*
X9303Y6565D01*
X9399Y6605D01*
X9482Y6668D01*
X9545Y6751D01*
X9585Y6847D01*
X9592Y6900D01*
D02*
G37*
G36*
X5800Y7679D02*
X5712Y7662D01*
X5638Y7612D01*
X5588Y7538D01*
X5586Y7527D01*
X5342Y7283D01*
X5112D01*
Y6807D01*
X5666D01*
Y6959D01*
X5962Y7255D01*
X5973Y7271D01*
X6023Y7256D01*
X6023Y7241D01*
Y6807D01*
X6253D01*
X6301Y6760D01*
X6300Y6747D01*
X6283Y6706D01*
X6214Y6693D01*
X6023D01*
Y6505D01*
X6300D01*
Y6405D01*
X6023D01*
Y6217D01*
X6045D01*
Y6075D01*
X6064Y5979D01*
X6065Y5971D01*
X6039Y5929D01*
X5845D01*
X5618Y6156D01*
Y6217D01*
X5666D01*
Y6693D01*
X5112D01*
Y6217D01*
X5159D01*
Y6061D01*
X5177Y5973D01*
X5227Y5899D01*
X5588Y5538D01*
X5662Y5488D01*
X5750Y5471D01*
X8883D01*
X8971Y5488D01*
X9046Y5538D01*
X9080Y5572D01*
X9097Y5565D01*
X9200Y5551D01*
X9303Y5565D01*
X9399Y5605D01*
X9482Y5668D01*
X9545Y5751D01*
X9585Y5847D01*
X9599Y5950D01*
X9585Y6053D01*
X9545Y6149D01*
X9482Y6232D01*
X9399Y6295D01*
X9303Y6335D01*
X9200Y6349D01*
X9097Y6335D01*
X9001Y6295D01*
X8918Y6232D01*
X8855Y6149D01*
X8815Y6053D01*
X8801Y5950D01*
X8757Y5929D01*
X6561D01*
X6535Y5971D01*
X6536Y5979D01*
X6554Y6070D01*
X7471D01*
X7568Y6090D01*
X7651Y6145D01*
X8201Y6695D01*
X8897D01*
X8918Y6668D01*
X9001Y6605D01*
X9097Y6565D01*
X9150Y6558D01*
Y6950D01*
Y7342D01*
X9097Y7335D01*
X9001Y7295D01*
X8918Y7232D01*
X8897Y7205D01*
X8096D01*
X7998Y7185D01*
X7915Y7130D01*
X7365Y6580D01*
X7096D01*
X7065Y6630D01*
X7079Y6700D01*
X7062Y6788D01*
X7012Y6862D01*
X6895Y6980D01*
X6820Y7029D01*
X6732Y7047D01*
X6662D01*
X6577Y7132D01*
Y7283D01*
X6062D01*
X6041Y7283D01*
X6011Y7328D01*
X6012Y7329D01*
X6012Y7329D01*
X6012Y7329D01*
X6022Y7380D01*
X6029Y7417D01*
Y7450D01*
X6012Y7538D01*
X5962Y7612D01*
X5888Y7662D01*
X5800Y7679D01*
D02*
G37*
G36*
X872Y6650D02*
X750D01*
Y6528D01*
X770Y6532D01*
X829Y6571D01*
X868Y6630D01*
X872Y6650D01*
D02*
G37*
G36*
X650D02*
X528D01*
X532Y6630D01*
X571Y6571D01*
X630Y6532D01*
X650Y6528D01*
Y6650D01*
D02*
G37*
G36*
X3567Y6710D02*
X3481Y6693D01*
X3289D01*
Y6505D01*
X3844D01*
Y6693D01*
X3653D01*
X3567Y6710D01*
D02*
G37*
G36*
X4755Y6693D02*
X4201D01*
Y6541D01*
X3894Y6235D01*
X3844Y6255D01*
Y6405D01*
X3289D01*
Y6217D01*
X3312D01*
Y6074D01*
X3331Y5976D01*
X3386Y5894D01*
X3467Y5840D01*
X3474Y5834D01*
X3485Y5786D01*
X2723Y5024D01*
X2662Y5012D01*
X2588Y4962D01*
X2538Y4888D01*
X2521Y4800D01*
X2538Y4712D01*
X2588Y4638D01*
X2662Y4588D01*
X2750Y4571D01*
X2823D01*
X2911Y4588D01*
X2985Y4638D01*
X4104Y5756D01*
X4154Y5831D01*
X4157Y5849D01*
X4525Y6217D01*
X4755D01*
Y6693D01*
D02*
G37*
G36*
X2850Y6022D02*
Y5900D01*
X2972D01*
X2968Y5920D01*
X2929Y5979D01*
X2870Y6018D01*
X2850Y6022D01*
D02*
G37*
G36*
X2750D02*
X2730Y6018D01*
X2671Y5979D01*
X2632Y5920D01*
X2628Y5900D01*
X2750D01*
Y6022D01*
D02*
G37*
G36*
X1250D02*
Y5900D01*
X1372D01*
X1368Y5920D01*
X1329Y5979D01*
X1270Y6018D01*
X1250Y6022D01*
D02*
G37*
G36*
X1150D02*
X1130Y6018D01*
X1071Y5979D01*
X1032Y5920D01*
X1028Y5900D01*
X1150D01*
Y6022D01*
D02*
G37*
G36*
X2972Y5800D02*
X2850D01*
Y5678D01*
X2870Y5682D01*
X2929Y5721D01*
X2968Y5780D01*
X2972Y5800D01*
D02*
G37*
G36*
X2750D02*
X2628D01*
X2632Y5780D01*
X2671Y5721D01*
X2730Y5682D01*
X2750Y5678D01*
Y5800D01*
D02*
G37*
G36*
X1372D02*
X1250D01*
Y5678D01*
X1270Y5682D01*
X1329Y5721D01*
X1368Y5780D01*
X1372Y5800D01*
D02*
G37*
G36*
X1150D02*
X1028D01*
X1032Y5780D01*
X1071Y5721D01*
X1130Y5682D01*
X1150Y5678D01*
Y5800D01*
D02*
G37*
G36*
X5100Y5122D02*
Y5000D01*
X5222D01*
X5218Y5020D01*
X5179Y5079D01*
X5120Y5118D01*
X5100Y5122D01*
D02*
G37*
G36*
X5000D02*
X4980Y5118D01*
X4921Y5079D01*
X4882Y5020D01*
X4878Y5000D01*
X5000D01*
Y5122D01*
D02*
G37*
G36*
X6100Y5022D02*
Y4900D01*
X6222D01*
X6218Y4920D01*
X6179Y4979D01*
X6120Y5018D01*
X6100Y5022D01*
D02*
G37*
G36*
X6000D02*
X5980Y5018D01*
X5921Y4979D01*
X5882Y4920D01*
X5878Y4900D01*
X6000D01*
Y5022D01*
D02*
G37*
G36*
X5222Y4900D02*
X5100D01*
Y4778D01*
X5120Y4782D01*
X5179Y4821D01*
X5218Y4880D01*
X5222Y4900D01*
D02*
G37*
G36*
X5000D02*
X4878D01*
X4882Y4880D01*
X4921Y4821D01*
X4980Y4782D01*
X5000Y4778D01*
Y4900D01*
D02*
G37*
G36*
X6222Y4800D02*
X6100D01*
Y4678D01*
X6120Y4682D01*
X6179Y4721D01*
X6218Y4780D01*
X6222Y4800D01*
D02*
G37*
G36*
X6000D02*
X5878D01*
X5882Y4780D01*
X5921Y4721D01*
X5980Y4682D01*
X6000Y4678D01*
Y4800D01*
D02*
G37*
G36*
X1095Y5395D02*
X305D01*
Y4605D01*
X1095D01*
Y5395D01*
D02*
G37*
G36*
X4900Y6054D02*
X4812Y6037D01*
X4738Y5987D01*
X2980Y4229D01*
X1100D01*
X1098Y4230D01*
X1078Y4233D01*
X1059Y4237D01*
X1043Y4242D01*
X1028Y4248D01*
X1015Y4254D01*
X1004Y4261D01*
X993Y4269D01*
X987Y4275D01*
X982Y4282D01*
X899Y4345D01*
X803Y4385D01*
X700Y4399D01*
X597Y4385D01*
X501Y4345D01*
X418Y4282D01*
X355Y4199D01*
X315Y4103D01*
X301Y4000D01*
X315Y3897D01*
X355Y3801D01*
X418Y3718D01*
X501Y3655D01*
X597Y3615D01*
X700Y3601D01*
X803Y3615D01*
X899Y3655D01*
X982Y3718D01*
X987Y3725D01*
X993Y3731D01*
X1004Y3739D01*
X1015Y3746D01*
X1028Y3752D01*
X1043Y3758D01*
X1059Y3763D01*
X1078Y3767D01*
X1098Y3770D01*
X1100Y3771D01*
X3075D01*
X3163Y3788D01*
X3237Y3838D01*
X5062Y5663D01*
X5112Y5737D01*
X5129Y5825D01*
X5112Y5913D01*
X5062Y5987D01*
X4988Y6037D01*
X4900Y6054D01*
D02*
G37*
G36*
X7700Y4272D02*
Y4150D01*
X7822D01*
X7818Y4170D01*
X7779Y4229D01*
X7720Y4268D01*
X7700Y4272D01*
D02*
G37*
G36*
X7600D02*
X7580Y4268D01*
X7521Y4229D01*
X7482Y4170D01*
X7478Y4150D01*
X7600D01*
Y4272D01*
D02*
G37*
G36*
X7822Y4050D02*
X7700D01*
Y3928D01*
X7720Y3932D01*
X7779Y3971D01*
X7818Y4030D01*
X7822Y4050D01*
D02*
G37*
G36*
X7600D02*
X7478D01*
X7482Y4030D01*
X7521Y3971D01*
X7580Y3932D01*
X7600Y3928D01*
Y4050D01*
D02*
G37*
G36*
X5050Y3922D02*
Y3800D01*
X5172D01*
X5168Y3820D01*
X5129Y3879D01*
X5070Y3918D01*
X5050Y3922D01*
D02*
G37*
G36*
X4950D02*
X4930Y3918D01*
X4871Y3879D01*
X4832Y3820D01*
X4828Y3800D01*
X4950D01*
Y3922D01*
D02*
G37*
G36*
X6600Y3872D02*
Y3750D01*
X6722D01*
X6718Y3770D01*
X6679Y3829D01*
X6620Y3868D01*
X6600Y3872D01*
D02*
G37*
G36*
X6500D02*
X6480Y3868D01*
X6421Y3829D01*
X6382Y3770D01*
X6378Y3750D01*
X6500D01*
Y3872D01*
D02*
G37*
G36*
X5172Y3700D02*
X5050D01*
Y3578D01*
X5070Y3582D01*
X5129Y3621D01*
X5168Y3680D01*
X5172Y3700D01*
D02*
G37*
G36*
X4950D02*
X4828D01*
X4832Y3680D01*
X4871Y3621D01*
X4930Y3582D01*
X4950Y3578D01*
Y3700D01*
D02*
G37*
G36*
X2250Y3472D02*
Y3350D01*
X2372D01*
X2368Y3370D01*
X2329Y3429D01*
X2270Y3468D01*
X2250Y3472D01*
D02*
G37*
G36*
X2150D02*
X2130Y3468D01*
X2071Y3429D01*
X2032Y3370D01*
X2028Y3350D01*
X2150D01*
Y3472D01*
D02*
G37*
G36*
X1500Y3422D02*
Y3300D01*
X1622D01*
X1618Y3320D01*
X1579Y3379D01*
X1520Y3418D01*
X1500Y3422D01*
D02*
G37*
G36*
X1400D02*
X1380Y3418D01*
X1321Y3379D01*
X1282Y3320D01*
X1278Y3300D01*
X1400D01*
Y3422D01*
D02*
G37*
G36*
X2372Y3250D02*
X2250D01*
Y3128D01*
X2270Y3132D01*
X2329Y3171D01*
X2368Y3230D01*
X2372Y3250D01*
D02*
G37*
G36*
X2150D02*
X2028D01*
X2032Y3230D01*
X2071Y3171D01*
X2130Y3132D01*
X2150Y3128D01*
Y3250D01*
D02*
G37*
G36*
X1622Y3200D02*
X1500D01*
Y3078D01*
X1520Y3082D01*
X1579Y3121D01*
X1618Y3180D01*
X1622Y3200D01*
D02*
G37*
G36*
X1400D02*
X1278D01*
X1282Y3180D01*
X1321Y3121D01*
X1380Y3082D01*
X1400Y3078D01*
Y3200D01*
D02*
G37*
G36*
X750Y3392D02*
Y3050D01*
X1092D01*
X1085Y3103D01*
X1045Y3199D01*
X982Y3282D01*
X899Y3345D01*
X803Y3385D01*
X750Y3392D01*
D02*
G37*
G36*
X650D02*
X597Y3385D01*
X501Y3345D01*
X418Y3282D01*
X355Y3199D01*
X315Y3103D01*
X308Y3050D01*
X650D01*
Y3392D01*
D02*
G37*
G36*
X1092Y2950D02*
X750D01*
Y2608D01*
X803Y2615D01*
X899Y2655D01*
X982Y2718D01*
X1045Y2801D01*
X1085Y2897D01*
X1092Y2950D01*
D02*
G37*
G36*
X650D02*
X308D01*
X315Y2897D01*
X355Y2801D01*
X418Y2718D01*
X501Y2655D01*
X597Y2615D01*
X650Y2608D01*
Y2950D01*
D02*
G37*
G36*
X9350Y2422D02*
Y2300D01*
X9472D01*
X9468Y2320D01*
X9429Y2379D01*
X9370Y2418D01*
X9350Y2422D01*
D02*
G37*
G36*
X9250D02*
X9230Y2418D01*
X9171Y2379D01*
X9132Y2320D01*
X9128Y2300D01*
X9250D01*
Y2422D01*
D02*
G37*
G36*
X9472Y2200D02*
X9350D01*
Y2078D01*
X9370Y2082D01*
X9429Y2121D01*
X9468Y2180D01*
X9472Y2200D01*
D02*
G37*
G36*
X9250D02*
X9128D01*
X9132Y2180D01*
X9171Y2121D01*
X9230Y2082D01*
X9250Y2078D01*
Y2200D01*
D02*
G37*
G36*
X9350Y1322D02*
Y1200D01*
X9472D01*
X9468Y1220D01*
X9429Y1279D01*
X9370Y1318D01*
X9350Y1322D01*
D02*
G37*
G36*
X9250D02*
X9230Y1318D01*
X9171Y1279D01*
X9132Y1220D01*
X9128Y1200D01*
X9250D01*
Y1322D01*
D02*
G37*
G36*
X9472Y1100D02*
X9350D01*
Y978D01*
X9370Y982D01*
X9429Y1021D01*
X9468Y1080D01*
X9472Y1100D01*
D02*
G37*
G36*
X9250D02*
X9128D01*
X9132Y1080D01*
X9171Y1021D01*
X9230Y982D01*
X9250Y978D01*
Y1100D01*
D02*
G37*
G36*
X9200Y772D02*
Y650D01*
X9322D01*
X9318Y670D01*
X9279Y729D01*
X9220Y768D01*
X9200Y772D01*
D02*
G37*
G36*
X9100D02*
X9080Y768D01*
X9021Y729D01*
X8982Y670D01*
X8978Y650D01*
X9100D01*
Y772D01*
D02*
G37*
G36*
X3568Y1000D02*
X3298D01*
Y619D01*
X3331Y624D01*
X3408Y655D01*
X3474Y706D01*
X3525Y772D01*
X3557Y849D01*
X3568Y932D01*
Y1000D01*
D02*
G37*
G36*
X8550Y722D02*
Y600D01*
X8672D01*
X8668Y620D01*
X8629Y679D01*
X8570Y718D01*
X8550Y722D01*
D02*
G37*
G36*
X8450D02*
X8430Y718D01*
X8371Y679D01*
X8332Y620D01*
X8328Y600D01*
X8450D01*
Y722D01*
D02*
G37*
G36*
X7950Y672D02*
Y550D01*
X8072D01*
X8068Y570D01*
X8029Y629D01*
X7970Y668D01*
X7950Y672D01*
D02*
G37*
G36*
X7850D02*
X7830Y668D01*
X7771Y629D01*
X7732Y570D01*
X7728Y550D01*
X7850D01*
Y672D01*
D02*
G37*
G36*
X9322Y550D02*
X9200D01*
Y428D01*
X9220Y432D01*
X9279Y471D01*
X9318Y530D01*
X9322Y550D01*
D02*
G37*
G36*
X9100D02*
X8978D01*
X8982Y530D01*
X9021Y471D01*
X9080Y432D01*
X9100Y428D01*
Y550D01*
D02*
G37*
G36*
X8672Y500D02*
X8550D01*
Y378D01*
X8570Y382D01*
X8629Y421D01*
X8668Y480D01*
X8672Y500D01*
D02*
G37*
G36*
X8450D02*
X8328D01*
X8332Y480D01*
X8371Y421D01*
X8430Y382D01*
X8450Y378D01*
Y500D01*
D02*
G37*
G36*
X8072Y450D02*
X7950D01*
Y328D01*
X7970Y332D01*
X8029Y371D01*
X8068Y430D01*
X8072Y450D01*
D02*
G37*
G36*
X7850D02*
X7728D01*
X7732Y430D01*
X7771Y371D01*
X7830Y332D01*
X7850Y328D01*
Y450D01*
D02*
G37*
%LPD*%
G36*
X928Y4191D02*
X946Y4177D01*
X966Y4165D01*
X987Y4154D01*
X1009Y4145D01*
X1033Y4138D01*
X1059Y4132D01*
X1086Y4128D01*
X1115Y4126D01*
X1145Y4125D01*
Y3875D01*
X1115Y3874D01*
X1086Y3872D01*
X1059Y3868D01*
X1033Y3862D01*
X1009Y3855D01*
X987Y3846D01*
X966Y3835D01*
X946Y3823D01*
X928Y3809D01*
X911Y3793D01*
Y4207D01*
X928Y4191D01*
D02*
G37*
%LPC*%
G36*
X3568Y2496D02*
X3298D01*
Y2115D01*
X3331Y2120D01*
X3408Y2151D01*
X3474Y2202D01*
X3525Y2268D01*
X3557Y2345D01*
X3568Y2428D01*
Y2496D01*
D02*
G37*
G36*
X3198D02*
X2929D01*
Y2428D01*
X2940Y2345D01*
X2972Y2268D01*
X3023Y2202D01*
X3089Y2151D01*
X3166Y2120D01*
X3198Y2115D01*
Y2496D01*
D02*
G37*
%LPD*%
D34*
X7750Y2900D02*
Y3051D01*
X7599D02*
X7750D01*
X3066Y3106D02*
X4794D01*
X5000Y2900D01*
X2400Y2440D02*
X3066Y3106D01*
X2400Y1750D02*
Y2440D01*
Y1750D02*
X4650D01*
X5000Y1400D01*
Y617D02*
Y1400D01*
X2750Y4800D02*
X2823D01*
X4438Y6455D02*
X4478D01*
X3942Y5958D02*
X4438Y6455D01*
X3942Y5919D02*
Y5958D01*
X2823Y4800D02*
X3942Y5919D01*
X3075Y4000D02*
X4900Y5825D01*
X700Y4000D02*
X3075D01*
X5428Y7045D02*
X5800Y7417D01*
X5389Y7045D02*
X5428D01*
X5800Y7417D02*
Y7450D01*
X2273Y8300D02*
X3527Y7045D01*
X3567D01*
X700Y8300D02*
X2273D01*
X4478Y7045D02*
Y7422D01*
X8883Y5700D02*
X9133Y5950D01*
X5750Y5700D02*
X8883D01*
X9133Y5950D02*
X9200D01*
X5389Y6061D02*
X5750Y5700D01*
X5389Y6061D02*
Y6455D01*
X6339Y7045D02*
X6567Y6818D01*
X6732D01*
X6850Y6700D01*
X6300Y7045D02*
X6339D01*
X5900Y3250D02*
X7400D01*
X7599Y3051D01*
X5000Y2900D02*
X5347Y3247D01*
X5897D01*
X5900Y3250D01*
D35*
X1241Y1309D02*
X1500Y1050D01*
X3248D01*
X8819Y3300D02*
X8950D01*
X8459Y2900D02*
Y2939D01*
X8819Y3300D01*
X6445Y6325D02*
X7471D01*
X8096Y6950D02*
X9200D01*
X7471Y6325D02*
X8096Y6950D01*
X6315Y6455D02*
X6445Y6325D01*
X6300Y6455D02*
X6315D01*
X7300Y1750D02*
X7750D01*
X4100Y622D02*
Y1375D01*
X3567Y6074D02*
Y6455D01*
X6300Y6075D02*
Y6455D01*
X4094Y617D02*
X4100Y622D01*
D36*
X8286Y1350D02*
Y1538D01*
X9105Y4855D02*
X9200Y4950D01*
X7786Y3286D02*
X9105Y4605D01*
X7786Y2936D02*
Y3286D01*
X9105Y4605D02*
Y4855D01*
X7750Y2900D02*
X7786Y2936D01*
X7986Y1050D02*
X8286Y1350D01*
X6650Y1050D02*
X7986D01*
X8459Y2900D02*
X8459D01*
Y1750D02*
Y2900D01*
X6526Y926D02*
X6635D01*
X5909Y889D02*
X6489D01*
X6650Y941D02*
Y1050D01*
X6635Y926D02*
X6650Y941D01*
X6489Y889D02*
X6526Y926D01*
X5906Y886D02*
X5909Y889D01*
X5906Y617D02*
Y886D01*
X6650Y1050D02*
Y2546D01*
D37*
D03*
X3248Y1050D02*
D03*
Y2546D02*
D03*
X6650Y1050D02*
D03*
D38*
X9200Y6950D02*
D03*
Y5950D02*
D03*
X700Y3000D02*
D03*
Y4000D02*
D03*
D39*
X9200Y4950D02*
D03*
X700Y5000D02*
D03*
D40*
Y10300D02*
D03*
D41*
Y8300D02*
D03*
D42*
X5050Y10300D02*
D03*
X8800Y8150D02*
D03*
Y8950D02*
D03*
Y10000D02*
D03*
X3100Y9250D02*
D03*
X1200Y5850D02*
D03*
X2800D02*
D03*
X6550Y3700D02*
D03*
X7650Y4100D02*
D03*
X5000Y3750D02*
D03*
X2200Y3300D02*
D03*
X1450Y3250D02*
D03*
X8500Y550D02*
D03*
X7900Y500D02*
D03*
X9150Y600D02*
D03*
X9300Y1150D02*
D03*
Y2250D02*
D03*
X6050Y4850D02*
D03*
X5050Y4950D02*
D03*
X3000Y6750D02*
D03*
X700Y6700D02*
D03*
X7100Y10700D02*
D03*
X7050Y9750D02*
D03*
X6500Y9200D02*
D03*
X5500Y9050D02*
D03*
X4200D02*
D03*
X3400Y9700D02*
D03*
X3150Y10600D02*
D03*
X1241Y1309D02*
D03*
X8950Y3300D02*
D03*
X7300Y1750D02*
D03*
X2400D02*
D03*
X4100Y1375D02*
D03*
X2750Y4800D02*
D03*
X3567Y6074D02*
D03*
X4900Y5825D02*
D03*
X5800Y7450D02*
D03*
X4478Y7422D02*
D03*
X6300Y6075D02*
D03*
X6850Y6700D02*
D03*
D43*
X8459Y2900D02*
D03*
X7750D02*
D03*
X8459Y1750D02*
D03*
X7750D02*
D03*
D44*
X5906Y617D02*
D03*
X5000D02*
D03*
X4094D02*
D03*
D45*
X5000Y2900D02*
D03*
D46*
X5389Y7045D02*
D03*
Y6455D02*
D03*
X6300Y7045D02*
D03*
Y6455D02*
D03*
X3567D02*
D03*
Y7045D02*
D03*
X4478Y6455D02*
D03*
Y7045D02*
D03*
M02*
