G04*
G04 #@! TF.GenerationSoftware,Altium Limited,Altium Designer,21.6.1 (37)*
G04*
G04 Layer_Color=32896*
%FSLAX24Y24*%
%MOIN*%
G70*
G04*
G04 #@! TF.SameCoordinates,2CDDA2BD-A9AE-4566-A957-8AB6CD1B29DF*
G04*
G04*
G04 #@! TF.FilePolarity,Positive*
G04*
G01*
G75*
%ADD10C,0.0098*%
%ADD12C,0.0079*%
G36*
X4959Y10565D02*
X4813D01*
Y10612D01*
X4959D01*
Y10565D01*
D02*
G37*
G36*
X4280Y10839D02*
X4298Y10837D01*
X4313Y10833D01*
X4320Y10831D01*
X4327Y10829D01*
X4333Y10827D01*
X4339Y10824D01*
X4343Y10823D01*
X4348Y10821D01*
X4350Y10819D01*
X4353Y10818D01*
X4354Y10818D01*
X4355Y10817D01*
X4370Y10808D01*
X4383Y10797D01*
X4394Y10786D01*
X4403Y10775D01*
X4410Y10765D01*
X4413Y10760D01*
X4415Y10756D01*
X4418Y10753D01*
X4419Y10751D01*
X4419Y10750D01*
X4420Y10749D01*
X4428Y10732D01*
X4433Y10714D01*
X4437Y10696D01*
X4440Y10680D01*
X4441Y10673D01*
X4441Y10666D01*
X4442Y10660D01*
Y10655D01*
X4443Y10651D01*
Y10647D01*
Y10645D01*
Y10645D01*
X4441Y10625D01*
X4439Y10605D01*
X4436Y10588D01*
X4434Y10580D01*
X4433Y10573D01*
X4431Y10566D01*
X4429Y10560D01*
X4427Y10554D01*
X4426Y10550D01*
X4424Y10546D01*
X4424Y10544D01*
X4423Y10542D01*
Y10541D01*
X4414Y10525D01*
X4405Y10510D01*
X4395Y10497D01*
X4390Y10492D01*
X4385Y10487D01*
X4381Y10483D01*
X4377Y10479D01*
X4373Y10475D01*
X4369Y10473D01*
X4367Y10471D01*
X4365Y10469D01*
X4364Y10469D01*
X4363Y10468D01*
X4355Y10464D01*
X4348Y10460D01*
X4331Y10454D01*
X4314Y10449D01*
X4298Y10447D01*
X4290Y10445D01*
X4284Y10444D01*
X4278Y10444D01*
X4273D01*
X4268Y10443D01*
X4262D01*
X4251Y10444D01*
X4241Y10445D01*
X4231Y10446D01*
X4221Y10448D01*
X4212Y10451D01*
X4204Y10454D01*
X4196Y10457D01*
X4189Y10460D01*
X4183Y10463D01*
X4177Y10465D01*
X4172Y10468D01*
X4168Y10471D01*
X4165Y10473D01*
X4162Y10474D01*
X4161Y10475D01*
X4161Y10476D01*
X4153Y10483D01*
X4146Y10489D01*
X4140Y10497D01*
X4134Y10505D01*
X4124Y10520D01*
X4116Y10536D01*
X4113Y10543D01*
X4110Y10550D01*
X4108Y10556D01*
X4106Y10561D01*
X4105Y10565D01*
X4103Y10569D01*
X4103Y10571D01*
Y10571D01*
X4154Y10584D01*
X4156Y10575D01*
X4159Y10567D01*
X4162Y10559D01*
X4164Y10552D01*
X4168Y10545D01*
X4171Y10540D01*
X4175Y10534D01*
X4178Y10529D01*
X4181Y10525D01*
X4184Y10521D01*
X4187Y10518D01*
X4189Y10515D01*
X4192Y10514D01*
X4193Y10512D01*
X4194Y10511D01*
X4194Y10511D01*
X4200Y10506D01*
X4206Y10503D01*
X4218Y10497D01*
X4230Y10493D01*
X4242Y10490D01*
X4252Y10488D01*
X4256Y10487D01*
X4259D01*
X4263Y10486D01*
X4267D01*
X4279Y10487D01*
X4292Y10489D01*
X4303Y10492D01*
X4313Y10495D01*
X4320Y10499D01*
X4324Y10500D01*
X4327Y10501D01*
X4329Y10503D01*
X4330Y10504D01*
X4332Y10504D01*
X4332D01*
X4343Y10512D01*
X4352Y10520D01*
X4359Y10530D01*
X4365Y10539D01*
X4370Y10546D01*
X4374Y10553D01*
X4375Y10556D01*
X4376Y10558D01*
X4377Y10559D01*
Y10559D01*
X4381Y10574D01*
X4384Y10588D01*
X4387Y10602D01*
X4389Y10616D01*
X4389Y10622D01*
X4390Y10627D01*
Y10632D01*
X4390Y10636D01*
Y10640D01*
Y10642D01*
Y10644D01*
Y10645D01*
X4390Y10659D01*
X4389Y10672D01*
X4387Y10685D01*
X4384Y10696D01*
X4383Y10705D01*
X4381Y10709D01*
X4380Y10712D01*
X4380Y10715D01*
X4379Y10717D01*
X4379Y10718D01*
Y10718D01*
X4373Y10731D01*
X4367Y10743D01*
X4360Y10752D01*
X4353Y10761D01*
X4347Y10767D01*
X4342Y10772D01*
X4338Y10775D01*
X4338Y10776D01*
X4337D01*
X4325Y10783D01*
X4313Y10788D01*
X4300Y10792D01*
X4289Y10795D01*
X4278Y10796D01*
X4274Y10797D01*
X4270D01*
X4267Y10797D01*
X4263D01*
X4249Y10797D01*
X4236Y10795D01*
X4226Y10791D01*
X4216Y10788D01*
X4209Y10784D01*
X4203Y10781D01*
X4200Y10779D01*
X4199Y10778D01*
X4190Y10770D01*
X4182Y10760D01*
X4175Y10750D01*
X4169Y10740D01*
X4165Y10731D01*
X4163Y10727D01*
X4162Y10723D01*
X4161Y10721D01*
X4160Y10718D01*
X4160Y10717D01*
Y10717D01*
X4110Y10728D01*
X4113Y10738D01*
X4116Y10747D01*
X4121Y10756D01*
X4125Y10764D01*
X4129Y10771D01*
X4134Y10778D01*
X4138Y10785D01*
X4143Y10790D01*
X4147Y10795D01*
X4151Y10799D01*
X4155Y10803D01*
X4158Y10806D01*
X4161Y10808D01*
X4163Y10810D01*
X4164Y10811D01*
X4164Y10811D01*
X4172Y10816D01*
X4180Y10821D01*
X4188Y10825D01*
X4196Y10828D01*
X4213Y10833D01*
X4228Y10837D01*
X4235Y10838D01*
X4241Y10839D01*
X4247Y10839D01*
X4252Y10840D01*
X4256Y10841D01*
X4262D01*
X4280Y10839D01*
D02*
G37*
G36*
X5618Y10450D02*
X5567D01*
Y10624D01*
X5387D01*
Y10670D01*
X5567D01*
Y10788D01*
X5358D01*
Y10834D01*
X5618D01*
Y10450D01*
D02*
G37*
G36*
X5334D02*
X5281D01*
X5239Y10566D01*
X5078D01*
X5033Y10450D01*
X4975D01*
X5132Y10834D01*
X5188D01*
X5334Y10450D01*
D02*
G37*
G36*
X4784Y10788D02*
X4658D01*
Y10450D01*
X4607D01*
Y10788D01*
X4480D01*
Y10834D01*
X4784D01*
Y10788D01*
D02*
G37*
G36*
X5861Y10840D02*
X5873Y10838D01*
X5886Y10836D01*
X5896Y10834D01*
X5904Y10832D01*
X5908Y10831D01*
X5911Y10829D01*
X5913Y10828D01*
X5915Y10828D01*
X5916Y10827D01*
X5917D01*
X5928Y10822D01*
X5938Y10816D01*
X5946Y10809D01*
X5953Y10803D01*
X5958Y10797D01*
X5962Y10793D01*
X5964Y10790D01*
X5965Y10789D01*
Y10788D01*
X5970Y10779D01*
X5974Y10770D01*
X5977Y10760D01*
X5979Y10752D01*
X5980Y10745D01*
X5981Y10739D01*
Y10737D01*
Y10735D01*
Y10735D01*
Y10734D01*
X5980Y10725D01*
X5979Y10716D01*
X5977Y10707D01*
X5974Y10700D01*
X5972Y10695D01*
X5970Y10690D01*
X5968Y10687D01*
X5968Y10686D01*
X5962Y10679D01*
X5955Y10671D01*
X5949Y10665D01*
X5942Y10660D01*
X5937Y10656D01*
X5932Y10653D01*
X5928Y10651D01*
X5928Y10650D01*
X5927D01*
X5923Y10648D01*
X5918Y10646D01*
X5907Y10642D01*
X5894Y10638D01*
X5882Y10634D01*
X5871Y10631D01*
X5866Y10630D01*
X5861Y10629D01*
X5858Y10627D01*
X5855Y10627D01*
X5853Y10626D01*
X5853D01*
X5843Y10624D01*
X5834Y10622D01*
X5827Y10620D01*
X5820Y10618D01*
X5813Y10616D01*
X5808Y10615D01*
X5803Y10614D01*
X5799Y10612D01*
X5795Y10611D01*
X5792Y10610D01*
X5788Y10609D01*
X5785Y10608D01*
X5785Y10607D01*
X5776Y10604D01*
X5769Y10600D01*
X5763Y10596D01*
X5758Y10593D01*
X5755Y10590D01*
X5752Y10587D01*
X5751Y10586D01*
X5750Y10585D01*
X5746Y10580D01*
X5743Y10575D01*
X5742Y10569D01*
X5740Y10565D01*
X5740Y10560D01*
X5739Y10557D01*
Y10554D01*
Y10554D01*
X5740Y10547D01*
X5741Y10541D01*
X5742Y10535D01*
X5745Y10531D01*
X5747Y10526D01*
X5748Y10524D01*
X5750Y10521D01*
X5750Y10521D01*
X5755Y10515D01*
X5760Y10511D01*
X5766Y10507D01*
X5771Y10503D01*
X5776Y10501D01*
X5780Y10499D01*
X5782Y10498D01*
X5783Y10497D01*
X5792Y10494D01*
X5801Y10492D01*
X5810Y10491D01*
X5817Y10490D01*
X5824Y10489D01*
X5829Y10489D01*
X5834D01*
X5847Y10489D01*
X5858Y10490D01*
X5868Y10492D01*
X5877Y10494D01*
X5884Y10496D01*
X5889Y10498D01*
X5891Y10499D01*
X5893Y10499D01*
X5893Y10500D01*
X5894D01*
X5903Y10504D01*
X5911Y10509D01*
X5917Y10514D01*
X5923Y10519D01*
X5927Y10523D01*
X5930Y10527D01*
X5932Y10529D01*
X5932Y10530D01*
X5936Y10537D01*
X5940Y10545D01*
X5942Y10553D01*
X5944Y10560D01*
X5946Y10568D01*
X5947Y10573D01*
Y10575D01*
X5948Y10576D01*
Y10577D01*
Y10577D01*
X5995Y10573D01*
X5994Y10559D01*
X5992Y10546D01*
X5989Y10534D01*
X5985Y10524D01*
X5981Y10515D01*
X5979Y10512D01*
X5978Y10509D01*
X5977Y10507D01*
X5976Y10505D01*
X5975Y10504D01*
Y10504D01*
X5967Y10493D01*
X5958Y10484D01*
X5948Y10476D01*
X5939Y10469D01*
X5932Y10464D01*
X5925Y10461D01*
X5923Y10460D01*
X5921Y10459D01*
X5920Y10458D01*
X5919D01*
X5906Y10453D01*
X5891Y10449D01*
X5877Y10447D01*
X5863Y10445D01*
X5856Y10444D01*
X5851Y10444D01*
X5846D01*
X5841Y10443D01*
X5832D01*
X5817Y10444D01*
X5803Y10445D01*
X5791Y10448D01*
X5780Y10451D01*
X5771Y10453D01*
X5767Y10455D01*
X5764Y10456D01*
X5762Y10457D01*
X5760Y10458D01*
X5759Y10458D01*
X5758D01*
X5747Y10464D01*
X5737Y10471D01*
X5728Y10478D01*
X5721Y10485D01*
X5715Y10490D01*
X5711Y10495D01*
X5709Y10499D01*
X5708Y10499D01*
Y10500D01*
X5702Y10510D01*
X5697Y10520D01*
X5695Y10530D01*
X5692Y10539D01*
X5691Y10546D01*
X5690Y10553D01*
Y10555D01*
Y10556D01*
Y10557D01*
Y10558D01*
X5691Y10569D01*
X5692Y10579D01*
X5695Y10589D01*
X5698Y10596D01*
X5701Y10603D01*
X5704Y10608D01*
X5706Y10611D01*
X5706Y10612D01*
X5713Y10620D01*
X5721Y10628D01*
X5729Y10635D01*
X5737Y10641D01*
X5745Y10645D01*
X5751Y10649D01*
X5753Y10650D01*
X5755Y10651D01*
X5756Y10651D01*
X5756D01*
X5761Y10654D01*
X5766Y10655D01*
X5772Y10657D01*
X5779Y10660D01*
X5793Y10664D01*
X5807Y10667D01*
X5814Y10669D01*
X5820Y10671D01*
X5826Y10672D01*
X5831Y10674D01*
X5835Y10675D01*
X5838Y10675D01*
X5841Y10676D01*
X5841D01*
X5852Y10679D01*
X5862Y10681D01*
X5871Y10683D01*
X5879Y10686D01*
X5886Y10689D01*
X5892Y10691D01*
X5898Y10693D01*
X5903Y10695D01*
X5907Y10697D01*
X5910Y10698D01*
X5912Y10700D01*
X5914Y10701D01*
X5917Y10703D01*
X5918Y10703D01*
X5923Y10709D01*
X5926Y10715D01*
X5929Y10720D01*
X5931Y10726D01*
X5932Y10730D01*
X5932Y10734D01*
Y10736D01*
Y10737D01*
X5931Y10746D01*
X5929Y10754D01*
X5926Y10761D01*
X5922Y10767D01*
X5918Y10771D01*
X5915Y10775D01*
X5913Y10777D01*
X5912Y10778D01*
X5907Y10781D01*
X5903Y10783D01*
X5892Y10788D01*
X5881Y10791D01*
X5870Y10793D01*
X5860Y10794D01*
X5856Y10795D01*
X5852Y10795D01*
X5844D01*
X5829Y10795D01*
X5815Y10792D01*
X5804Y10789D01*
X5795Y10786D01*
X5787Y10782D01*
X5782Y10779D01*
X5779Y10777D01*
X5778Y10776D01*
X5770Y10768D01*
X5764Y10760D01*
X5759Y10751D01*
X5756Y10742D01*
X5753Y10734D01*
X5752Y10728D01*
X5751Y10725D01*
X5751Y10723D01*
Y10722D01*
Y10722D01*
X5702Y10726D01*
X5703Y10738D01*
X5706Y10749D01*
X5709Y10760D01*
X5712Y10768D01*
X5716Y10776D01*
X5719Y10781D01*
X5720Y10783D01*
X5721Y10785D01*
X5721Y10785D01*
Y10786D01*
X5728Y10795D01*
X5736Y10803D01*
X5745Y10811D01*
X5753Y10816D01*
X5760Y10821D01*
X5766Y10824D01*
X5768Y10825D01*
X5770Y10826D01*
X5771Y10827D01*
X5771D01*
X5783Y10831D01*
X5797Y10834D01*
X5809Y10837D01*
X5821Y10839D01*
X5831Y10840D01*
X5835D01*
X5839Y10841D01*
X5846D01*
X5861Y10840D01*
D02*
G37*
G36*
X6133Y10343D02*
X6029D01*
Y10382D01*
X6085D01*
Y10795D01*
X6029D01*
Y10834D01*
X6133D01*
Y10343D01*
D02*
G37*
G36*
X4071Y10795D02*
X4015D01*
Y10382D01*
X4071D01*
Y10343D01*
X3967D01*
Y10834D01*
X4071D01*
Y10795D01*
D02*
G37*
G36*
X5362Y10261D02*
X5371Y10260D01*
X5380Y10259D01*
X5389Y10257D01*
X5396Y10255D01*
X5404Y10253D01*
X5410Y10250D01*
X5416Y10247D01*
X5422Y10244D01*
X5426Y10242D01*
X5430Y10239D01*
X5434Y10237D01*
X5436Y10235D01*
X5438Y10234D01*
X5439Y10233D01*
X5440Y10233D01*
X5445Y10227D01*
X5450Y10221D01*
X5455Y10214D01*
X5459Y10208D01*
X5466Y10194D01*
X5470Y10181D01*
X5472Y10175D01*
X5473Y10169D01*
X5475Y10164D01*
X5476Y10159D01*
X5476Y10155D01*
Y10153D01*
X5477Y10151D01*
Y10150D01*
X5429Y10145D01*
X5427Y10158D01*
X5425Y10169D01*
X5422Y10179D01*
X5418Y10187D01*
X5415Y10194D01*
X5411Y10198D01*
X5409Y10201D01*
X5408Y10202D01*
X5400Y10209D01*
X5391Y10214D01*
X5381Y10218D01*
X5373Y10220D01*
X5365Y10222D01*
X5359Y10222D01*
X5356Y10223D01*
X5353D01*
X5341Y10222D01*
X5331Y10220D01*
X5322Y10217D01*
X5314Y10213D01*
X5308Y10209D01*
X5304Y10207D01*
X5301Y10204D01*
X5300Y10203D01*
X5294Y10195D01*
X5289Y10188D01*
X5285Y10180D01*
X5283Y10172D01*
X5281Y10166D01*
X5280Y10160D01*
X5280Y10157D01*
Y10157D01*
Y10156D01*
X5281Y10146D01*
X5283Y10136D01*
X5287Y10126D01*
X5291Y10117D01*
X5295Y10110D01*
X5299Y10104D01*
X5300Y10102D01*
X5301Y10100D01*
X5303Y10099D01*
Y10099D01*
X5307Y10093D01*
X5313Y10087D01*
X5319Y10080D01*
X5325Y10073D01*
X5339Y10060D01*
X5353Y10047D01*
X5360Y10041D01*
X5366Y10035D01*
X5372Y10030D01*
X5377Y10026D01*
X5381Y10022D01*
X5385Y10020D01*
X5387Y10018D01*
X5387Y10017D01*
X5401Y10006D01*
X5414Y9995D01*
X5425Y9985D01*
X5433Y9976D01*
X5440Y9969D01*
X5445Y9964D01*
X5448Y9961D01*
X5449Y9960D01*
Y9960D01*
X5457Y9950D01*
X5463Y9941D01*
X5468Y9932D01*
X5473Y9925D01*
X5476Y9918D01*
X5478Y9913D01*
X5480Y9910D01*
X5480Y9909D01*
Y9908D01*
X5482Y9902D01*
X5483Y9897D01*
X5485Y9891D01*
X5485Y9886D01*
X5486Y9882D01*
Y9879D01*
Y9876D01*
Y9876D01*
X5231D01*
Y9921D01*
X5420D01*
X5414Y9931D01*
X5410Y9935D01*
X5407Y9938D01*
X5405Y9942D01*
X5402Y9944D01*
X5401Y9946D01*
X5400Y9946D01*
X5397Y9949D01*
X5394Y9952D01*
X5386Y9959D01*
X5377Y9967D01*
X5368Y9976D01*
X5359Y9983D01*
X5355Y9986D01*
X5352Y9990D01*
X5349Y9992D01*
X5347Y9993D01*
X5346Y9995D01*
X5345Y9995D01*
X5336Y10003D01*
X5328Y10010D01*
X5320Y10017D01*
X5313Y10023D01*
X5306Y10029D01*
X5300Y10035D01*
X5295Y10040D01*
X5290Y10044D01*
X5286Y10049D01*
X5283Y10052D01*
X5280Y10055D01*
X5277Y10058D01*
X5274Y10061D01*
X5273Y10062D01*
X5265Y10072D01*
X5259Y10080D01*
X5253Y10088D01*
X5249Y10095D01*
X5245Y10101D01*
X5243Y10106D01*
X5242Y10108D01*
X5241Y10109D01*
X5238Y10118D01*
X5236Y10126D01*
X5234Y10134D01*
X5233Y10140D01*
X5232Y10147D01*
X5231Y10151D01*
Y10154D01*
Y10155D01*
X5232Y10163D01*
X5233Y10171D01*
X5234Y10179D01*
X5236Y10185D01*
X5242Y10199D01*
X5248Y10209D01*
X5251Y10214D01*
X5254Y10218D01*
X5256Y10222D01*
X5259Y10225D01*
X5261Y10227D01*
X5263Y10229D01*
X5264Y10230D01*
X5264Y10230D01*
X5270Y10236D01*
X5277Y10241D01*
X5284Y10245D01*
X5291Y10248D01*
X5306Y10254D01*
X5320Y10258D01*
X5326Y10259D01*
X5332Y10260D01*
X5338Y10260D01*
X5342Y10261D01*
X5346Y10261D01*
X5352D01*
X5362Y10261D01*
D02*
G37*
G36*
X5636Y10252D02*
X5642Y10243D01*
X5649Y10234D01*
X5656Y10227D01*
X5663Y10220D01*
X5668Y10214D01*
X5670Y10213D01*
X5672Y10211D01*
X5672Y10210D01*
X5673Y10210D01*
X5684Y10200D01*
X5696Y10192D01*
X5707Y10184D01*
X5718Y10178D01*
X5728Y10172D01*
X5732Y10170D01*
X5735Y10168D01*
X5738Y10167D01*
X5740Y10166D01*
X5741Y10165D01*
X5742D01*
Y10119D01*
X5733Y10123D01*
X5725Y10127D01*
X5717Y10130D01*
X5709Y10134D01*
X5702Y10138D01*
X5697Y10140D01*
X5693Y10143D01*
X5693Y10143D01*
X5692D01*
X5682Y10149D01*
X5673Y10155D01*
X5665Y10161D01*
X5659Y10166D01*
X5654Y10170D01*
X5651Y10173D01*
X5648Y10175D01*
X5647Y10176D01*
Y9876D01*
X5600D01*
Y10261D01*
X5631D01*
X5636Y10252D01*
D02*
G37*
G36*
X4473Y9876D02*
X4422D01*
Y10057D01*
X4224D01*
Y9876D01*
X4173D01*
Y10260D01*
X4224D01*
Y10102D01*
X4422D01*
Y10260D01*
X4473D01*
Y9876D01*
D02*
G37*
G36*
X3696Y10020D02*
X3798Y9876D01*
X3741D01*
X3666Y9982D01*
X3653Y9962D01*
X3595Y9876D01*
X3537D01*
X3639Y10020D01*
X3544Y10154D01*
X3601D01*
X3648Y10088D01*
X3655Y10078D01*
X3659Y10073D01*
X3662Y10068D01*
X3665Y10064D01*
X3667Y10061D01*
X3669Y10058D01*
X3669Y10058D01*
X3672Y10063D01*
X3675Y10068D01*
X3679Y10073D01*
X3681Y10078D01*
X3684Y10082D01*
X3686Y10086D01*
X3688Y10088D01*
X3689Y10088D01*
X3732Y10154D01*
X3790D01*
X3696Y10020D01*
D02*
G37*
G36*
X3428D02*
X3529Y9876D01*
X3472D01*
X3397Y9982D01*
X3384Y9962D01*
X3326Y9876D01*
X3268D01*
X3370Y10020D01*
X3275Y10154D01*
X3332D01*
X3379Y10088D01*
X3387Y10078D01*
X3390Y10073D01*
X3393Y10068D01*
X3396Y10064D01*
X3398Y10061D01*
X3400Y10058D01*
X3401Y10058D01*
X3403Y10063D01*
X3407Y10068D01*
X3410Y10073D01*
X3413Y10078D01*
X3416Y10082D01*
X3418Y10086D01*
X3419Y10088D01*
X3420Y10088D01*
X3464Y10154D01*
X3522D01*
X3428Y10020D01*
D02*
G37*
G36*
X6832Y9876D02*
X6545D01*
Y9921D01*
X6780D01*
Y10052D01*
X6568D01*
Y10097D01*
X6780D01*
Y10214D01*
X6554D01*
Y10260D01*
X6832D01*
Y9876D01*
D02*
G37*
G36*
X6116D02*
X6065D01*
Y10032D01*
X5967D01*
X5952Y10032D01*
X5939Y10033D01*
X5926Y10035D01*
X5915Y10037D01*
X5905Y10039D01*
X5896Y10042D01*
X5888Y10046D01*
X5880Y10049D01*
X5874Y10052D01*
X5869Y10055D01*
X5864Y10058D01*
X5861Y10061D01*
X5858Y10062D01*
X5856Y10064D01*
X5855Y10065D01*
X5855Y10066D01*
X5849Y10072D01*
X5844Y10079D01*
X5840Y10086D01*
X5836Y10093D01*
X5833Y10100D01*
X5831Y10107D01*
X5827Y10119D01*
X5826Y10126D01*
X5825Y10131D01*
X5824Y10136D01*
X5824Y10140D01*
X5823Y10144D01*
Y10146D01*
Y10148D01*
Y10148D01*
X5824Y10159D01*
X5825Y10169D01*
X5827Y10178D01*
X5829Y10185D01*
X5831Y10192D01*
X5833Y10197D01*
X5834Y10200D01*
X5835Y10201D01*
X5839Y10209D01*
X5845Y10217D01*
X5850Y10223D01*
X5855Y10228D01*
X5859Y10232D01*
X5863Y10235D01*
X5865Y10237D01*
X5866Y10238D01*
X5873Y10242D01*
X5881Y10246D01*
X5889Y10249D01*
X5896Y10252D01*
X5903Y10254D01*
X5908Y10255D01*
X5912Y10256D01*
X5913D01*
X5921Y10257D01*
X5931Y10258D01*
X5941Y10259D01*
X5950Y10259D01*
X5959Y10260D01*
X6116D01*
Y9876D01*
D02*
G37*
G36*
X4862D02*
X4724D01*
X4711Y9876D01*
X4700Y9877D01*
X4689Y9878D01*
X4680Y9879D01*
X4673Y9880D01*
X4667Y9881D01*
X4665Y9881D01*
X4664Y9882D01*
X4663D01*
X4653Y9885D01*
X4644Y9888D01*
X4636Y9891D01*
X4629Y9894D01*
X4624Y9897D01*
X4620Y9899D01*
X4618Y9901D01*
X4617Y9901D01*
X4609Y9906D01*
X4603Y9912D01*
X4597Y9918D01*
X4592Y9923D01*
X4588Y9928D01*
X4584Y9932D01*
X4582Y9935D01*
X4582Y9936D01*
X4576Y9945D01*
X4570Y9955D01*
X4566Y9963D01*
X4563Y9972D01*
X4559Y9980D01*
X4557Y9986D01*
X4557Y9988D01*
X4556Y9990D01*
X4555Y9991D01*
Y9992D01*
X4552Y10005D01*
X4549Y10018D01*
X4548Y10031D01*
X4546Y10043D01*
X4545Y10054D01*
Y10058D01*
X4545Y10062D01*
Y10065D01*
Y10068D01*
Y10069D01*
Y10069D01*
X4545Y10088D01*
X4547Y10106D01*
X4550Y10121D01*
X4551Y10128D01*
X4553Y10134D01*
X4554Y10140D01*
X4555Y10145D01*
X4557Y10150D01*
X4558Y10154D01*
X4559Y10157D01*
X4560Y10159D01*
X4560Y10160D01*
Y10161D01*
X4567Y10175D01*
X4574Y10188D01*
X4582Y10199D01*
X4589Y10209D01*
X4595Y10217D01*
X4601Y10222D01*
X4603Y10224D01*
X4605Y10225D01*
X4605Y10226D01*
X4606Y10227D01*
X4615Y10234D01*
X4624Y10239D01*
X4634Y10244D01*
X4643Y10248D01*
X4650Y10251D01*
X4657Y10253D01*
X4659Y10254D01*
X4660D01*
X4661Y10254D01*
X4662D01*
X4671Y10256D01*
X4683Y10258D01*
X4694Y10259D01*
X4705Y10259D01*
X4715Y10260D01*
X4862D01*
Y9876D01*
D02*
G37*
G36*
X4116Y10214D02*
X3990D01*
Y9876D01*
X3939D01*
Y10214D01*
X3812D01*
Y10260D01*
X4116D01*
Y10214D01*
D02*
G37*
G36*
X6356Y10266D02*
X6369Y10264D01*
X6381Y10262D01*
X6392Y10260D01*
X6400Y10258D01*
X6404Y10256D01*
X6407Y10255D01*
X6409Y10254D01*
X6411Y10254D01*
X6412Y10253D01*
X6413D01*
X6424Y10248D01*
X6434Y10242D01*
X6442Y10235D01*
X6449Y10229D01*
X6454Y10223D01*
X6457Y10219D01*
X6460Y10215D01*
X6461Y10215D01*
Y10214D01*
X6466Y10205D01*
X6470Y10195D01*
X6473Y10186D01*
X6475Y10178D01*
X6476Y10170D01*
X6477Y10165D01*
Y10163D01*
Y10161D01*
Y10160D01*
Y10160D01*
X6476Y10150D01*
X6475Y10142D01*
X6472Y10133D01*
X6470Y10126D01*
X6468Y10121D01*
X6466Y10116D01*
X6464Y10113D01*
X6464Y10112D01*
X6458Y10104D01*
X6451Y10097D01*
X6445Y10091D01*
X6438Y10086D01*
X6432Y10082D01*
X6428Y10079D01*
X6424Y10077D01*
X6424Y10076D01*
X6423D01*
X6419Y10074D01*
X6414Y10072D01*
X6403Y10068D01*
X6390Y10064D01*
X6378Y10060D01*
X6366Y10057D01*
X6361Y10056D01*
X6357Y10054D01*
X6354Y10053D01*
X6351Y10053D01*
X6349Y10052D01*
X6349D01*
X6339Y10050D01*
X6330Y10048D01*
X6323Y10046D01*
X6316Y10044D01*
X6309Y10042D01*
X6304Y10041D01*
X6299Y10039D01*
X6295Y10038D01*
X6291Y10037D01*
X6288Y10036D01*
X6284Y10034D01*
X6281Y10034D01*
X6280Y10033D01*
X6272Y10030D01*
X6265Y10026D01*
X6259Y10022D01*
X6254Y10019D01*
X6250Y10016D01*
X6248Y10013D01*
X6247Y10012D01*
X6246Y10011D01*
X6242Y10006D01*
X6239Y10001D01*
X6238Y9995D01*
X6236Y9991D01*
X6235Y9986D01*
X6235Y9983D01*
Y9980D01*
Y9980D01*
X6235Y9973D01*
X6237Y9967D01*
X6238Y9961D01*
X6240Y9957D01*
X6243Y9952D01*
X6244Y9950D01*
X6245Y9947D01*
X6246Y9947D01*
X6250Y9941D01*
X6256Y9937D01*
X6262Y9933D01*
X6267Y9929D01*
X6272Y9927D01*
X6275Y9925D01*
X6278Y9923D01*
X6279Y9923D01*
X6288Y9920D01*
X6297Y9918D01*
X6305Y9917D01*
X6313Y9916D01*
X6320Y9915D01*
X6325Y9915D01*
X6330D01*
X6343Y9915D01*
X6354Y9916D01*
X6364Y9918D01*
X6373Y9920D01*
X6380Y9922D01*
X6385Y9924D01*
X6387Y9925D01*
X6389Y9925D01*
X6389Y9926D01*
X6390D01*
X6399Y9930D01*
X6407Y9935D01*
X6413Y9940D01*
X6419Y9945D01*
X6423Y9949D01*
X6426Y9953D01*
X6428Y9955D01*
X6428Y9956D01*
X6432Y9963D01*
X6436Y9971D01*
X6438Y9979D01*
X6440Y9986D01*
X6442Y9993D01*
X6443Y9998D01*
Y10001D01*
X6444Y10002D01*
Y10003D01*
Y10003D01*
X6491Y9999D01*
X6490Y9985D01*
X6488Y9972D01*
X6485Y9960D01*
X6481Y9950D01*
X6477Y9941D01*
X6475Y9938D01*
X6474Y9935D01*
X6472Y9933D01*
X6472Y9931D01*
X6471Y9930D01*
Y9930D01*
X6462Y9919D01*
X6454Y9910D01*
X6444Y9902D01*
X6435Y9895D01*
X6428Y9890D01*
X6421Y9887D01*
X6419Y9886D01*
X6417Y9885D01*
X6416Y9884D01*
X6415D01*
X6401Y9879D01*
X6387Y9875D01*
X6373Y9873D01*
X6359Y9871D01*
X6352Y9870D01*
X6346Y9870D01*
X6341D01*
X6337Y9869D01*
X6328D01*
X6313Y9870D01*
X6299Y9871D01*
X6287Y9874D01*
X6276Y9877D01*
X6267Y9879D01*
X6263Y9881D01*
X6260Y9882D01*
X6258Y9883D01*
X6256Y9884D01*
X6255Y9884D01*
X6254D01*
X6243Y9890D01*
X6233Y9897D01*
X6224Y9904D01*
X6217Y9911D01*
X6211Y9916D01*
X6207Y9921D01*
X6204Y9925D01*
X6204Y9925D01*
Y9926D01*
X6198Y9936D01*
X6193Y9946D01*
X6191Y9956D01*
X6188Y9965D01*
X6187Y9972D01*
X6186Y9978D01*
Y9981D01*
Y9982D01*
Y9983D01*
Y9983D01*
X6187Y9995D01*
X6188Y10005D01*
X6191Y10015D01*
X6194Y10022D01*
X6197Y10029D01*
X6199Y10034D01*
X6202Y10037D01*
X6202Y10038D01*
X6209Y10046D01*
X6217Y10054D01*
X6225Y10061D01*
X6233Y10067D01*
X6240Y10071D01*
X6247Y10074D01*
X6249Y10076D01*
X6250Y10077D01*
X6252Y10077D01*
X6252D01*
X6257Y10079D01*
X6262Y10081D01*
X6268Y10083D01*
X6275Y10086D01*
X6289Y10089D01*
X6303Y10093D01*
X6310Y10095D01*
X6316Y10097D01*
X6322Y10098D01*
X6327Y10099D01*
X6331Y10101D01*
X6334Y10101D01*
X6336Y10102D01*
X6337D01*
X6348Y10104D01*
X6358Y10107D01*
X6367Y10109D01*
X6375Y10112D01*
X6382Y10114D01*
X6388Y10117D01*
X6394Y10119D01*
X6399Y10121D01*
X6403Y10123D01*
X6406Y10124D01*
X6408Y10126D01*
X6410Y10127D01*
X6413Y10129D01*
X6414Y10129D01*
X6419Y10135D01*
X6422Y10140D01*
X6425Y10146D01*
X6426Y10152D01*
X6428Y10156D01*
X6428Y10160D01*
Y10162D01*
Y10163D01*
X6427Y10172D01*
X6425Y10180D01*
X6421Y10187D01*
X6418Y10193D01*
X6414Y10197D01*
X6411Y10201D01*
X6409Y10203D01*
X6408Y10204D01*
X6403Y10207D01*
X6399Y10209D01*
X6388Y10214D01*
X6377Y10217D01*
X6366Y10219D01*
X6356Y10220D01*
X6351Y10220D01*
X6348Y10221D01*
X6340D01*
X6325Y10220D01*
X6311Y10218D01*
X6300Y10215D01*
X6290Y10212D01*
X6283Y10208D01*
X6278Y10205D01*
X6275Y10203D01*
X6274Y10202D01*
X6266Y10194D01*
X6260Y10186D01*
X6255Y10177D01*
X6252Y10168D01*
X6249Y10160D01*
X6248Y10154D01*
X6247Y10151D01*
X6247Y10149D01*
Y10148D01*
Y10148D01*
X6198Y10152D01*
X6199Y10164D01*
X6202Y10175D01*
X6204Y10185D01*
X6208Y10194D01*
X6212Y10202D01*
X6214Y10207D01*
X6216Y10209D01*
X6217Y10210D01*
X6217Y10211D01*
Y10212D01*
X6224Y10221D01*
X6232Y10229D01*
X6240Y10237D01*
X6249Y10242D01*
X6256Y10247D01*
X6262Y10250D01*
X6264Y10251D01*
X6265Y10252D01*
X6267Y10253D01*
X6267D01*
X6279Y10257D01*
X6293Y10260D01*
X6305Y10263D01*
X6317Y10265D01*
X6327Y10266D01*
X6331D01*
X6335Y10266D01*
X6342D01*
X6356Y10266D01*
D02*
G37*
G36*
X5211Y9769D02*
X4898D01*
Y9803D01*
X5211D01*
Y9769D01*
D02*
G37*
G36*
X5813Y9692D02*
X5822Y9691D01*
X5831Y9690D01*
X5839Y9688D01*
X5847Y9686D01*
X5854Y9684D01*
X5861Y9681D01*
X5867Y9678D01*
X5873Y9675D01*
X5877Y9672D01*
X5881Y9670D01*
X5884Y9668D01*
X5887Y9666D01*
X5889Y9665D01*
X5890Y9664D01*
X5890Y9664D01*
X5896Y9658D01*
X5901Y9652D01*
X5906Y9645D01*
X5910Y9639D01*
X5916Y9625D01*
X5921Y9612D01*
X5922Y9606D01*
X5924Y9600D01*
X5925Y9595D01*
X5926Y9590D01*
X5927Y9586D01*
Y9584D01*
X5927Y9582D01*
Y9581D01*
X5879Y9576D01*
X5878Y9589D01*
X5876Y9600D01*
X5873Y9610D01*
X5869Y9618D01*
X5865Y9625D01*
X5862Y9629D01*
X5860Y9632D01*
X5859Y9633D01*
X5850Y9640D01*
X5841Y9645D01*
X5832Y9649D01*
X5824Y9651D01*
X5816Y9652D01*
X5809Y9653D01*
X5807Y9654D01*
X5804D01*
X5792Y9653D01*
X5781Y9651D01*
X5773Y9647D01*
X5765Y9644D01*
X5759Y9640D01*
X5755Y9637D01*
X5752Y9635D01*
X5751Y9634D01*
X5744Y9626D01*
X5739Y9619D01*
X5735Y9611D01*
X5733Y9603D01*
X5732Y9597D01*
X5731Y9591D01*
X5730Y9588D01*
Y9587D01*
Y9587D01*
X5732Y9577D01*
X5734Y9566D01*
X5738Y9557D01*
X5742Y9548D01*
X5746Y9541D01*
X5750Y9535D01*
X5751Y9533D01*
X5752Y9531D01*
X5753Y9530D01*
Y9530D01*
X5758Y9524D01*
X5763Y9518D01*
X5769Y9511D01*
X5776Y9504D01*
X5790Y9491D01*
X5804Y9478D01*
X5811Y9471D01*
X5817Y9466D01*
X5823Y9461D01*
X5828Y9457D01*
X5832Y9453D01*
X5835Y9450D01*
X5838Y9449D01*
X5838Y9448D01*
X5852Y9437D01*
X5865Y9425D01*
X5875Y9415D01*
X5884Y9407D01*
X5891Y9400D01*
X5896Y9395D01*
X5899Y9392D01*
X5900Y9391D01*
Y9390D01*
X5907Y9381D01*
X5914Y9372D01*
X5919Y9363D01*
X5924Y9355D01*
X5927Y9349D01*
X5929Y9344D01*
X5930Y9341D01*
X5931Y9340D01*
Y9339D01*
X5933Y9333D01*
X5934Y9328D01*
X5935Y9322D01*
X5936Y9317D01*
X5936Y9313D01*
Y9309D01*
Y9307D01*
Y9307D01*
X5682D01*
Y9352D01*
X5871D01*
X5864Y9362D01*
X5861Y9365D01*
X5858Y9369D01*
X5855Y9373D01*
X5853Y9375D01*
X5851Y9377D01*
X5851Y9377D01*
X5848Y9380D01*
X5845Y9383D01*
X5837Y9390D01*
X5828Y9398D01*
X5819Y9407D01*
X5810Y9414D01*
X5806Y9417D01*
X5803Y9420D01*
X5800Y9423D01*
X5798Y9424D01*
X5796Y9425D01*
X5796Y9426D01*
X5787Y9434D01*
X5778Y9441D01*
X5770Y9448D01*
X5763Y9454D01*
X5757Y9460D01*
X5751Y9466D01*
X5745Y9471D01*
X5741Y9475D01*
X5737Y9480D01*
X5733Y9483D01*
X5730Y9486D01*
X5728Y9489D01*
X5725Y9492D01*
X5724Y9493D01*
X5716Y9503D01*
X5709Y9511D01*
X5704Y9519D01*
X5699Y9526D01*
X5696Y9532D01*
X5694Y9536D01*
X5693Y9539D01*
X5692Y9540D01*
X5689Y9549D01*
X5687Y9557D01*
X5684Y9565D01*
X5683Y9571D01*
X5683Y9578D01*
X5682Y9582D01*
Y9585D01*
Y9586D01*
X5683Y9594D01*
X5684Y9602D01*
X5685Y9610D01*
X5687Y9616D01*
X5693Y9630D01*
X5698Y9640D01*
X5702Y9645D01*
X5704Y9649D01*
X5707Y9653D01*
X5710Y9656D01*
X5712Y9658D01*
X5713Y9660D01*
X5714Y9661D01*
X5715Y9661D01*
X5721Y9667D01*
X5728Y9672D01*
X5735Y9676D01*
X5742Y9679D01*
X5757Y9685D01*
X5771Y9689D01*
X5777Y9690D01*
X5783Y9691D01*
X5789Y9691D01*
X5793Y9692D01*
X5797Y9692D01*
X5803D01*
X5813Y9692D01*
D02*
G37*
G36*
X5215D02*
X5225Y9691D01*
X5234Y9690D01*
X5242Y9688D01*
X5250Y9686D01*
X5257Y9684D01*
X5264Y9681D01*
X5270Y9678D01*
X5275Y9675D01*
X5280Y9672D01*
X5284Y9670D01*
X5287Y9668D01*
X5290Y9666D01*
X5291Y9665D01*
X5293Y9664D01*
X5293Y9664D01*
X5299Y9658D01*
X5304Y9652D01*
X5309Y9645D01*
X5313Y9639D01*
X5319Y9625D01*
X5324Y9612D01*
X5325Y9606D01*
X5327Y9600D01*
X5328Y9595D01*
X5329Y9590D01*
X5330Y9586D01*
Y9584D01*
X5330Y9582D01*
Y9581D01*
X5282Y9576D01*
X5281Y9589D01*
X5279Y9600D01*
X5275Y9610D01*
X5271Y9618D01*
X5268Y9625D01*
X5265Y9629D01*
X5263Y9632D01*
X5261Y9633D01*
X5253Y9640D01*
X5244Y9645D01*
X5235Y9649D01*
X5226Y9651D01*
X5219Y9652D01*
X5212Y9653D01*
X5210Y9654D01*
X5207D01*
X5195Y9653D01*
X5184Y9651D01*
X5175Y9647D01*
X5168Y9644D01*
X5162Y9640D01*
X5158Y9637D01*
X5155Y9635D01*
X5154Y9634D01*
X5147Y9626D01*
X5142Y9619D01*
X5138Y9611D01*
X5136Y9603D01*
X5134Y9597D01*
X5134Y9591D01*
X5133Y9588D01*
Y9587D01*
Y9587D01*
X5134Y9577D01*
X5137Y9566D01*
X5140Y9557D01*
X5144Y9548D01*
X5149Y9541D01*
X5153Y9535D01*
X5154Y9533D01*
X5155Y9531D01*
X5156Y9530D01*
Y9530D01*
X5160Y9524D01*
X5166Y9518D01*
X5172Y9511D01*
X5179Y9504D01*
X5193Y9491D01*
X5207Y9478D01*
X5214Y9471D01*
X5220Y9466D01*
X5226Y9461D01*
X5231Y9457D01*
X5235Y9453D01*
X5238Y9450D01*
X5240Y9449D01*
X5241Y9448D01*
X5255Y9437D01*
X5268Y9425D01*
X5278Y9415D01*
X5286Y9407D01*
X5294Y9400D01*
X5299Y9395D01*
X5301Y9392D01*
X5303Y9391D01*
Y9390D01*
X5310Y9381D01*
X5316Y9372D01*
X5322Y9363D01*
X5326Y9355D01*
X5330Y9349D01*
X5332Y9344D01*
X5333Y9341D01*
X5334Y9340D01*
Y9339D01*
X5336Y9333D01*
X5337Y9328D01*
X5338Y9322D01*
X5339Y9317D01*
X5339Y9313D01*
Y9309D01*
Y9307D01*
Y9307D01*
X5084D01*
Y9352D01*
X5274D01*
X5267Y9362D01*
X5264Y9365D01*
X5261Y9369D01*
X5258Y9373D01*
X5256Y9375D01*
X5254Y9377D01*
X5254Y9377D01*
X5251Y9380D01*
X5248Y9383D01*
X5240Y9390D01*
X5231Y9398D01*
X5221Y9407D01*
X5213Y9414D01*
X5209Y9417D01*
X5205Y9420D01*
X5203Y9423D01*
X5200Y9424D01*
X5199Y9425D01*
X5199Y9426D01*
X5190Y9434D01*
X5181Y9441D01*
X5173Y9448D01*
X5166Y9454D01*
X5159Y9460D01*
X5154Y9466D01*
X5148Y9471D01*
X5144Y9475D01*
X5139Y9480D01*
X5136Y9483D01*
X5133Y9486D01*
X5130Y9489D01*
X5128Y9492D01*
X5127Y9493D01*
X5119Y9503D01*
X5112Y9511D01*
X5107Y9519D01*
X5102Y9526D01*
X5099Y9532D01*
X5097Y9536D01*
X5096Y9539D01*
X5095Y9540D01*
X5092Y9549D01*
X5089Y9557D01*
X5087Y9565D01*
X5086Y9571D01*
X5086Y9578D01*
X5085Y9582D01*
Y9585D01*
Y9586D01*
X5086Y9594D01*
X5087Y9602D01*
X5088Y9610D01*
X5090Y9616D01*
X5096Y9630D01*
X5101Y9640D01*
X5104Y9645D01*
X5107Y9649D01*
X5110Y9653D01*
X5113Y9656D01*
X5115Y9658D01*
X5116Y9660D01*
X5117Y9661D01*
X5118Y9661D01*
X5124Y9667D01*
X5130Y9672D01*
X5138Y9676D01*
X5145Y9679D01*
X5159Y9685D01*
X5174Y9689D01*
X5180Y9690D01*
X5186Y9691D01*
X5192Y9691D01*
X5196Y9692D01*
X5200Y9692D01*
X5205D01*
X5215Y9692D01*
D02*
G37*
G36*
X4892Y9683D02*
X4898Y9674D01*
X4906Y9665D01*
X4912Y9657D01*
X4919Y9651D01*
X4924Y9645D01*
X4926Y9644D01*
X4928Y9642D01*
X4928Y9641D01*
X4929Y9641D01*
X4941Y9631D01*
X4952Y9622D01*
X4963Y9615D01*
X4975Y9609D01*
X4984Y9603D01*
X4988Y9601D01*
X4991Y9599D01*
X4994Y9597D01*
X4996Y9597D01*
X4997Y9596D01*
X4998D01*
Y9550D01*
X4990Y9554D01*
X4981Y9558D01*
X4973Y9561D01*
X4965Y9565D01*
X4958Y9569D01*
X4953Y9571D01*
X4950Y9574D01*
X4949Y9574D01*
X4948D01*
X4938Y9580D01*
X4930Y9586D01*
X4922Y9592D01*
X4916Y9597D01*
X4910Y9601D01*
X4907Y9604D01*
X4904Y9606D01*
X4903Y9607D01*
Y9307D01*
X4856D01*
Y9692D01*
X4887D01*
X4892Y9683D01*
D02*
G37*
G36*
X6109Y9307D02*
X6065D01*
X5959Y9585D01*
X6007D01*
X6069Y9415D01*
X6073Y9404D01*
X6077Y9394D01*
X6080Y9384D01*
X6082Y9377D01*
X6084Y9370D01*
X6086Y9366D01*
X6086Y9363D01*
X6087Y9362D01*
X6090Y9373D01*
X6093Y9383D01*
X6096Y9393D01*
X6099Y9401D01*
X6101Y9408D01*
X6103Y9414D01*
X6103Y9415D01*
X6104Y9417D01*
X6105Y9418D01*
Y9418D01*
X6164Y9585D01*
X6214D01*
X6109Y9307D01*
D02*
G37*
G36*
X4709D02*
X4655D01*
Y9360D01*
X4709D01*
Y9307D01*
D02*
G37*
G36*
X4261D02*
X4207D01*
Y9360D01*
X4261D01*
Y9307D01*
D02*
G37*
G36*
X5521Y9691D02*
X5535Y9689D01*
X5546Y9685D01*
X5556Y9681D01*
X5564Y9677D01*
X5568Y9675D01*
X5571Y9673D01*
X5573Y9672D01*
X5574Y9671D01*
X5575Y9670D01*
X5576D01*
X5586Y9661D01*
X5594Y9650D01*
X5601Y9640D01*
X5607Y9630D01*
X5611Y9620D01*
X5613Y9616D01*
X5614Y9612D01*
X5616Y9610D01*
X5617Y9607D01*
X5617Y9606D01*
Y9606D01*
X5619Y9597D01*
X5622Y9589D01*
X5625Y9571D01*
X5628Y9553D01*
X5629Y9535D01*
X5630Y9527D01*
X5631Y9520D01*
Y9513D01*
X5631Y9507D01*
Y9503D01*
Y9499D01*
Y9496D01*
Y9496D01*
X5631Y9476D01*
X5629Y9458D01*
X5628Y9442D01*
X5625Y9426D01*
X5622Y9412D01*
X5619Y9399D01*
X5616Y9387D01*
X5612Y9377D01*
X5609Y9368D01*
X5605Y9360D01*
X5602Y9354D01*
X5599Y9349D01*
X5597Y9344D01*
X5595Y9342D01*
X5594Y9340D01*
X5593Y9339D01*
X5587Y9333D01*
X5581Y9327D01*
X5573Y9321D01*
X5566Y9317D01*
X5559Y9313D01*
X5552Y9309D01*
X5545Y9307D01*
X5538Y9305D01*
X5531Y9303D01*
X5525Y9302D01*
X5520Y9301D01*
X5515Y9301D01*
X5511Y9300D01*
X5506D01*
X5491Y9301D01*
X5477Y9303D01*
X5465Y9307D01*
X5455Y9311D01*
X5447Y9315D01*
X5444Y9317D01*
X5441Y9319D01*
X5439Y9320D01*
X5437Y9321D01*
X5437Y9322D01*
X5436D01*
X5426Y9332D01*
X5418Y9342D01*
X5411Y9353D01*
X5405Y9363D01*
X5401Y9372D01*
X5399Y9376D01*
X5397Y9380D01*
X5396Y9383D01*
X5395Y9385D01*
X5395Y9386D01*
Y9387D01*
X5392Y9395D01*
X5390Y9403D01*
X5386Y9421D01*
X5384Y9439D01*
X5382Y9457D01*
X5381Y9465D01*
X5381Y9472D01*
Y9479D01*
X5380Y9485D01*
Y9489D01*
Y9493D01*
Y9495D01*
Y9496D01*
Y9506D01*
X5381Y9516D01*
Y9525D01*
X5381Y9534D01*
X5382Y9542D01*
X5383Y9550D01*
X5384Y9556D01*
X5385Y9563D01*
X5385Y9568D01*
X5386Y9573D01*
X5387Y9577D01*
X5387Y9580D01*
X5388Y9583D01*
X5389Y9585D01*
X5389Y9586D01*
Y9586D01*
X5392Y9599D01*
X5396Y9610D01*
X5401Y9619D01*
X5404Y9627D01*
X5408Y9635D01*
X5410Y9640D01*
X5412Y9642D01*
X5413Y9644D01*
X5419Y9652D01*
X5425Y9659D01*
X5432Y9665D01*
X5438Y9671D01*
X5444Y9675D01*
X5448Y9677D01*
X5451Y9679D01*
X5451Y9680D01*
X5452D01*
X5461Y9684D01*
X5470Y9687D01*
X5479Y9689D01*
X5487Y9691D01*
X5495Y9692D01*
X5501Y9692D01*
X5506D01*
X5521Y9691D01*
D02*
G37*
G36*
X4470Y9692D02*
X4479Y9691D01*
X4494Y9688D01*
X4502Y9686D01*
X4508Y9684D01*
X4514Y9681D01*
X4520Y9678D01*
X4524Y9675D01*
X4529Y9672D01*
X4533Y9670D01*
X4536Y9668D01*
X4538Y9666D01*
X4539Y9665D01*
X4541Y9664D01*
X4541Y9664D01*
X4546Y9658D01*
X4551Y9652D01*
X4555Y9646D01*
X4558Y9640D01*
X4564Y9629D01*
X4567Y9617D01*
X4569Y9608D01*
X4570Y9604D01*
X4570Y9600D01*
X4571Y9597D01*
Y9595D01*
Y9594D01*
Y9593D01*
X4570Y9583D01*
X4569Y9574D01*
X4567Y9565D01*
X4564Y9558D01*
X4562Y9553D01*
X4559Y9548D01*
X4558Y9546D01*
X4557Y9545D01*
X4551Y9538D01*
X4544Y9532D01*
X4537Y9526D01*
X4530Y9522D01*
X4523Y9519D01*
X4518Y9516D01*
X4516Y9515D01*
X4514Y9515D01*
X4514Y9514D01*
X4513D01*
X4526Y9510D01*
X4537Y9505D01*
X4546Y9499D01*
X4554Y9494D01*
X4560Y9488D01*
X4564Y9484D01*
X4567Y9481D01*
X4568Y9480D01*
Y9480D01*
X4574Y9470D01*
X4579Y9459D01*
X4582Y9449D01*
X4584Y9439D01*
X4585Y9430D01*
X4586Y9427D01*
Y9423D01*
X4587Y9421D01*
Y9419D01*
Y9418D01*
Y9417D01*
X4586Y9408D01*
X4585Y9399D01*
X4583Y9391D01*
X4581Y9383D01*
X4575Y9369D01*
X4573Y9362D01*
X4569Y9357D01*
X4566Y9351D01*
X4563Y9347D01*
X4560Y9343D01*
X4558Y9339D01*
X4555Y9337D01*
X4554Y9335D01*
X4553Y9334D01*
X4552Y9333D01*
X4545Y9327D01*
X4538Y9322D01*
X4531Y9318D01*
X4523Y9314D01*
X4516Y9311D01*
X4508Y9308D01*
X4493Y9304D01*
X4486Y9303D01*
X4480Y9302D01*
X4474Y9301D01*
X4469Y9301D01*
X4466Y9300D01*
X4460D01*
X4449Y9301D01*
X4440Y9302D01*
X4431Y9303D01*
X4422Y9305D01*
X4414Y9308D01*
X4406Y9311D01*
X4399Y9313D01*
X4393Y9317D01*
X4387Y9320D01*
X4382Y9323D01*
X4378Y9326D01*
X4375Y9328D01*
X4372Y9330D01*
X4370Y9332D01*
X4369Y9333D01*
X4368Y9333D01*
X4362Y9340D01*
X4357Y9347D01*
X4352Y9353D01*
X4348Y9360D01*
X4345Y9367D01*
X4342Y9374D01*
X4338Y9387D01*
X4336Y9393D01*
X4335Y9399D01*
X4335Y9404D01*
X4334Y9408D01*
X4333Y9411D01*
Y9414D01*
Y9415D01*
Y9416D01*
X4334Y9429D01*
X4336Y9440D01*
X4340Y9451D01*
X4343Y9460D01*
X4346Y9467D01*
X4350Y9473D01*
X4352Y9476D01*
X4352Y9476D01*
Y9477D01*
X4360Y9486D01*
X4368Y9494D01*
X4377Y9500D01*
X4386Y9505D01*
X4393Y9509D01*
X4400Y9512D01*
X4402Y9513D01*
X4404Y9514D01*
X4405Y9514D01*
X4406D01*
X4396Y9519D01*
X4387Y9524D01*
X4380Y9529D01*
X4374Y9534D01*
X4370Y9538D01*
X4366Y9541D01*
X4364Y9544D01*
X4363Y9545D01*
X4358Y9553D01*
X4355Y9560D01*
X4352Y9568D01*
X4351Y9576D01*
X4350Y9582D01*
X4349Y9587D01*
Y9590D01*
Y9591D01*
Y9591D01*
X4350Y9599D01*
X4350Y9606D01*
X4354Y9620D01*
X4359Y9632D01*
X4365Y9643D01*
X4370Y9651D01*
X4373Y9655D01*
X4375Y9658D01*
X4377Y9660D01*
X4379Y9662D01*
X4380Y9662D01*
X4380Y9663D01*
X4386Y9668D01*
X4392Y9673D01*
X4399Y9677D01*
X4406Y9680D01*
X4419Y9685D01*
X4432Y9689D01*
X4438Y9690D01*
X4443Y9691D01*
X4448Y9691D01*
X4453Y9692D01*
X4456Y9692D01*
X4461D01*
X4470Y9692D01*
D02*
G37*
G36*
X4022D02*
X4031Y9691D01*
X4047Y9688D01*
X4054Y9686D01*
X4060Y9684D01*
X4067Y9681D01*
X4072Y9678D01*
X4077Y9675D01*
X4081Y9672D01*
X4085Y9670D01*
X4088Y9668D01*
X4090Y9666D01*
X4092Y9665D01*
X4093Y9664D01*
X4093Y9664D01*
X4098Y9658D01*
X4103Y9652D01*
X4107Y9646D01*
X4110Y9640D01*
X4116Y9629D01*
X4119Y9617D01*
X4121Y9608D01*
X4122Y9604D01*
X4123Y9600D01*
X4123Y9597D01*
Y9595D01*
Y9594D01*
Y9593D01*
X4123Y9583D01*
X4121Y9574D01*
X4119Y9565D01*
X4116Y9558D01*
X4114Y9553D01*
X4111Y9548D01*
X4110Y9546D01*
X4109Y9545D01*
X4103Y9538D01*
X4097Y9532D01*
X4089Y9526D01*
X4082Y9522D01*
X4075Y9519D01*
X4070Y9516D01*
X4068Y9515D01*
X4067Y9515D01*
X4066Y9514D01*
X4065D01*
X4078Y9510D01*
X4089Y9505D01*
X4098Y9499D01*
X4106Y9494D01*
X4112Y9488D01*
X4116Y9484D01*
X4119Y9481D01*
X4120Y9480D01*
Y9480D01*
X4126Y9470D01*
X4131Y9459D01*
X4134Y9449D01*
X4136Y9439D01*
X4138Y9430D01*
X4138Y9427D01*
Y9423D01*
X4139Y9421D01*
Y9419D01*
Y9418D01*
Y9417D01*
X4138Y9408D01*
X4137Y9399D01*
X4135Y9391D01*
X4133Y9383D01*
X4128Y9369D01*
X4125Y9362D01*
X4121Y9357D01*
X4118Y9351D01*
X4115Y9347D01*
X4112Y9343D01*
X4110Y9339D01*
X4108Y9337D01*
X4106Y9335D01*
X4105Y9334D01*
X4104Y9333D01*
X4098Y9327D01*
X4090Y9322D01*
X4083Y9318D01*
X4075Y9314D01*
X4068Y9311D01*
X4060Y9308D01*
X4045Y9304D01*
X4038Y9303D01*
X4032Y9302D01*
X4027Y9301D01*
X4022Y9301D01*
X4018Y9300D01*
X4012D01*
X4002Y9301D01*
X3992Y9302D01*
X3983Y9303D01*
X3974Y9305D01*
X3966Y9308D01*
X3958Y9311D01*
X3951Y9313D01*
X3945Y9317D01*
X3939Y9320D01*
X3934Y9323D01*
X3931Y9326D01*
X3927Y9328D01*
X3924Y9330D01*
X3922Y9332D01*
X3921Y9333D01*
X3921Y9333D01*
X3914Y9340D01*
X3909Y9347D01*
X3904Y9353D01*
X3901Y9360D01*
X3897Y9367D01*
X3894Y9374D01*
X3890Y9387D01*
X3888Y9393D01*
X3887Y9399D01*
X3887Y9404D01*
X3886Y9408D01*
X3886Y9411D01*
Y9414D01*
Y9415D01*
Y9416D01*
X3886Y9429D01*
X3888Y9440D01*
X3892Y9451D01*
X3895Y9460D01*
X3898Y9467D01*
X3902Y9473D01*
X3904Y9476D01*
X3904Y9476D01*
Y9477D01*
X3912Y9486D01*
X3921Y9494D01*
X3929Y9500D01*
X3938Y9505D01*
X3946Y9509D01*
X3952Y9512D01*
X3954Y9513D01*
X3956Y9514D01*
X3957Y9514D01*
X3958D01*
X3948Y9519D01*
X3939Y9524D01*
X3932Y9529D01*
X3926Y9534D01*
X3922Y9538D01*
X3918Y9541D01*
X3916Y9544D01*
X3916Y9545D01*
X3911Y9553D01*
X3907Y9560D01*
X3904Y9568D01*
X3903Y9576D01*
X3902Y9582D01*
X3901Y9587D01*
Y9590D01*
Y9591D01*
Y9591D01*
X3902Y9599D01*
X3902Y9606D01*
X3906Y9620D01*
X3911Y9632D01*
X3917Y9643D01*
X3922Y9651D01*
X3925Y9655D01*
X3927Y9658D01*
X3929Y9660D01*
X3931Y9662D01*
X3932Y9662D01*
X3932Y9663D01*
X3938Y9668D01*
X3944Y9673D01*
X3951Y9677D01*
X3958Y9680D01*
X3971Y9685D01*
X3984Y9689D01*
X3990Y9690D01*
X3995Y9691D01*
X4001Y9691D01*
X4005Y9692D01*
X4008Y9692D01*
X4013D01*
X4022Y9692D01*
D02*
G37*
G36*
X6493Y8257D02*
X6322D01*
Y8192D01*
X6323Y8185D01*
Y8181D01*
X6324Y8177D01*
X6324Y8174D01*
Y8172D01*
X6325Y8171D01*
Y8171D01*
X6327Y8162D01*
X6329Y8158D01*
X6331Y8154D01*
X6332Y8151D01*
X6334Y8149D01*
X6334Y8148D01*
X6335Y8147D01*
X6338Y8143D01*
X6342Y8138D01*
X6350Y8130D01*
X6354Y8126D01*
X6357Y8123D01*
X6360Y8122D01*
X6360Y8121D01*
X6368Y8116D01*
X6376Y8109D01*
X6385Y8103D01*
X6394Y8097D01*
X6401Y8092D01*
X6407Y8088D01*
X6410Y8087D01*
X6411Y8086D01*
X6412Y8084D01*
X6413D01*
X6493Y8034D01*
Y7971D01*
X6389Y8037D01*
X6377Y8045D01*
X6367Y8052D01*
X6359Y8059D01*
X6351Y8065D01*
X6346Y8071D01*
X6341Y8075D01*
X6339Y8078D01*
X6337Y8079D01*
X6334Y8083D01*
X6330Y8088D01*
X6324Y8098D01*
X6322Y8103D01*
X6320Y8106D01*
X6319Y8108D01*
X6318Y8109D01*
X6316Y8099D01*
X6315Y8090D01*
X6312Y8082D01*
X6310Y8073D01*
X6307Y8066D01*
X6304Y8060D01*
X6301Y8053D01*
X6298Y8048D01*
X6295Y8043D01*
X6292Y8039D01*
X6290Y8036D01*
X6288Y8033D01*
X6286Y8031D01*
X6284Y8029D01*
X6284Y8028D01*
X6283Y8028D01*
X6278Y8023D01*
X6272Y8019D01*
X6260Y8012D01*
X6249Y8008D01*
X6238Y8005D01*
X6228Y8002D01*
X6224Y8002D01*
X6220D01*
X6218Y8001D01*
X6215D01*
X6214D01*
X6214D01*
X6202Y8002D01*
X6191Y8003D01*
X6182Y8006D01*
X6173Y8009D01*
X6166Y8012D01*
X6160Y8015D01*
X6157Y8017D01*
X6157Y8017D01*
X6156D01*
X6147Y8024D01*
X6139Y8031D01*
X6133Y8038D01*
X6128Y8045D01*
X6124Y8051D01*
X6122Y8056D01*
X6120Y8059D01*
X6119Y8060D01*
Y8060D01*
X6118Y8065D01*
X6116Y8071D01*
X6113Y8083D01*
X6112Y8097D01*
X6110Y8109D01*
X6109Y8121D01*
Y8126D01*
X6109Y8130D01*
Y8308D01*
X6493D01*
Y8257D01*
D02*
G37*
G36*
Y7693D02*
X6447D01*
Y7882D01*
X6438Y7875D01*
X6434Y7872D01*
X6430Y7869D01*
X6427Y7866D01*
X6425Y7864D01*
X6423Y7862D01*
X6422Y7862D01*
X6420Y7859D01*
X6417Y7856D01*
X6410Y7848D01*
X6401Y7839D01*
X6393Y7830D01*
X6386Y7821D01*
X6382Y7817D01*
X6379Y7814D01*
X6377Y7811D01*
X6375Y7809D01*
X6374Y7808D01*
X6374Y7807D01*
X6366Y7798D01*
X6359Y7789D01*
X6351Y7781D01*
X6345Y7774D01*
X6339Y7768D01*
X6334Y7762D01*
X6329Y7756D01*
X6324Y7752D01*
X6320Y7748D01*
X6316Y7744D01*
X6314Y7742D01*
X6311Y7739D01*
X6307Y7736D01*
X6306Y7735D01*
X6297Y7727D01*
X6289Y7720D01*
X6280Y7715D01*
X6274Y7710D01*
X6268Y7707D01*
X6263Y7705D01*
X6260Y7704D01*
X6259Y7703D01*
X6251Y7700D01*
X6243Y7698D01*
X6235Y7695D01*
X6228Y7694D01*
X6222Y7694D01*
X6218Y7693D01*
X6215D01*
X6214D01*
X6205Y7694D01*
X6198Y7695D01*
X6190Y7696D01*
X6183Y7698D01*
X6170Y7704D01*
X6159Y7709D01*
X6154Y7713D01*
X6150Y7715D01*
X6147Y7718D01*
X6144Y7721D01*
X6142Y7723D01*
X6139Y7724D01*
X6139Y7725D01*
X6138Y7726D01*
X6133Y7732D01*
X6128Y7739D01*
X6124Y7746D01*
X6120Y7753D01*
X6115Y7768D01*
X6111Y7782D01*
X6110Y7788D01*
X6109Y7794D01*
X6108Y7800D01*
X6108Y7804D01*
X6107Y7808D01*
Y7814D01*
X6108Y7824D01*
X6108Y7833D01*
X6110Y7842D01*
X6112Y7850D01*
X6114Y7858D01*
X6116Y7865D01*
X6119Y7872D01*
X6122Y7878D01*
X6124Y7884D01*
X6127Y7888D01*
X6129Y7892D01*
X6132Y7895D01*
X6133Y7898D01*
X6135Y7900D01*
X6135Y7901D01*
X6136Y7901D01*
X6142Y7907D01*
X6148Y7912D01*
X6154Y7917D01*
X6161Y7921D01*
X6174Y7927D01*
X6188Y7932D01*
X6194Y7934D01*
X6200Y7935D01*
X6205Y7936D01*
X6209Y7937D01*
X6213Y7938D01*
X6216D01*
X6218Y7939D01*
X6218D01*
X6223Y7890D01*
X6210Y7889D01*
X6199Y7887D01*
X6189Y7884D01*
X6182Y7880D01*
X6175Y7876D01*
X6170Y7873D01*
X6168Y7871D01*
X6167Y7870D01*
X6160Y7861D01*
X6155Y7853D01*
X6151Y7843D01*
X6149Y7835D01*
X6147Y7827D01*
X6147Y7820D01*
X6146Y7818D01*
Y7815D01*
X6147Y7803D01*
X6149Y7793D01*
X6152Y7784D01*
X6155Y7776D01*
X6159Y7770D01*
X6162Y7766D01*
X6164Y7763D01*
X6165Y7762D01*
X6173Y7755D01*
X6181Y7750D01*
X6189Y7746D01*
X6196Y7744D01*
X6203Y7743D01*
X6208Y7742D01*
X6211Y7742D01*
X6212D01*
X6213D01*
X6223Y7743D01*
X6233Y7745D01*
X6243Y7749D01*
X6251Y7753D01*
X6259Y7757D01*
X6265Y7761D01*
X6267Y7762D01*
X6269Y7763D01*
X6269Y7764D01*
X6270D01*
X6276Y7769D01*
X6282Y7774D01*
X6289Y7780D01*
X6295Y7787D01*
X6309Y7801D01*
X6322Y7815D01*
X6328Y7822D01*
X6334Y7828D01*
X6339Y7834D01*
X6343Y7839D01*
X6346Y7843D01*
X6349Y7846D01*
X6351Y7849D01*
X6351Y7849D01*
X6363Y7863D01*
X6374Y7876D01*
X6384Y7886D01*
X6392Y7895D01*
X6400Y7902D01*
X6405Y7907D01*
X6408Y7910D01*
X6409Y7911D01*
X6409D01*
X6418Y7919D01*
X6427Y7925D01*
X6436Y7930D01*
X6444Y7935D01*
X6451Y7938D01*
X6456Y7940D01*
X6459Y7941D01*
X6460Y7942D01*
X6460D01*
X6466Y7944D01*
X6472Y7945D01*
X6477Y7946D01*
X6482Y7947D01*
X6487Y7947D01*
X6490D01*
X6492D01*
X6493D01*
Y7693D01*
D02*
G37*
G36*
X6401Y7491D02*
X6493D01*
Y7444D01*
X6401D01*
Y7392D01*
X6357D01*
Y7444D01*
X6109D01*
Y7482D01*
X6357Y7658D01*
X6401D01*
Y7491D01*
D02*
G37*
G36*
X5590Y8258D02*
X5419D01*
Y8192D01*
X5420Y8186D01*
Y8182D01*
X5420Y8178D01*
X5421Y8175D01*
Y8173D01*
X5421Y8172D01*
Y8171D01*
X5424Y8162D01*
X5426Y8159D01*
X5427Y8155D01*
X5429Y8152D01*
X5430Y8150D01*
X5431Y8149D01*
X5431Y8148D01*
X5435Y8144D01*
X5439Y8139D01*
X5447Y8131D01*
X5451Y8127D01*
X5454Y8124D01*
X5456Y8123D01*
X5457Y8122D01*
X5465Y8116D01*
X5473Y8110D01*
X5482Y8104D01*
X5490Y8098D01*
X5498Y8093D01*
X5504Y8089D01*
X5506Y8088D01*
X5508Y8086D01*
X5509Y8085D01*
X5510D01*
X5590Y8035D01*
Y7972D01*
X5485Y8038D01*
X5474Y8045D01*
X5464Y8053D01*
X5456Y8060D01*
X5448Y8066D01*
X5442Y8071D01*
X5438Y8076D01*
X5435Y8079D01*
X5434Y8080D01*
X5431Y8084D01*
X5427Y8089D01*
X5421Y8099D01*
X5419Y8104D01*
X5416Y8107D01*
X5415Y8109D01*
X5415Y8110D01*
X5413Y8100D01*
X5411Y8091D01*
X5409Y8083D01*
X5406Y8074D01*
X5404Y8067D01*
X5400Y8060D01*
X5397Y8054D01*
X5395Y8049D01*
X5391Y8044D01*
X5389Y8040D01*
X5386Y8036D01*
X5384Y8034D01*
X5383Y8031D01*
X5381Y8030D01*
X5380Y8029D01*
X5380Y8029D01*
X5374Y8024D01*
X5369Y8020D01*
X5357Y8013D01*
X5345Y8009D01*
X5334Y8005D01*
X5325Y8003D01*
X5321Y8003D01*
X5317D01*
X5314Y8002D01*
X5312D01*
X5311D01*
X5310D01*
X5299Y8003D01*
X5288Y8004D01*
X5278Y8007D01*
X5270Y8010D01*
X5263Y8013D01*
X5257Y8015D01*
X5254Y8018D01*
X5253Y8018D01*
X5253D01*
X5244Y8025D01*
X5236Y8031D01*
X5229Y8039D01*
X5224Y8045D01*
X5220Y8051D01*
X5218Y8056D01*
X5217Y8060D01*
X5216Y8060D01*
Y8061D01*
X5214Y8066D01*
X5213Y8072D01*
X5210Y8084D01*
X5208Y8098D01*
X5207Y8110D01*
X5206Y8121D01*
Y8126D01*
X5205Y8131D01*
Y8309D01*
X5590D01*
Y8258D01*
D02*
G37*
G36*
Y7693D02*
X5544D01*
Y7883D01*
X5535Y7876D01*
X5531Y7873D01*
X5527Y7870D01*
X5523Y7867D01*
X5521Y7865D01*
X5520Y7863D01*
X5519Y7863D01*
X5516Y7860D01*
X5513Y7857D01*
X5506Y7849D01*
X5498Y7840D01*
X5490Y7831D01*
X5482Y7822D01*
X5479Y7818D01*
X5476Y7814D01*
X5474Y7812D01*
X5472Y7809D01*
X5471Y7808D01*
X5470Y7808D01*
X5462Y7799D01*
X5455Y7790D01*
X5448Y7782D01*
X5442Y7775D01*
X5436Y7768D01*
X5430Y7763D01*
X5425Y7757D01*
X5421Y7753D01*
X5416Y7748D01*
X5413Y7745D01*
X5410Y7742D01*
X5407Y7740D01*
X5404Y7737D01*
X5403Y7736D01*
X5394Y7728D01*
X5385Y7721D01*
X5377Y7716D01*
X5370Y7711D01*
X5364Y7708D01*
X5360Y7706D01*
X5357Y7705D01*
X5356Y7704D01*
X5348Y7701D01*
X5339Y7698D01*
X5331Y7696D01*
X5325Y7695D01*
X5319Y7695D01*
X5314Y7694D01*
X5311D01*
X5310D01*
X5302Y7695D01*
X5294Y7696D01*
X5286Y7697D01*
X5280Y7699D01*
X5267Y7705D01*
X5256Y7710D01*
X5251Y7713D01*
X5247Y7716D01*
X5243Y7719D01*
X5240Y7722D01*
X5238Y7724D01*
X5236Y7725D01*
X5235Y7726D01*
X5235Y7727D01*
X5229Y7733D01*
X5224Y7740D01*
X5220Y7747D01*
X5217Y7754D01*
X5212Y7768D01*
X5208Y7783D01*
X5207Y7789D01*
X5205Y7795D01*
X5205Y7801D01*
X5204Y7805D01*
X5204Y7809D01*
Y7814D01*
X5204Y7824D01*
X5205Y7834D01*
X5207Y7843D01*
X5208Y7851D01*
X5210Y7859D01*
X5213Y7866D01*
X5215Y7873D01*
X5218Y7879D01*
X5221Y7884D01*
X5224Y7889D01*
X5226Y7893D01*
X5228Y7896D01*
X5230Y7899D01*
X5232Y7901D01*
X5232Y7902D01*
X5233Y7902D01*
X5238Y7908D01*
X5244Y7913D01*
X5251Y7918D01*
X5258Y7922D01*
X5271Y7928D01*
X5284Y7933D01*
X5290Y7934D01*
X5296Y7936D01*
X5301Y7937D01*
X5306Y7938D01*
X5310Y7939D01*
X5313D01*
X5314Y7939D01*
X5315D01*
X5320Y7891D01*
X5307Y7890D01*
X5296Y7888D01*
X5286Y7884D01*
X5278Y7881D01*
X5272Y7877D01*
X5267Y7874D01*
X5264Y7872D01*
X5263Y7871D01*
X5257Y7862D01*
X5252Y7853D01*
X5248Y7844D01*
X5245Y7836D01*
X5244Y7828D01*
X5243Y7821D01*
X5243Y7819D01*
Y7816D01*
X5243Y7804D01*
X5245Y7793D01*
X5249Y7785D01*
X5252Y7777D01*
X5256Y7771D01*
X5259Y7767D01*
X5261Y7764D01*
X5262Y7763D01*
X5270Y7756D01*
X5278Y7751D01*
X5285Y7747D01*
X5293Y7745D01*
X5299Y7743D01*
X5305Y7743D01*
X5308Y7742D01*
X5309D01*
X5309D01*
X5319Y7743D01*
X5330Y7746D01*
X5339Y7750D01*
X5348Y7753D01*
X5355Y7758D01*
X5361Y7762D01*
X5364Y7763D01*
X5365Y7764D01*
X5366Y7765D01*
X5366D01*
X5373Y7770D01*
X5379Y7775D01*
X5385Y7781D01*
X5392Y7788D01*
X5405Y7802D01*
X5419Y7816D01*
X5425Y7823D01*
X5430Y7829D01*
X5435Y7835D01*
X5440Y7840D01*
X5443Y7844D01*
X5446Y7847D01*
X5447Y7849D01*
X5448Y7850D01*
X5460Y7864D01*
X5471Y7877D01*
X5481Y7887D01*
X5489Y7896D01*
X5496Y7903D01*
X5501Y7908D01*
X5505Y7910D01*
X5505Y7912D01*
X5506D01*
X5515Y7919D01*
X5524Y7925D01*
X5533Y7931D01*
X5541Y7935D01*
X5547Y7939D01*
X5552Y7941D01*
X5556Y7942D01*
X5556Y7943D01*
X5557D01*
X5563Y7945D01*
X5568Y7946D01*
X5574Y7947D01*
X5579Y7948D01*
X5583Y7948D01*
X5587D01*
X5589D01*
X5590D01*
Y7693D01*
D02*
G37*
G36*
X5497Y7641D02*
X5505Y7640D01*
X5521Y7635D01*
X5534Y7629D01*
X5540Y7625D01*
X5545Y7622D01*
X5550Y7619D01*
X5554Y7615D01*
X5558Y7612D01*
X5561Y7610D01*
X5563Y7608D01*
X5565Y7606D01*
X5566Y7605D01*
X5566Y7605D01*
X5571Y7598D01*
X5576Y7591D01*
X5580Y7585D01*
X5583Y7577D01*
X5589Y7564D01*
X5592Y7550D01*
X5593Y7544D01*
X5595Y7539D01*
X5595Y7534D01*
X5596Y7529D01*
X5596Y7526D01*
Y7521D01*
X5596Y7510D01*
X5595Y7501D01*
X5593Y7491D01*
X5591Y7483D01*
X5588Y7474D01*
X5585Y7467D01*
X5582Y7460D01*
X5578Y7454D01*
X5576Y7448D01*
X5572Y7443D01*
X5570Y7438D01*
X5567Y7435D01*
X5565Y7432D01*
X5563Y7430D01*
X5562Y7429D01*
X5561Y7428D01*
X5555Y7422D01*
X5547Y7416D01*
X5540Y7411D01*
X5533Y7407D01*
X5526Y7403D01*
X5519Y7400D01*
X5506Y7395D01*
X5500Y7394D01*
X5494Y7393D01*
X5489Y7392D01*
X5485Y7392D01*
X5481Y7391D01*
X5479D01*
X5477D01*
X5476D01*
X5463Y7392D01*
X5451Y7394D01*
X5440Y7397D01*
X5431Y7400D01*
X5424Y7404D01*
X5419Y7407D01*
X5415Y7409D01*
X5414Y7410D01*
X5406Y7418D01*
X5399Y7426D01*
X5393Y7435D01*
X5389Y7444D01*
X5385Y7452D01*
X5383Y7458D01*
X5383Y7460D01*
X5382Y7462D01*
X5381Y7463D01*
Y7463D01*
X5376Y7454D01*
X5371Y7446D01*
X5366Y7439D01*
X5361Y7434D01*
X5356Y7429D01*
X5353Y7426D01*
X5350Y7424D01*
X5349Y7424D01*
X5341Y7419D01*
X5334Y7416D01*
X5326Y7413D01*
X5319Y7412D01*
X5313Y7410D01*
X5308Y7410D01*
X5305D01*
X5304D01*
X5294Y7410D01*
X5285Y7412D01*
X5277Y7414D01*
X5269Y7417D01*
X5263Y7420D01*
X5258Y7422D01*
X5255Y7424D01*
X5254Y7424D01*
X5246Y7430D01*
X5239Y7437D01*
X5233Y7443D01*
X5227Y7450D01*
X5223Y7455D01*
X5220Y7460D01*
X5218Y7464D01*
X5218Y7464D01*
Y7465D01*
X5213Y7475D01*
X5210Y7485D01*
X5207Y7495D01*
X5205Y7504D01*
X5204Y7511D01*
X5204Y7517D01*
Y7531D01*
X5205Y7539D01*
X5208Y7554D01*
X5212Y7566D01*
X5217Y7577D01*
X5219Y7582D01*
X5222Y7586D01*
X5224Y7590D01*
X5226Y7593D01*
X5228Y7595D01*
X5229Y7597D01*
X5229Y7598D01*
X5230Y7599D01*
X5240Y7609D01*
X5252Y7617D01*
X5264Y7624D01*
X5277Y7630D01*
X5287Y7633D01*
X5292Y7635D01*
X5295Y7636D01*
X5299Y7636D01*
X5301Y7637D01*
X5303Y7637D01*
X5303D01*
X5311Y7590D01*
X5299Y7588D01*
X5289Y7585D01*
X5280Y7581D01*
X5273Y7577D01*
X5267Y7573D01*
X5263Y7570D01*
X5260Y7567D01*
X5260Y7567D01*
X5254Y7560D01*
X5250Y7552D01*
X5247Y7545D01*
X5245Y7538D01*
X5244Y7531D01*
X5243Y7526D01*
Y7521D01*
X5243Y7511D01*
X5245Y7503D01*
X5248Y7495D01*
X5251Y7488D01*
X5254Y7483D01*
X5257Y7479D01*
X5259Y7476D01*
X5260Y7476D01*
X5267Y7470D01*
X5274Y7465D01*
X5281Y7463D01*
X5288Y7460D01*
X5294Y7459D01*
X5298Y7458D01*
X5301D01*
X5302D01*
X5303D01*
X5309D01*
X5314Y7459D01*
X5324Y7462D01*
X5332Y7466D01*
X5339Y7470D01*
X5344Y7475D01*
X5348Y7479D01*
X5350Y7481D01*
X5351Y7482D01*
Y7483D01*
X5356Y7492D01*
X5360Y7501D01*
X5363Y7510D01*
X5364Y7519D01*
X5365Y7526D01*
X5366Y7532D01*
Y7539D01*
X5366Y7541D01*
Y7544D01*
X5407Y7550D01*
X5406Y7543D01*
X5405Y7536D01*
X5404Y7530D01*
X5403Y7525D01*
X5403Y7521D01*
Y7516D01*
X5404Y7505D01*
X5406Y7494D01*
X5409Y7485D01*
X5413Y7477D01*
X5417Y7471D01*
X5420Y7466D01*
X5422Y7464D01*
X5424Y7463D01*
X5432Y7455D01*
X5441Y7450D01*
X5450Y7446D01*
X5459Y7444D01*
X5466Y7442D01*
X5472Y7442D01*
X5474Y7441D01*
X5476D01*
X5477D01*
X5477D01*
X5490Y7442D01*
X5501Y7445D01*
X5510Y7448D01*
X5518Y7453D01*
X5525Y7457D01*
X5530Y7460D01*
X5533Y7463D01*
X5535Y7464D01*
X5542Y7473D01*
X5548Y7483D01*
X5552Y7492D01*
X5555Y7501D01*
X5556Y7509D01*
X5557Y7515D01*
X5557Y7517D01*
Y7520D01*
X5557Y7530D01*
X5555Y7540D01*
X5552Y7548D01*
X5548Y7555D01*
X5546Y7560D01*
X5543Y7565D01*
X5541Y7567D01*
X5540Y7568D01*
X5532Y7575D01*
X5523Y7580D01*
X5514Y7585D01*
X5504Y7589D01*
X5496Y7592D01*
X5492Y7593D01*
X5489Y7594D01*
X5486Y7594D01*
X5484Y7595D01*
X5482Y7595D01*
X5482D01*
X5488Y7642D01*
X5497Y7641D01*
D02*
G37*
G36*
X4693Y8256D02*
X4522D01*
Y8190D01*
X4523Y8184D01*
Y8180D01*
X4524Y8176D01*
X4524Y8173D01*
Y8171D01*
X4525Y8170D01*
Y8169D01*
X4527Y8161D01*
X4529Y8157D01*
X4531Y8153D01*
X4532Y8150D01*
X4534Y8148D01*
X4534Y8147D01*
X4535Y8146D01*
X4538Y8142D01*
X4542Y8137D01*
X4550Y8129D01*
X4554Y8125D01*
X4557Y8122D01*
X4560Y8121D01*
X4560Y8120D01*
X4568Y8114D01*
X4576Y8108D01*
X4585Y8102D01*
X4594Y8096D01*
X4601Y8091D01*
X4607Y8087D01*
X4610Y8086D01*
X4611Y8084D01*
X4612Y8083D01*
X4613D01*
X4693Y8033D01*
Y7970D01*
X4589Y8036D01*
X4577Y8043D01*
X4567Y8051D01*
X4559Y8058D01*
X4551Y8064D01*
X4546Y8069D01*
X4541Y8074D01*
X4539Y8077D01*
X4537Y8078D01*
X4534Y8082D01*
X4530Y8087D01*
X4524Y8097D01*
X4522Y8102D01*
X4520Y8105D01*
X4519Y8107D01*
X4518Y8108D01*
X4516Y8098D01*
X4515Y8089D01*
X4512Y8081D01*
X4510Y8072D01*
X4507Y8065D01*
X4504Y8058D01*
X4501Y8052D01*
X4498Y8047D01*
X4495Y8042D01*
X4492Y8038D01*
X4490Y8035D01*
X4488Y8032D01*
X4486Y8030D01*
X4484Y8028D01*
X4484Y8027D01*
X4483Y8027D01*
X4478Y8022D01*
X4472Y8018D01*
X4460Y8011D01*
X4449Y8007D01*
X4438Y8003D01*
X4428Y8001D01*
X4424Y8001D01*
X4420D01*
X4418Y8000D01*
X4415D01*
X4414D01*
X4414D01*
X4402Y8001D01*
X4392Y8002D01*
X4382Y8005D01*
X4373Y8008D01*
X4366Y8011D01*
X4360Y8013D01*
X4357Y8016D01*
X4357Y8016D01*
X4356D01*
X4347Y8023D01*
X4339Y8030D01*
X4333Y8037D01*
X4328Y8043D01*
X4324Y8050D01*
X4322Y8055D01*
X4320Y8058D01*
X4319Y8058D01*
Y8059D01*
X4318Y8064D01*
X4316Y8070D01*
X4313Y8082D01*
X4312Y8096D01*
X4310Y8108D01*
X4309Y8119D01*
Y8124D01*
X4309Y8129D01*
Y8307D01*
X4693D01*
Y8256D01*
D02*
G37*
G36*
Y7692D02*
X4647D01*
Y7881D01*
X4638Y7874D01*
X4634Y7871D01*
X4630Y7868D01*
X4627Y7865D01*
X4625Y7863D01*
X4623Y7861D01*
X4622Y7861D01*
X4620Y7858D01*
X4617Y7855D01*
X4610Y7847D01*
X4601Y7838D01*
X4593Y7829D01*
X4586Y7820D01*
X4582Y7816D01*
X4579Y7813D01*
X4577Y7810D01*
X4575Y7808D01*
X4574Y7806D01*
X4574Y7806D01*
X4566Y7797D01*
X4559Y7788D01*
X4551Y7780D01*
X4545Y7773D01*
X4539Y7766D01*
X4534Y7761D01*
X4529Y7755D01*
X4524Y7751D01*
X4520Y7746D01*
X4516Y7743D01*
X4514Y7740D01*
X4511Y7738D01*
X4507Y7735D01*
X4506Y7734D01*
X4497Y7726D01*
X4489Y7719D01*
X4480Y7714D01*
X4474Y7709D01*
X4468Y7706D01*
X4463Y7704D01*
X4460Y7703D01*
X4459Y7702D01*
X4451Y7699D01*
X4443Y7697D01*
X4435Y7694D01*
X4428Y7693D01*
X4422Y7693D01*
X4418Y7692D01*
X4415D01*
X4414D01*
X4405Y7693D01*
X4398Y7694D01*
X4390Y7695D01*
X4383Y7697D01*
X4370Y7703D01*
X4359Y7708D01*
X4354Y7712D01*
X4350Y7714D01*
X4347Y7717D01*
X4344Y7720D01*
X4342Y7722D01*
X4339Y7723D01*
X4339Y7724D01*
X4338Y7725D01*
X4333Y7731D01*
X4328Y7738D01*
X4324Y7745D01*
X4320Y7752D01*
X4315Y7766D01*
X4311Y7781D01*
X4310Y7787D01*
X4309Y7793D01*
X4308Y7799D01*
X4308Y7803D01*
X4307Y7807D01*
Y7813D01*
X4308Y7823D01*
X4308Y7832D01*
X4310Y7841D01*
X4312Y7849D01*
X4314Y7857D01*
X4316Y7864D01*
X4319Y7871D01*
X4322Y7877D01*
X4324Y7882D01*
X4327Y7887D01*
X4329Y7891D01*
X4332Y7894D01*
X4333Y7897D01*
X4335Y7899D01*
X4335Y7900D01*
X4336Y7900D01*
X4342Y7906D01*
X4348Y7911D01*
X4354Y7916D01*
X4361Y7920D01*
X4374Y7926D01*
X4388Y7931D01*
X4394Y7932D01*
X4400Y7934D01*
X4405Y7935D01*
X4409Y7936D01*
X4413Y7937D01*
X4416D01*
X4418Y7937D01*
X4418D01*
X4423Y7889D01*
X4410Y7888D01*
X4399Y7886D01*
X4389Y7882D01*
X4382Y7879D01*
X4375Y7875D01*
X4370Y7872D01*
X4368Y7870D01*
X4367Y7869D01*
X4360Y7860D01*
X4355Y7851D01*
X4351Y7842D01*
X4349Y7834D01*
X4347Y7826D01*
X4347Y7819D01*
X4346Y7817D01*
Y7814D01*
X4347Y7802D01*
X4349Y7791D01*
X4352Y7783D01*
X4355Y7775D01*
X4359Y7769D01*
X4362Y7765D01*
X4364Y7762D01*
X4365Y7761D01*
X4373Y7754D01*
X4381Y7749D01*
X4389Y7745D01*
X4396Y7743D01*
X4403Y7742D01*
X4408Y7741D01*
X4411Y7740D01*
X4412D01*
X4413D01*
X4423Y7742D01*
X4433Y7744D01*
X4443Y7748D01*
X4451Y7751D01*
X4459Y7756D01*
X4465Y7760D01*
X4467Y7761D01*
X4469Y7762D01*
X4469Y7763D01*
X4470D01*
X4476Y7768D01*
X4482Y7773D01*
X4489Y7779D01*
X4495Y7786D01*
X4509Y7800D01*
X4522Y7814D01*
X4528Y7821D01*
X4534Y7827D01*
X4539Y7833D01*
X4543Y7838D01*
X4546Y7842D01*
X4549Y7845D01*
X4551Y7847D01*
X4551Y7848D01*
X4563Y7862D01*
X4574Y7875D01*
X4584Y7885D01*
X4592Y7894D01*
X4600Y7901D01*
X4605Y7906D01*
X4608Y7909D01*
X4609Y7910D01*
X4609D01*
X4618Y7917D01*
X4627Y7924D01*
X4636Y7929D01*
X4644Y7934D01*
X4651Y7937D01*
X4656Y7939D01*
X4659Y7940D01*
X4660Y7941D01*
X4660D01*
X4666Y7943D01*
X4672Y7944D01*
X4677Y7945D01*
X4682Y7946D01*
X4687Y7946D01*
X4690D01*
X4692D01*
X4693D01*
Y7692D01*
D02*
G37*
G36*
Y7393D02*
X4647D01*
Y7582D01*
X4638Y7576D01*
X4634Y7572D01*
X4630Y7569D01*
X4627Y7567D01*
X4625Y7564D01*
X4623Y7563D01*
X4622Y7562D01*
X4620Y7559D01*
X4617Y7556D01*
X4610Y7548D01*
X4601Y7539D01*
X4593Y7530D01*
X4586Y7521D01*
X4582Y7517D01*
X4579Y7514D01*
X4577Y7511D01*
X4575Y7509D01*
X4574Y7508D01*
X4574Y7507D01*
X4566Y7498D01*
X4559Y7490D01*
X4551Y7482D01*
X4545Y7475D01*
X4539Y7468D01*
X4534Y7462D01*
X4529Y7457D01*
X4524Y7452D01*
X4520Y7448D01*
X4516Y7445D01*
X4514Y7442D01*
X4511Y7439D01*
X4507Y7436D01*
X4506Y7435D01*
X4497Y7427D01*
X4489Y7421D01*
X4480Y7415D01*
X4474Y7411D01*
X4468Y7407D01*
X4463Y7405D01*
X4460Y7404D01*
X4459Y7404D01*
X4451Y7400D01*
X4443Y7398D01*
X4435Y7396D01*
X4428Y7395D01*
X4422Y7394D01*
X4418Y7394D01*
X4415D01*
X4414D01*
X4405Y7394D01*
X4398Y7395D01*
X4390Y7396D01*
X4383Y7399D01*
X4370Y7404D01*
X4359Y7410D01*
X4354Y7413D01*
X4350Y7416D01*
X4347Y7418D01*
X4344Y7421D01*
X4342Y7423D01*
X4339Y7425D01*
X4339Y7426D01*
X4338Y7426D01*
X4333Y7432D01*
X4328Y7439D01*
X4324Y7446D01*
X4320Y7453D01*
X4315Y7468D01*
X4311Y7482D01*
X4310Y7488D01*
X4309Y7495D01*
X4308Y7500D01*
X4308Y7505D01*
X4307Y7508D01*
Y7514D01*
X4308Y7524D01*
X4308Y7533D01*
X4310Y7542D01*
X4312Y7551D01*
X4314Y7558D01*
X4316Y7566D01*
X4319Y7572D01*
X4322Y7578D01*
X4324Y7584D01*
X4327Y7588D01*
X4329Y7592D01*
X4332Y7596D01*
X4333Y7598D01*
X4335Y7600D01*
X4335Y7601D01*
X4336Y7602D01*
X4342Y7607D01*
X4348Y7612D01*
X4354Y7617D01*
X4361Y7621D01*
X4374Y7628D01*
X4388Y7632D01*
X4394Y7634D01*
X4400Y7635D01*
X4405Y7637D01*
X4409Y7638D01*
X4413Y7638D01*
X4416D01*
X4418Y7639D01*
X4418D01*
X4423Y7591D01*
X4410Y7589D01*
X4399Y7587D01*
X4389Y7584D01*
X4382Y7580D01*
X4375Y7577D01*
X4370Y7573D01*
X4368Y7571D01*
X4367Y7570D01*
X4360Y7562D01*
X4355Y7553D01*
X4351Y7543D01*
X4349Y7535D01*
X4347Y7527D01*
X4347Y7521D01*
X4346Y7518D01*
Y7515D01*
X4347Y7503D01*
X4349Y7493D01*
X4352Y7484D01*
X4355Y7476D01*
X4359Y7470D01*
X4362Y7466D01*
X4364Y7463D01*
X4365Y7462D01*
X4373Y7456D01*
X4381Y7451D01*
X4389Y7447D01*
X4396Y7445D01*
X4403Y7443D01*
X4408Y7442D01*
X4411Y7442D01*
X4412D01*
X4413D01*
X4423Y7443D01*
X4433Y7445D01*
X4443Y7449D01*
X4451Y7453D01*
X4459Y7457D01*
X4465Y7461D01*
X4467Y7462D01*
X4469Y7463D01*
X4469Y7465D01*
X4470D01*
X4476Y7469D01*
X4482Y7475D01*
X4489Y7481D01*
X4495Y7487D01*
X4509Y7501D01*
X4522Y7515D01*
X4528Y7522D01*
X4534Y7528D01*
X4539Y7534D01*
X4543Y7539D01*
X4546Y7543D01*
X4549Y7547D01*
X4551Y7549D01*
X4551Y7549D01*
X4563Y7563D01*
X4574Y7576D01*
X4584Y7587D01*
X4592Y7595D01*
X4600Y7602D01*
X4605Y7607D01*
X4608Y7610D01*
X4609Y7611D01*
X4609D01*
X4618Y7619D01*
X4627Y7625D01*
X4636Y7631D01*
X4644Y7635D01*
X4651Y7638D01*
X4656Y7640D01*
X4659Y7642D01*
X4660Y7642D01*
X4660D01*
X4666Y7644D01*
X4672Y7645D01*
X4677Y7647D01*
X4682Y7647D01*
X4687Y7648D01*
X4690D01*
X4692D01*
X4693D01*
Y7393D01*
D02*
G37*
G36*
X3793Y8271D02*
X3622D01*
Y8205D01*
X3623Y8199D01*
Y8195D01*
X3624Y8191D01*
X3624Y8188D01*
Y8186D01*
X3625Y8185D01*
Y8184D01*
X3627Y8175D01*
X3629Y8171D01*
X3631Y8168D01*
X3632Y8165D01*
X3634Y8163D01*
X3634Y8161D01*
X3635Y8161D01*
X3638Y8156D01*
X3642Y8152D01*
X3650Y8144D01*
X3654Y8140D01*
X3657Y8137D01*
X3660Y8135D01*
X3660Y8135D01*
X3668Y8129D01*
X3676Y8123D01*
X3685Y8117D01*
X3694Y8111D01*
X3701Y8106D01*
X3707Y8102D01*
X3710Y8100D01*
X3711Y8099D01*
X3712Y8098D01*
X3713D01*
X3793Y8048D01*
Y7984D01*
X3689Y8050D01*
X3677Y8058D01*
X3667Y8065D01*
X3659Y8073D01*
X3651Y8079D01*
X3646Y8084D01*
X3641Y8089D01*
X3639Y8091D01*
X3637Y8093D01*
X3634Y8097D01*
X3630Y8102D01*
X3624Y8112D01*
X3622Y8116D01*
X3620Y8120D01*
X3619Y8122D01*
X3618Y8123D01*
X3616Y8113D01*
X3615Y8104D01*
X3612Y8095D01*
X3610Y8087D01*
X3607Y8080D01*
X3604Y8073D01*
X3601Y8067D01*
X3598Y8062D01*
X3595Y8057D01*
X3592Y8053D01*
X3590Y8049D01*
X3588Y8047D01*
X3586Y8044D01*
X3584Y8043D01*
X3584Y8042D01*
X3583Y8042D01*
X3578Y8037D01*
X3572Y8033D01*
X3560Y8026D01*
X3549Y8022D01*
X3538Y8018D01*
X3528Y8016D01*
X3524Y8015D01*
X3520D01*
X3518Y8015D01*
X3515D01*
X3514D01*
X3514D01*
X3502Y8015D01*
X3492Y8017D01*
X3482Y8020D01*
X3473Y8023D01*
X3466Y8026D01*
X3460Y8028D01*
X3457Y8030D01*
X3457Y8031D01*
X3456D01*
X3447Y8038D01*
X3439Y8044D01*
X3433Y8052D01*
X3428Y8058D01*
X3424Y8064D01*
X3422Y8069D01*
X3420Y8073D01*
X3419Y8073D01*
Y8074D01*
X3418Y8079D01*
X3416Y8085D01*
X3413Y8097D01*
X3412Y8110D01*
X3410Y8123D01*
X3409Y8134D01*
Y8139D01*
X3409Y8144D01*
Y8322D01*
X3793D01*
Y8271D01*
D02*
G37*
G36*
Y7706D02*
X3747D01*
Y7896D01*
X3738Y7889D01*
X3734Y7886D01*
X3730Y7883D01*
X3727Y7880D01*
X3725Y7878D01*
X3723Y7876D01*
X3722Y7876D01*
X3720Y7873D01*
X3717Y7869D01*
X3710Y7862D01*
X3701Y7853D01*
X3693Y7843D01*
X3686Y7835D01*
X3682Y7831D01*
X3679Y7827D01*
X3677Y7825D01*
X3675Y7822D01*
X3674Y7821D01*
X3674Y7821D01*
X3666Y7812D01*
X3659Y7803D01*
X3651Y7795D01*
X3645Y7788D01*
X3639Y7781D01*
X3634Y7776D01*
X3629Y7770D01*
X3624Y7766D01*
X3620Y7761D01*
X3616Y7758D01*
X3614Y7755D01*
X3611Y7752D01*
X3607Y7750D01*
X3606Y7748D01*
X3597Y7741D01*
X3589Y7734D01*
X3580Y7729D01*
X3574Y7724D01*
X3568Y7721D01*
X3563Y7719D01*
X3560Y7717D01*
X3559Y7717D01*
X3551Y7714D01*
X3543Y7711D01*
X3535Y7709D01*
X3528Y7708D01*
X3522Y7707D01*
X3518Y7707D01*
X3515D01*
X3514D01*
X3505Y7707D01*
X3498Y7709D01*
X3490Y7710D01*
X3483Y7712D01*
X3470Y7717D01*
X3459Y7723D01*
X3454Y7726D01*
X3450Y7729D01*
X3447Y7732D01*
X3444Y7735D01*
X3442Y7737D01*
X3439Y7738D01*
X3439Y7739D01*
X3438Y7740D01*
X3433Y7746D01*
X3428Y7752D01*
X3424Y7760D01*
X3420Y7767D01*
X3415Y7781D01*
X3411Y7796D01*
X3410Y7802D01*
X3409Y7808D01*
X3408Y7813D01*
X3408Y7818D01*
X3407Y7822D01*
Y7827D01*
X3408Y7837D01*
X3408Y7847D01*
X3410Y7856D01*
X3412Y7864D01*
X3414Y7872D01*
X3416Y7879D01*
X3419Y7886D01*
X3422Y7892D01*
X3424Y7897D01*
X3427Y7902D01*
X3429Y7906D01*
X3432Y7909D01*
X3433Y7912D01*
X3435Y7913D01*
X3435Y7914D01*
X3436Y7915D01*
X3442Y7921D01*
X3448Y7926D01*
X3454Y7931D01*
X3461Y7934D01*
X3474Y7941D01*
X3488Y7946D01*
X3494Y7947D01*
X3500Y7949D01*
X3505Y7950D01*
X3509Y7951D01*
X3513Y7952D01*
X3516D01*
X3518Y7952D01*
X3518D01*
X3523Y7904D01*
X3510Y7903D01*
X3499Y7901D01*
X3489Y7897D01*
X3482Y7893D01*
X3475Y7890D01*
X3470Y7887D01*
X3468Y7884D01*
X3467Y7883D01*
X3460Y7875D01*
X3455Y7866D01*
X3451Y7857D01*
X3449Y7848D01*
X3447Y7841D01*
X3447Y7834D01*
X3446Y7832D01*
Y7828D01*
X3447Y7817D01*
X3449Y7806D01*
X3452Y7797D01*
X3455Y7790D01*
X3459Y7783D01*
X3462Y7780D01*
X3464Y7777D01*
X3465Y7776D01*
X3473Y7769D01*
X3481Y7764D01*
X3489Y7760D01*
X3496Y7758D01*
X3503Y7756D01*
X3508Y7756D01*
X3511Y7755D01*
X3512D01*
X3513D01*
X3523Y7756D01*
X3533Y7758D01*
X3543Y7762D01*
X3551Y7766D01*
X3559Y7771D01*
X3565Y7775D01*
X3567Y7776D01*
X3569Y7777D01*
X3569Y7778D01*
X3570D01*
X3576Y7782D01*
X3582Y7788D01*
X3589Y7794D01*
X3595Y7801D01*
X3609Y7815D01*
X3622Y7828D01*
X3628Y7836D01*
X3634Y7842D01*
X3639Y7848D01*
X3643Y7853D01*
X3646Y7857D01*
X3649Y7860D01*
X3651Y7862D01*
X3651Y7863D01*
X3663Y7877D01*
X3674Y7889D01*
X3684Y7900D01*
X3692Y7908D01*
X3700Y7916D01*
X3705Y7921D01*
X3708Y7923D01*
X3708Y7924D01*
X3709D01*
X3718Y7932D01*
X3727Y7938D01*
X3736Y7944D01*
X3744Y7948D01*
X3751Y7952D01*
X3756Y7954D01*
X3759Y7955D01*
X3760Y7955D01*
X3760D01*
X3766Y7958D01*
X3772Y7959D01*
X3777Y7960D01*
X3782Y7960D01*
X3787Y7961D01*
X3790D01*
X3792D01*
X3793D01*
Y7706D01*
D02*
G37*
G36*
X3546Y7611D02*
X3542Y7603D01*
X3538Y7595D01*
X3534Y7587D01*
X3531Y7580D01*
X3528Y7575D01*
X3526Y7571D01*
X3525Y7571D01*
Y7570D01*
X3519Y7560D01*
X3513Y7551D01*
X3508Y7544D01*
X3503Y7538D01*
X3499Y7532D01*
X3495Y7529D01*
X3493Y7526D01*
X3493Y7525D01*
X3793D01*
Y7478D01*
X3407D01*
Y7509D01*
X3417Y7514D01*
X3425Y7520D01*
X3434Y7528D01*
X3442Y7534D01*
X3449Y7541D01*
X3454Y7546D01*
X3456Y7548D01*
X3458Y7550D01*
X3458Y7550D01*
X3459Y7551D01*
X3468Y7563D01*
X3477Y7574D01*
X3485Y7585D01*
X3491Y7596D01*
X3496Y7606D01*
X3499Y7610D01*
X3500Y7613D01*
X3502Y7616D01*
X3503Y7618D01*
X3504Y7619D01*
Y7620D01*
X3549D01*
X3546Y7611D01*
D02*
G37*
G36*
X9078Y2839D02*
X9033Y2833D01*
X9029Y2839D01*
X9024Y2844D01*
X9020Y2849D01*
X9015Y2853D01*
X9011Y2856D01*
X9008Y2859D01*
X9005Y2860D01*
X9005Y2861D01*
X8998Y2864D01*
X8990Y2867D01*
X8984Y2868D01*
X8977Y2870D01*
X8972Y2871D01*
X8967Y2871D01*
X8957D01*
X8950Y2870D01*
X8938Y2867D01*
X8928Y2863D01*
X8919Y2859D01*
X8913Y2855D01*
X8908Y2851D01*
X8905Y2848D01*
X8904Y2848D01*
Y2847D01*
X8896Y2838D01*
X8891Y2828D01*
X8887Y2817D01*
X8884Y2807D01*
X8882Y2798D01*
X8882Y2794D01*
Y2791D01*
X8881Y2788D01*
Y2786D01*
Y2785D01*
Y2784D01*
Y2776D01*
X8882Y2769D01*
X8885Y2755D01*
X8889Y2743D01*
X8893Y2734D01*
X8897Y2726D01*
X8901Y2720D01*
X8903Y2718D01*
X8904Y2717D01*
X8904Y2716D01*
X8905Y2716D01*
X8909Y2711D01*
X8914Y2707D01*
X8924Y2701D01*
X8933Y2696D01*
X8943Y2693D01*
X8950Y2691D01*
X8957Y2691D01*
X8959Y2690D01*
X8963D01*
X8973Y2691D01*
X8983Y2693D01*
X8991Y2696D01*
X8998Y2699D01*
X9004Y2702D01*
X9008Y2705D01*
X9010Y2707D01*
X9012Y2708D01*
X9018Y2716D01*
X9024Y2724D01*
X9028Y2733D01*
X9032Y2742D01*
X9034Y2750D01*
X9035Y2756D01*
X9036Y2759D01*
X9036Y2761D01*
Y2762D01*
Y2762D01*
X9086Y2758D01*
X9085Y2750D01*
X9083Y2741D01*
X9078Y2726D01*
X9072Y2712D01*
X9069Y2706D01*
X9065Y2701D01*
X9063Y2696D01*
X9059Y2692D01*
X9056Y2688D01*
X9054Y2686D01*
X9051Y2684D01*
X9050Y2681D01*
X9049Y2681D01*
X9049Y2680D01*
X9042Y2675D01*
X9035Y2671D01*
X9028Y2667D01*
X9021Y2664D01*
X9007Y2659D01*
X8993Y2655D01*
X8987Y2654D01*
X8981Y2653D01*
X8976Y2652D01*
X8972Y2652D01*
X8968Y2651D01*
X8963D01*
X8951Y2652D01*
X8940Y2654D01*
X8929Y2656D01*
X8920Y2659D01*
X8911Y2662D01*
X8903Y2666D01*
X8895Y2670D01*
X8888Y2675D01*
X8882Y2679D01*
X8877Y2683D01*
X8872Y2687D01*
X8868Y2691D01*
X8866Y2693D01*
X8863Y2696D01*
X8862Y2697D01*
X8862Y2698D01*
X8856Y2705D01*
X8852Y2713D01*
X8847Y2720D01*
X8844Y2728D01*
X8838Y2743D01*
X8835Y2757D01*
X8834Y2763D01*
X8833Y2770D01*
X8832Y2775D01*
X8832Y2779D01*
X8831Y2783D01*
Y2786D01*
Y2787D01*
Y2788D01*
X8832Y2798D01*
X8833Y2807D01*
X8834Y2817D01*
X8837Y2825D01*
X8839Y2833D01*
X8842Y2841D01*
X8846Y2847D01*
X8848Y2853D01*
X8852Y2859D01*
X8855Y2864D01*
X8858Y2868D01*
X8861Y2872D01*
X8863Y2874D01*
X8864Y2876D01*
X8866Y2877D01*
X8866Y2878D01*
X8873Y2884D01*
X8879Y2889D01*
X8887Y2894D01*
X8894Y2898D01*
X8901Y2902D01*
X8908Y2904D01*
X8922Y2908D01*
X8928Y2910D01*
X8933Y2911D01*
X8938Y2912D01*
X8943Y2912D01*
X8946Y2913D01*
X8958D01*
X8965Y2912D01*
X8978Y2909D01*
X8990Y2905D01*
X9002Y2900D01*
X9010Y2896D01*
X9014Y2894D01*
X9018Y2892D01*
X9020Y2891D01*
X9022Y2889D01*
X9023Y2889D01*
X9024Y2888D01*
X9003Y2992D01*
X8849D01*
Y3037D01*
X9040D01*
X9078Y2839D01*
D02*
G37*
G36*
X9306Y3048D02*
X9324Y3045D01*
X9340Y3041D01*
X9347Y3039D01*
X9353Y3037D01*
X9360Y3035D01*
X9365Y3033D01*
X9370Y3031D01*
X9374Y3029D01*
X9377Y3028D01*
X9379Y3026D01*
X9381Y3026D01*
X9381Y3025D01*
X9396Y3016D01*
X9409Y3005D01*
X9420Y2994D01*
X9429Y2983D01*
X9437Y2973D01*
X9439Y2968D01*
X9442Y2964D01*
X9444Y2962D01*
X9445Y2959D01*
X9446Y2958D01*
X9446Y2957D01*
X9454Y2940D01*
X9459Y2922D01*
X9463Y2904D01*
X9466Y2888D01*
X9467Y2881D01*
X9468Y2874D01*
X9468Y2868D01*
Y2863D01*
X9469Y2859D01*
Y2856D01*
Y2853D01*
Y2853D01*
X9468Y2833D01*
X9466Y2813D01*
X9463Y2796D01*
X9461Y2788D01*
X9459Y2781D01*
X9457Y2774D01*
X9455Y2768D01*
X9453Y2762D01*
X9452Y2758D01*
X9451Y2755D01*
X9450Y2752D01*
X9449Y2750D01*
Y2750D01*
X9441Y2733D01*
X9431Y2718D01*
X9421Y2705D01*
X9416Y2700D01*
X9412Y2695D01*
X9407Y2691D01*
X9403Y2687D01*
X9399Y2684D01*
X9396Y2681D01*
X9393Y2679D01*
X9391Y2677D01*
X9390Y2677D01*
X9389Y2676D01*
X9382Y2672D01*
X9374Y2668D01*
X9357Y2662D01*
X9341Y2657D01*
X9325Y2655D01*
X9317Y2654D01*
X9310Y2652D01*
X9304Y2652D01*
X9299D01*
X9295Y2651D01*
X9288D01*
X9277Y2652D01*
X9267Y2653D01*
X9257Y2654D01*
X9247Y2656D01*
X9239Y2659D01*
X9230Y2662D01*
X9222Y2665D01*
X9215Y2668D01*
X9209Y2671D01*
X9203Y2674D01*
X9199Y2676D01*
X9194Y2679D01*
X9191Y2681D01*
X9189Y2682D01*
X9187Y2684D01*
X9187Y2684D01*
X9179Y2691D01*
X9172Y2697D01*
X9166Y2705D01*
X9160Y2713D01*
X9150Y2728D01*
X9143Y2744D01*
X9139Y2751D01*
X9136Y2758D01*
X9134Y2764D01*
X9133Y2769D01*
X9131Y2773D01*
X9130Y2777D01*
X9129Y2779D01*
Y2780D01*
X9180Y2792D01*
X9182Y2783D01*
X9185Y2775D01*
X9188Y2767D01*
X9191Y2760D01*
X9194Y2753D01*
X9197Y2748D01*
X9201Y2742D01*
X9205Y2737D01*
X9207Y2733D01*
X9211Y2730D01*
X9214Y2726D01*
X9216Y2723D01*
X9218Y2722D01*
X9220Y2720D01*
X9220Y2720D01*
X9221Y2719D01*
X9226Y2715D01*
X9232Y2711D01*
X9245Y2705D01*
X9256Y2701D01*
X9268Y2698D01*
X9278Y2696D01*
X9282Y2695D01*
X9286D01*
X9289Y2695D01*
X9293D01*
X9306Y2695D01*
X9318Y2697D01*
X9329Y2700D01*
X9339Y2703D01*
X9347Y2707D01*
X9350Y2708D01*
X9353Y2710D01*
X9355Y2711D01*
X9357Y2712D01*
X9358Y2712D01*
X9358D01*
X9369Y2720D01*
X9378Y2728D01*
X9386Y2738D01*
X9392Y2747D01*
X9397Y2755D01*
X9400Y2761D01*
X9401Y2764D01*
X9402Y2766D01*
X9403Y2767D01*
Y2767D01*
X9407Y2782D01*
X9411Y2796D01*
X9413Y2811D01*
X9415Y2824D01*
X9416Y2830D01*
X9416Y2836D01*
Y2841D01*
X9417Y2844D01*
Y2848D01*
Y2851D01*
Y2852D01*
Y2853D01*
X9416Y2867D01*
X9415Y2881D01*
X9413Y2893D01*
X9411Y2904D01*
X9409Y2913D01*
X9408Y2917D01*
X9407Y2920D01*
X9406Y2923D01*
X9406Y2925D01*
X9405Y2926D01*
Y2927D01*
X9399Y2939D01*
X9393Y2951D01*
X9387Y2960D01*
X9379Y2969D01*
X9373Y2975D01*
X9368Y2980D01*
X9365Y2983D01*
X9364Y2984D01*
X9363D01*
X9352Y2991D01*
X9339Y2997D01*
X9327Y3000D01*
X9315Y3003D01*
X9305Y3004D01*
X9300Y3005D01*
X9296D01*
X9293Y3005D01*
X9289D01*
X9275Y3005D01*
X9262Y3003D01*
X9252Y2999D01*
X9242Y2996D01*
X9235Y2992D01*
X9230Y2989D01*
X9226Y2987D01*
X9225Y2986D01*
X9216Y2978D01*
X9208Y2968D01*
X9201Y2958D01*
X9196Y2948D01*
X9191Y2939D01*
X9190Y2935D01*
X9189Y2932D01*
X9187Y2929D01*
X9186Y2927D01*
X9186Y2925D01*
Y2925D01*
X9136Y2937D01*
X9139Y2947D01*
X9143Y2955D01*
X9147Y2964D01*
X9151Y2972D01*
X9155Y2979D01*
X9160Y2986D01*
X9165Y2993D01*
X9169Y2998D01*
X9174Y3003D01*
X9177Y3007D01*
X9181Y3011D01*
X9184Y3014D01*
X9187Y3016D01*
X9189Y3018D01*
X9190Y3019D01*
X9191Y3019D01*
X9199Y3024D01*
X9206Y3029D01*
X9214Y3033D01*
X9222Y3036D01*
X9239Y3041D01*
X9254Y3045D01*
X9261Y3046D01*
X9267Y3047D01*
X9273Y3048D01*
X9278Y3048D01*
X9282Y3049D01*
X9288D01*
X9306Y3048D01*
D02*
G37*
G36*
X9304Y1948D02*
X9322Y1945D01*
X9337Y1941D01*
X9345Y1939D01*
X9351Y1937D01*
X9357Y1935D01*
X9363Y1933D01*
X9367Y1931D01*
X9372Y1929D01*
X9374Y1928D01*
X9377Y1926D01*
X9378Y1926D01*
X9379Y1925D01*
X9394Y1916D01*
X9407Y1905D01*
X9418Y1894D01*
X9427Y1883D01*
X9434Y1873D01*
X9437Y1868D01*
X9439Y1864D01*
X9442Y1862D01*
X9443Y1859D01*
X9443Y1858D01*
X9444Y1857D01*
X9452Y1840D01*
X9457Y1822D01*
X9461Y1804D01*
X9464Y1788D01*
X9465Y1781D01*
X9466Y1774D01*
X9466Y1768D01*
Y1763D01*
X9467Y1759D01*
Y1756D01*
Y1753D01*
Y1753D01*
X9466Y1733D01*
X9463Y1713D01*
X9461Y1696D01*
X9458Y1688D01*
X9457Y1681D01*
X9455Y1674D01*
X9453Y1668D01*
X9451Y1662D01*
X9450Y1658D01*
X9448Y1655D01*
X9448Y1652D01*
X9447Y1650D01*
Y1650D01*
X9438Y1633D01*
X9429Y1618D01*
X9419Y1605D01*
X9414Y1600D01*
X9409Y1595D01*
X9405Y1591D01*
X9401Y1587D01*
X9397Y1584D01*
X9393Y1581D01*
X9391Y1579D01*
X9389Y1577D01*
X9388Y1577D01*
X9387Y1576D01*
X9379Y1572D01*
X9372Y1568D01*
X9355Y1562D01*
X9338Y1557D01*
X9322Y1555D01*
X9315Y1554D01*
X9308Y1552D01*
X9302Y1552D01*
X9297D01*
X9292Y1551D01*
X9286D01*
X9275Y1552D01*
X9265Y1553D01*
X9255Y1554D01*
X9245Y1556D01*
X9236Y1559D01*
X9228Y1562D01*
X9220Y1565D01*
X9213Y1568D01*
X9207Y1571D01*
X9201Y1574D01*
X9196Y1576D01*
X9192Y1579D01*
X9189Y1581D01*
X9186Y1582D01*
X9185Y1584D01*
X9185Y1584D01*
X9177Y1591D01*
X9170Y1597D01*
X9164Y1605D01*
X9158Y1613D01*
X9148Y1628D01*
X9140Y1644D01*
X9137Y1651D01*
X9134Y1658D01*
X9132Y1664D01*
X9130Y1669D01*
X9129Y1673D01*
X9128Y1677D01*
X9127Y1679D01*
Y1680D01*
X9178Y1692D01*
X9180Y1683D01*
X9183Y1675D01*
X9186Y1667D01*
X9189Y1660D01*
X9192Y1653D01*
X9195Y1648D01*
X9199Y1642D01*
X9202Y1637D01*
X9205Y1633D01*
X9209Y1630D01*
X9211Y1626D01*
X9214Y1623D01*
X9216Y1622D01*
X9217Y1620D01*
X9218Y1620D01*
X9219Y1619D01*
X9224Y1615D01*
X9230Y1611D01*
X9242Y1605D01*
X9254Y1601D01*
X9266Y1598D01*
X9276Y1596D01*
X9280Y1595D01*
X9283D01*
X9287Y1595D01*
X9291D01*
X9303Y1595D01*
X9316Y1597D01*
X9327Y1600D01*
X9337Y1603D01*
X9345Y1607D01*
X9348Y1608D01*
X9351Y1610D01*
X9353Y1611D01*
X9355Y1612D01*
X9356Y1612D01*
X9356D01*
X9367Y1620D01*
X9376Y1628D01*
X9383Y1638D01*
X9389Y1647D01*
X9394Y1655D01*
X9398Y1661D01*
X9399Y1664D01*
X9400Y1666D01*
X9401Y1667D01*
Y1667D01*
X9405Y1682D01*
X9408Y1696D01*
X9411Y1711D01*
X9413Y1724D01*
X9413Y1730D01*
X9414Y1736D01*
Y1741D01*
X9414Y1744D01*
Y1748D01*
Y1751D01*
Y1752D01*
Y1753D01*
X9414Y1767D01*
X9413Y1781D01*
X9411Y1793D01*
X9408Y1804D01*
X9407Y1813D01*
X9406Y1817D01*
X9404Y1820D01*
X9404Y1823D01*
X9403Y1825D01*
X9403Y1826D01*
Y1827D01*
X9397Y1839D01*
X9391Y1851D01*
X9384Y1860D01*
X9377Y1869D01*
X9371Y1875D01*
X9366Y1880D01*
X9362Y1883D01*
X9362Y1884D01*
X9361D01*
X9350Y1891D01*
X9337Y1897D01*
X9325Y1900D01*
X9313Y1903D01*
X9302Y1904D01*
X9298Y1905D01*
X9294D01*
X9291Y1905D01*
X9287D01*
X9273Y1905D01*
X9260Y1903D01*
X9250Y1899D01*
X9240Y1896D01*
X9233Y1892D01*
X9227Y1889D01*
X9224Y1887D01*
X9223Y1886D01*
X9214Y1878D01*
X9206Y1868D01*
X9199Y1858D01*
X9194Y1848D01*
X9189Y1839D01*
X9187Y1835D01*
X9186Y1832D01*
X9185Y1829D01*
X9184Y1827D01*
X9184Y1825D01*
Y1825D01*
X9134Y1837D01*
X9137Y1847D01*
X9140Y1855D01*
X9145Y1864D01*
X9149Y1872D01*
X9153Y1879D01*
X9158Y1886D01*
X9162Y1893D01*
X9167Y1898D01*
X9171Y1903D01*
X9175Y1907D01*
X9179Y1911D01*
X9182Y1914D01*
X9185Y1917D01*
X9187Y1918D01*
X9188Y1919D01*
X9189Y1919D01*
X9196Y1924D01*
X9204Y1929D01*
X9212Y1933D01*
X9220Y1936D01*
X9237Y1941D01*
X9252Y1945D01*
X9259Y1946D01*
X9265Y1947D01*
X9271Y1948D01*
X9276Y1948D01*
X9280Y1949D01*
X9286D01*
X9304Y1948D01*
D02*
G37*
G36*
X9100Y1693D02*
Y1650D01*
X8933D01*
Y1558D01*
X8886D01*
Y1650D01*
X8833D01*
Y1693D01*
X8886D01*
Y1942D01*
X8924D01*
X9100Y1693D01*
D02*
G37*
G36*
X3254Y3603D02*
X3269Y3601D01*
X3282Y3596D01*
X3293Y3592D01*
X3298Y3589D01*
X3302Y3587D01*
X3306Y3584D01*
X3309Y3582D01*
X3311Y3581D01*
X3313Y3579D01*
X3314Y3579D01*
X3314Y3578D01*
X3325Y3568D01*
X3333Y3556D01*
X3340Y3544D01*
X3346Y3532D01*
X3349Y3521D01*
X3350Y3517D01*
X3352Y3513D01*
X3352Y3510D01*
X3353Y3507D01*
X3353Y3506D01*
Y3505D01*
X3306Y3497D01*
X3304Y3509D01*
X3301Y3520D01*
X3297Y3528D01*
X3293Y3536D01*
X3289Y3541D01*
X3286Y3545D01*
X3283Y3548D01*
X3283Y3548D01*
X3276Y3554D01*
X3268Y3558D01*
X3261Y3561D01*
X3253Y3563D01*
X3247Y3564D01*
X3242Y3566D01*
X3237D01*
X3227Y3565D01*
X3218Y3563D01*
X3211Y3560D01*
X3204Y3557D01*
X3199Y3554D01*
X3195Y3551D01*
X3192Y3549D01*
X3192Y3548D01*
X3186Y3542D01*
X3181Y3535D01*
X3178Y3527D01*
X3176Y3521D01*
X3175Y3515D01*
X3174Y3510D01*
Y3507D01*
Y3506D01*
Y3506D01*
Y3500D01*
X3175Y3494D01*
X3178Y3485D01*
X3182Y3476D01*
X3186Y3469D01*
X3191Y3464D01*
X3195Y3460D01*
X3197Y3458D01*
X3198Y3457D01*
X3198D01*
X3208Y3452D01*
X3217Y3449D01*
X3226Y3446D01*
X3235Y3444D01*
X3242Y3443D01*
X3248Y3442D01*
X3255D01*
X3257Y3442D01*
X3260D01*
X3266Y3401D01*
X3258Y3402D01*
X3252Y3404D01*
X3246Y3405D01*
X3241Y3405D01*
X3237Y3406D01*
X3232D01*
X3221Y3405D01*
X3210Y3402D01*
X3201Y3399D01*
X3193Y3395D01*
X3187Y3391D01*
X3182Y3388D01*
X3180Y3386D01*
X3178Y3385D01*
X3171Y3376D01*
X3166Y3367D01*
X3162Y3359D01*
X3160Y3350D01*
X3158Y3342D01*
X3157Y3336D01*
X3157Y3334D01*
Y3332D01*
Y3331D01*
Y3331D01*
X3158Y3319D01*
X3161Y3308D01*
X3164Y3298D01*
X3168Y3290D01*
X3173Y3283D01*
X3176Y3278D01*
X3179Y3275D01*
X3180Y3274D01*
X3189Y3266D01*
X3198Y3260D01*
X3208Y3256D01*
X3217Y3254D01*
X3225Y3252D01*
X3231Y3251D01*
X3233Y3251D01*
X3236D01*
X3246Y3251D01*
X3256Y3254D01*
X3264Y3256D01*
X3271Y3260D01*
X3276Y3263D01*
X3281Y3265D01*
X3283Y3268D01*
X3284Y3268D01*
X3291Y3276D01*
X3296Y3285D01*
X3301Y3294D01*
X3305Y3304D01*
X3308Y3313D01*
X3309Y3316D01*
X3309Y3320D01*
X3310Y3323D01*
X3311Y3325D01*
X3311Y3326D01*
Y3326D01*
X3358Y3320D01*
X3357Y3311D01*
X3356Y3303D01*
X3350Y3288D01*
X3344Y3274D01*
X3341Y3269D01*
X3338Y3263D01*
X3334Y3258D01*
X3331Y3254D01*
X3328Y3250D01*
X3326Y3248D01*
X3324Y3245D01*
X3322Y3244D01*
X3321Y3243D01*
X3321Y3242D01*
X3314Y3237D01*
X3307Y3232D01*
X3301Y3228D01*
X3293Y3225D01*
X3279Y3219D01*
X3266Y3216D01*
X3260Y3215D01*
X3254Y3214D01*
X3250Y3213D01*
X3245Y3213D01*
X3242Y3212D01*
X3237D01*
X3226Y3213D01*
X3217Y3214D01*
X3207Y3215D01*
X3198Y3218D01*
X3190Y3220D01*
X3183Y3223D01*
X3176Y3226D01*
X3170Y3230D01*
X3163Y3233D01*
X3158Y3236D01*
X3154Y3239D01*
X3151Y3241D01*
X3148Y3244D01*
X3146Y3245D01*
X3145Y3246D01*
X3144Y3247D01*
X3137Y3254D01*
X3132Y3261D01*
X3127Y3268D01*
X3122Y3275D01*
X3119Y3282D01*
X3116Y3289D01*
X3111Y3303D01*
X3110Y3309D01*
X3109Y3314D01*
X3108Y3319D01*
X3107Y3324D01*
X3107Y3327D01*
Y3330D01*
Y3331D01*
Y3332D01*
X3107Y3345D01*
X3110Y3357D01*
X3113Y3368D01*
X3116Y3377D01*
X3120Y3384D01*
X3123Y3390D01*
X3125Y3393D01*
X3126Y3394D01*
X3133Y3402D01*
X3142Y3410D01*
X3151Y3415D01*
X3160Y3420D01*
X3167Y3423D01*
X3173Y3425D01*
X3176Y3426D01*
X3177Y3426D01*
X3178Y3427D01*
X3179D01*
X3170Y3432D01*
X3162Y3437D01*
X3155Y3442D01*
X3150Y3447D01*
X3145Y3452D01*
X3142Y3456D01*
X3140Y3458D01*
X3140Y3459D01*
X3135Y3467D01*
X3132Y3475D01*
X3129Y3482D01*
X3127Y3490D01*
X3126Y3496D01*
X3126Y3500D01*
Y3503D01*
Y3505D01*
X3126Y3514D01*
X3128Y3523D01*
X3130Y3532D01*
X3133Y3539D01*
X3136Y3545D01*
X3138Y3550D01*
X3140Y3553D01*
X3140Y3554D01*
X3146Y3562D01*
X3152Y3569D01*
X3159Y3576D01*
X3166Y3581D01*
X3171Y3585D01*
X3176Y3588D01*
X3180Y3590D01*
X3180Y3591D01*
X3181D01*
X3191Y3595D01*
X3201Y3598D01*
X3211Y3601D01*
X3220Y3603D01*
X3227Y3604D01*
X3233Y3604D01*
X3247D01*
X3254Y3603D01*
D02*
G37*
G36*
X2598D02*
X2613Y3601D01*
X2626Y3596D01*
X2637Y3592D01*
X2642Y3589D01*
X2646Y3587D01*
X2650Y3584D01*
X2652Y3582D01*
X2655Y3581D01*
X2656Y3579D01*
X2657Y3579D01*
X2658Y3578D01*
X2668Y3568D01*
X2677Y3556D01*
X2683Y3544D01*
X2689Y3532D01*
X2692Y3521D01*
X2694Y3517D01*
X2695Y3513D01*
X2696Y3510D01*
X2696Y3507D01*
X2697Y3506D01*
Y3505D01*
X2650Y3497D01*
X2647Y3509D01*
X2644Y3520D01*
X2640Y3528D01*
X2636Y3536D01*
X2632Y3541D01*
X2629Y3545D01*
X2627Y3548D01*
X2626Y3548D01*
X2619Y3554D01*
X2611Y3558D01*
X2604Y3561D01*
X2597Y3563D01*
X2590Y3564D01*
X2585Y3566D01*
X2581D01*
X2571Y3565D01*
X2562Y3563D01*
X2554Y3560D01*
X2547Y3557D01*
X2542Y3554D01*
X2539Y3551D01*
X2536Y3549D01*
X2535Y3548D01*
X2529Y3542D01*
X2525Y3535D01*
X2522Y3527D01*
X2520Y3521D01*
X2519Y3515D01*
X2517Y3510D01*
Y3507D01*
Y3506D01*
Y3506D01*
Y3500D01*
X2519Y3494D01*
X2521Y3485D01*
X2525Y3476D01*
X2530Y3469D01*
X2534Y3464D01*
X2538Y3460D01*
X2541Y3458D01*
X2541Y3457D01*
X2542D01*
X2551Y3452D01*
X2560Y3449D01*
X2570Y3446D01*
X2578Y3444D01*
X2585Y3443D01*
X2591Y3442D01*
X2598D01*
X2601Y3442D01*
X2603D01*
X2609Y3401D01*
X2602Y3402D01*
X2595Y3404D01*
X2590Y3405D01*
X2585Y3405D01*
X2581Y3406D01*
X2576D01*
X2564Y3405D01*
X2554Y3402D01*
X2544Y3399D01*
X2536Y3395D01*
X2530Y3391D01*
X2526Y3388D01*
X2523Y3386D01*
X2522Y3385D01*
X2515Y3376D01*
X2509Y3367D01*
X2505Y3359D01*
X2503Y3350D01*
X2501Y3342D01*
X2501Y3336D01*
X2500Y3334D01*
Y3332D01*
Y3331D01*
Y3331D01*
X2501Y3319D01*
X2504Y3308D01*
X2507Y3298D01*
X2512Y3290D01*
X2516Y3283D01*
X2520Y3278D01*
X2522Y3275D01*
X2524Y3274D01*
X2532Y3266D01*
X2542Y3260D01*
X2551Y3256D01*
X2560Y3254D01*
X2568Y3252D01*
X2574Y3251D01*
X2576Y3251D01*
X2580D01*
X2590Y3251D01*
X2599Y3254D01*
X2607Y3256D01*
X2614Y3260D01*
X2620Y3263D01*
X2624Y3265D01*
X2626Y3268D01*
X2627Y3268D01*
X2634Y3276D01*
X2640Y3285D01*
X2645Y3294D01*
X2648Y3304D01*
X2651Y3313D01*
X2652Y3316D01*
X2653Y3320D01*
X2653Y3323D01*
X2654Y3325D01*
X2655Y3326D01*
Y3326D01*
X2702Y3320D01*
X2701Y3311D01*
X2699Y3303D01*
X2694Y3288D01*
X2688Y3274D01*
X2684Y3269D01*
X2681Y3263D01*
X2678Y3258D01*
X2675Y3254D01*
X2672Y3250D01*
X2669Y3248D01*
X2667Y3245D01*
X2666Y3244D01*
X2665Y3243D01*
X2664Y3242D01*
X2657Y3237D01*
X2651Y3232D01*
X2644Y3228D01*
X2637Y3225D01*
X2623Y3219D01*
X2610Y3216D01*
X2603Y3215D01*
X2598Y3214D01*
X2593Y3213D01*
X2588Y3213D01*
X2585Y3212D01*
X2580D01*
X2570Y3213D01*
X2560Y3214D01*
X2551Y3215D01*
X2542Y3218D01*
X2534Y3220D01*
X2526Y3223D01*
X2519Y3226D01*
X2513Y3230D01*
X2507Y3233D01*
X2502Y3236D01*
X2497Y3239D01*
X2494Y3241D01*
X2491Y3244D01*
X2489Y3245D01*
X2488Y3246D01*
X2487Y3247D01*
X2481Y3254D01*
X2475Y3261D01*
X2470Y3268D01*
X2466Y3275D01*
X2463Y3282D01*
X2459Y3289D01*
X2455Y3303D01*
X2454Y3309D01*
X2453Y3314D01*
X2451Y3319D01*
X2451Y3324D01*
X2450Y3327D01*
Y3330D01*
Y3331D01*
Y3332D01*
X2451Y3345D01*
X2453Y3357D01*
X2456Y3368D01*
X2460Y3377D01*
X2463Y3384D01*
X2466Y3390D01*
X2469Y3393D01*
X2469Y3394D01*
X2477Y3402D01*
X2485Y3410D01*
X2494Y3415D01*
X2503Y3420D01*
X2511Y3423D01*
X2517Y3425D01*
X2519Y3426D01*
X2521Y3426D01*
X2522Y3427D01*
X2522D01*
X2513Y3432D01*
X2505Y3437D01*
X2499Y3442D01*
X2493Y3447D01*
X2489Y3452D01*
X2485Y3456D01*
X2484Y3458D01*
X2483Y3459D01*
X2479Y3467D01*
X2475Y3475D01*
X2473Y3482D01*
X2471Y3490D01*
X2470Y3496D01*
X2469Y3500D01*
Y3503D01*
Y3505D01*
X2470Y3514D01*
X2471Y3523D01*
X2474Y3532D01*
X2476Y3539D01*
X2479Y3545D01*
X2481Y3550D01*
X2483Y3553D01*
X2484Y3554D01*
X2489Y3562D01*
X2496Y3569D01*
X2502Y3576D01*
X2509Y3581D01*
X2515Y3585D01*
X2520Y3588D01*
X2523Y3590D01*
X2524Y3591D01*
X2524D01*
X2534Y3595D01*
X2544Y3598D01*
X2554Y3601D01*
X2563Y3603D01*
X2570Y3604D01*
X2576Y3604D01*
X2590D01*
X2598Y3603D01*
D02*
G37*
G36*
X4141Y3400D02*
X4097Y3394D01*
X4093Y3400D01*
X4088Y3405D01*
X4084Y3410D01*
X4079Y3414D01*
X4075Y3417D01*
X4071Y3420D01*
X4069Y3421D01*
X4069Y3421D01*
X4061Y3425D01*
X4054Y3427D01*
X4048Y3429D01*
X4041Y3431D01*
X4035Y3431D01*
X4031Y3432D01*
X4020D01*
X4014Y3431D01*
X4002Y3428D01*
X3992Y3424D01*
X3983Y3420D01*
X3977Y3416D01*
X3972Y3412D01*
X3969Y3409D01*
X3968Y3409D01*
Y3408D01*
X3960Y3399D01*
X3954Y3389D01*
X3950Y3378D01*
X3948Y3367D01*
X3946Y3359D01*
X3945Y3355D01*
Y3351D01*
X3945Y3349D01*
Y3346D01*
Y3345D01*
Y3345D01*
Y3337D01*
X3946Y3330D01*
X3949Y3316D01*
X3953Y3304D01*
X3957Y3295D01*
X3961Y3287D01*
X3965Y3281D01*
X3967Y3279D01*
X3968Y3278D01*
X3968Y3277D01*
X3969Y3276D01*
X3973Y3272D01*
X3978Y3268D01*
X3988Y3261D01*
X3997Y3257D01*
X4007Y3254D01*
X4014Y3252D01*
X4021Y3251D01*
X4023Y3251D01*
X4026D01*
X4037Y3251D01*
X4046Y3254D01*
X4055Y3256D01*
X4061Y3260D01*
X4068Y3263D01*
X4072Y3266D01*
X4074Y3268D01*
X4075Y3269D01*
X4082Y3276D01*
X4088Y3285D01*
X4092Y3294D01*
X4095Y3303D01*
X4098Y3311D01*
X4099Y3317D01*
X4100Y3320D01*
X4100Y3321D01*
Y3323D01*
Y3323D01*
X4150Y3319D01*
X4149Y3310D01*
X4147Y3302D01*
X4142Y3286D01*
X4136Y3273D01*
X4132Y3267D01*
X4129Y3262D01*
X4126Y3257D01*
X4123Y3253D01*
X4120Y3249D01*
X4118Y3246D01*
X4115Y3244D01*
X4114Y3242D01*
X4113Y3241D01*
X4113Y3241D01*
X4106Y3236D01*
X4099Y3231D01*
X4092Y3228D01*
X4085Y3224D01*
X4071Y3219D01*
X4057Y3216D01*
X4051Y3214D01*
X4045Y3214D01*
X4040Y3213D01*
X4035Y3213D01*
X4031Y3212D01*
X4026D01*
X4015Y3213D01*
X4004Y3214D01*
X3993Y3217D01*
X3984Y3219D01*
X3975Y3223D01*
X3967Y3227D01*
X3959Y3231D01*
X3952Y3235D01*
X3946Y3240D01*
X3940Y3244D01*
X3936Y3248D01*
X3932Y3251D01*
X3929Y3254D01*
X3927Y3256D01*
X3926Y3258D01*
X3925Y3259D01*
X3920Y3266D01*
X3916Y3274D01*
X3911Y3281D01*
X3908Y3289D01*
X3902Y3304D01*
X3899Y3318D01*
X3898Y3324D01*
X3897Y3330D01*
X3896Y3335D01*
X3896Y3340D01*
X3895Y3344D01*
Y3346D01*
Y3348D01*
Y3349D01*
X3896Y3359D01*
X3897Y3368D01*
X3898Y3377D01*
X3901Y3386D01*
X3903Y3394D01*
X3906Y3401D01*
X3909Y3408D01*
X3912Y3414D01*
X3916Y3420D01*
X3919Y3425D01*
X3922Y3429D01*
X3924Y3432D01*
X3927Y3435D01*
X3928Y3437D01*
X3929Y3438D01*
X3930Y3439D01*
X3937Y3445D01*
X3943Y3450D01*
X3950Y3455D01*
X3958Y3458D01*
X3965Y3462D01*
X3972Y3465D01*
X3985Y3469D01*
X3992Y3471D01*
X3997Y3472D01*
X4002Y3472D01*
X4007Y3473D01*
X4010Y3473D01*
X4022D01*
X4029Y3472D01*
X4042Y3470D01*
X4054Y3466D01*
X4065Y3461D01*
X4074Y3457D01*
X4078Y3455D01*
X4081Y3453D01*
X4084Y3451D01*
X4086Y3450D01*
X4087Y3450D01*
X4088Y3449D01*
X4067Y3553D01*
X3913D01*
Y3598D01*
X4104D01*
X4141Y3400D01*
D02*
G37*
G36*
X3857Y3334D02*
X3711D01*
Y3381D01*
X3857D01*
Y3334D01*
D02*
G37*
G36*
X3665Y3491D02*
X3464Y3408D01*
X3665Y3325D01*
Y3278D01*
X3411Y3386D01*
Y3431D01*
X3665Y3538D01*
Y3491D01*
D02*
G37*
G36*
X2932Y3219D02*
X2879D01*
X2729Y3603D01*
X2781D01*
X2885Y3324D01*
X2889Y3312D01*
X2893Y3301D01*
X2897Y3290D01*
X2899Y3281D01*
X2902Y3273D01*
X2904Y3266D01*
X2904Y3264D01*
X2905Y3263D01*
X2905Y3261D01*
Y3261D01*
X2912Y3283D01*
X2915Y3294D01*
X2919Y3303D01*
X2921Y3311D01*
X2923Y3315D01*
X2923Y3318D01*
X2924Y3320D01*
X2925Y3322D01*
X2925Y3323D01*
Y3324D01*
X3025Y3603D01*
X3081D01*
X2932Y3219D01*
D02*
G37*
%LPC*%
G36*
X5161Y10794D02*
X5157Y10781D01*
X5153Y10768D01*
X5149Y10755D01*
X5144Y10742D01*
X5142Y10736D01*
X5140Y10731D01*
X5139Y10726D01*
X5137Y10722D01*
X5136Y10718D01*
X5135Y10716D01*
X5134Y10714D01*
Y10713D01*
X5094Y10608D01*
X5224D01*
X5182Y10720D01*
X5177Y10734D01*
X5173Y10747D01*
X5170Y10760D01*
X5167Y10771D01*
X5165Y10780D01*
X5163Y10784D01*
X5163Y10788D01*
X5162Y10790D01*
Y10792D01*
X5161Y10793D01*
Y10794D01*
D02*
G37*
G36*
X6065Y10214D02*
X5955D01*
X5945Y10214D01*
X5937Y10213D01*
X5930Y10213D01*
X5926Y10212D01*
X5922Y10211D01*
X5920Y10210D01*
X5920D01*
X5912Y10208D01*
X5906Y10204D01*
X5901Y10201D01*
X5896Y10197D01*
X5892Y10193D01*
X5890Y10190D01*
X5888Y10188D01*
X5888Y10188D01*
X5884Y10181D01*
X5880Y10174D01*
X5878Y10167D01*
X5877Y10161D01*
X5876Y10155D01*
X5875Y10150D01*
Y10148D01*
Y10147D01*
Y10147D01*
X5876Y10135D01*
X5879Y10125D01*
X5882Y10116D01*
X5886Y10109D01*
X5890Y10103D01*
X5893Y10099D01*
X5895Y10097D01*
X5896Y10096D01*
X5900Y10092D01*
X5905Y10089D01*
X5916Y10085D01*
X5927Y10082D01*
X5939Y10079D01*
X5950Y10078D01*
X5954Y10078D01*
X5958D01*
X5962Y10077D01*
X6065D01*
Y10214D01*
D02*
G37*
G36*
X4811D02*
X4723D01*
X4715Y10214D01*
X4708D01*
X4701Y10213D01*
X4690Y10212D01*
X4681Y10210D01*
X4674Y10209D01*
X4669Y10207D01*
X4666Y10207D01*
X4665Y10206D01*
X4655Y10201D01*
X4646Y10195D01*
X4638Y10188D01*
X4630Y10180D01*
X4625Y10174D01*
X4620Y10168D01*
X4619Y10166D01*
X4618Y10164D01*
X4617Y10163D01*
Y10163D01*
X4614Y10157D01*
X4610Y10149D01*
X4605Y10135D01*
X4602Y10119D01*
X4599Y10104D01*
X4599Y10098D01*
X4598Y10091D01*
X4598Y10086D01*
Y10081D01*
X4597Y10076D01*
Y10073D01*
Y10071D01*
Y10071D01*
X4598Y10055D01*
X4599Y10041D01*
X4600Y10028D01*
X4602Y10017D01*
X4603Y10012D01*
X4604Y10008D01*
X4605Y10005D01*
X4606Y10002D01*
X4607Y10000D01*
X4607Y9998D01*
X4608Y9997D01*
Y9996D01*
X4612Y9986D01*
X4616Y9976D01*
X4621Y9968D01*
X4625Y9961D01*
X4629Y9955D01*
X4633Y9951D01*
X4635Y9949D01*
X4635Y9948D01*
X4641Y9943D01*
X4647Y9940D01*
X4652Y9936D01*
X4658Y9933D01*
X4663Y9931D01*
X4666Y9929D01*
X4669Y9928D01*
X4670Y9928D01*
X4679Y9926D01*
X4689Y9924D01*
X4699Y9923D01*
X4708Y9922D01*
X4716Y9922D01*
X4720Y9921D01*
X4811D01*
Y10214D01*
D02*
G37*
G36*
X5510Y9654D02*
X5506D01*
X5500Y9653D01*
X5494Y9652D01*
X5488Y9651D01*
X5483Y9649D01*
X5474Y9644D01*
X5466Y9638D01*
X5460Y9632D01*
X5455Y9627D01*
X5453Y9625D01*
X5452Y9623D01*
X5451Y9622D01*
Y9622D01*
X5447Y9615D01*
X5444Y9607D01*
X5440Y9599D01*
X5438Y9589D01*
X5436Y9579D01*
X5434Y9569D01*
X5431Y9548D01*
X5430Y9537D01*
X5430Y9528D01*
X5429Y9519D01*
Y9511D01*
X5429Y9505D01*
Y9500D01*
Y9497D01*
Y9496D01*
Y9496D01*
Y9479D01*
X5430Y9463D01*
X5431Y9449D01*
X5432Y9436D01*
X5434Y9425D01*
X5436Y9414D01*
X5438Y9405D01*
X5440Y9397D01*
X5442Y9390D01*
X5444Y9385D01*
X5446Y9380D01*
X5448Y9376D01*
X5449Y9373D01*
X5450Y9372D01*
X5451Y9370D01*
Y9370D01*
X5456Y9364D01*
X5460Y9360D01*
X5465Y9355D01*
X5469Y9352D01*
X5478Y9347D01*
X5487Y9343D01*
X5495Y9341D01*
X5500Y9339D01*
X5502Y9339D01*
X5506D01*
X5512Y9339D01*
X5517Y9340D01*
X5528Y9344D01*
X5537Y9349D01*
X5546Y9354D01*
X5552Y9360D01*
X5557Y9365D01*
X5559Y9369D01*
X5561Y9369D01*
Y9370D01*
X5564Y9377D01*
X5568Y9384D01*
X5571Y9393D01*
X5573Y9403D01*
X5576Y9413D01*
X5577Y9423D01*
X5580Y9445D01*
X5581Y9455D01*
X5582Y9464D01*
X5582Y9473D01*
Y9480D01*
X5583Y9487D01*
Y9492D01*
Y9495D01*
Y9496D01*
X5582Y9513D01*
X5582Y9529D01*
X5581Y9543D01*
X5579Y9556D01*
X5577Y9568D01*
X5575Y9579D01*
X5573Y9588D01*
X5571Y9596D01*
X5568Y9604D01*
X5567Y9610D01*
X5564Y9615D01*
X5563Y9619D01*
X5561Y9622D01*
X5560Y9624D01*
X5559Y9625D01*
Y9626D01*
X5555Y9631D01*
X5551Y9635D01*
X5547Y9639D01*
X5542Y9642D01*
X5533Y9647D01*
X5525Y9650D01*
X5518Y9652D01*
X5512Y9653D01*
X5510Y9654D01*
D02*
G37*
G36*
X4464D02*
X4460D01*
X4451Y9653D01*
X4442Y9651D01*
X4435Y9648D01*
X4428Y9645D01*
X4423Y9641D01*
X4419Y9639D01*
X4416Y9636D01*
X4416Y9636D01*
X4410Y9629D01*
X4405Y9621D01*
X4402Y9614D01*
X4400Y9607D01*
X4398Y9601D01*
X4397Y9596D01*
Y9593D01*
Y9592D01*
Y9592D01*
X4398Y9583D01*
X4400Y9575D01*
X4403Y9568D01*
X4406Y9561D01*
X4410Y9556D01*
X4412Y9553D01*
X4415Y9550D01*
X4415Y9550D01*
X4422Y9544D01*
X4430Y9540D01*
X4437Y9537D01*
X4444Y9535D01*
X4451Y9534D01*
X4456Y9533D01*
X4459Y9533D01*
X4460D01*
X4470Y9533D01*
X4479Y9535D01*
X4487Y9538D01*
X4493Y9541D01*
X4498Y9544D01*
X4502Y9547D01*
X4505Y9549D01*
X4506Y9550D01*
X4511Y9556D01*
X4516Y9564D01*
X4518Y9571D01*
X4521Y9579D01*
X4522Y9585D01*
X4522Y9590D01*
X4523Y9593D01*
Y9594D01*
Y9594D01*
X4522Y9603D01*
X4520Y9611D01*
X4517Y9618D01*
X4514Y9624D01*
X4511Y9629D01*
X4508Y9633D01*
X4506Y9635D01*
X4506Y9636D01*
X4498Y9642D01*
X4491Y9646D01*
X4483Y9649D01*
X4476Y9651D01*
X4469Y9652D01*
X4464Y9654D01*
D02*
G37*
G36*
X4465Y9494D02*
X4462D01*
X4449Y9493D01*
X4438Y9491D01*
X4428Y9487D01*
X4420Y9483D01*
X4413Y9479D01*
X4408Y9475D01*
X4406Y9473D01*
X4405Y9471D01*
X4397Y9463D01*
X4391Y9453D01*
X4387Y9444D01*
X4385Y9435D01*
X4383Y9427D01*
X4382Y9421D01*
X4382Y9419D01*
Y9417D01*
Y9416D01*
Y9415D01*
X4383Y9404D01*
X4385Y9393D01*
X4389Y9383D01*
X4393Y9375D01*
X4397Y9369D01*
X4401Y9364D01*
X4403Y9362D01*
X4404Y9360D01*
X4413Y9353D01*
X4422Y9348D01*
X4431Y9344D01*
X4440Y9342D01*
X4448Y9340D01*
X4454Y9339D01*
X4457Y9339D01*
X4460D01*
X4468Y9339D01*
X4476Y9341D01*
X4483Y9342D01*
X4489Y9344D01*
X4494Y9346D01*
X4498Y9347D01*
X4500Y9348D01*
X4501Y9349D01*
X4508Y9353D01*
X4513Y9358D01*
X4518Y9363D01*
X4522Y9368D01*
X4526Y9372D01*
X4528Y9375D01*
X4529Y9378D01*
X4529Y9378D01*
X4532Y9385D01*
X4534Y9392D01*
X4536Y9399D01*
X4537Y9405D01*
X4538Y9410D01*
X4538Y9414D01*
Y9416D01*
Y9417D01*
X4537Y9429D01*
X4535Y9439D01*
X4532Y9449D01*
X4527Y9457D01*
X4523Y9463D01*
X4520Y9468D01*
X4518Y9471D01*
X4517Y9472D01*
X4508Y9479D01*
X4499Y9485D01*
X4490Y9489D01*
X4481Y9491D01*
X4473Y9493D01*
X4467Y9494D01*
X4465Y9494D01*
D02*
G37*
G36*
X4017Y9654D02*
X4012D01*
X4003Y9653D01*
X3994Y9651D01*
X3987Y9648D01*
X3980Y9645D01*
X3975Y9641D01*
X3971Y9639D01*
X3968Y9636D01*
X3968Y9636D01*
X3962Y9629D01*
X3957Y9621D01*
X3954Y9614D01*
X3952Y9607D01*
X3951Y9601D01*
X3949Y9596D01*
Y9593D01*
Y9592D01*
Y9592D01*
X3950Y9583D01*
X3952Y9575D01*
X3955Y9568D01*
X3958Y9561D01*
X3962Y9556D01*
X3964Y9553D01*
X3967Y9550D01*
X3967Y9550D01*
X3974Y9544D01*
X3982Y9540D01*
X3989Y9537D01*
X3996Y9535D01*
X4003Y9534D01*
X4008Y9533D01*
X4011Y9533D01*
X4012D01*
X4022Y9533D01*
X4031Y9535D01*
X4039Y9538D01*
X4045Y9541D01*
X4050Y9544D01*
X4054Y9547D01*
X4057Y9549D01*
X4058Y9550D01*
X4063Y9556D01*
X4068Y9564D01*
X4070Y9571D01*
X4073Y9579D01*
X4074Y9585D01*
X4074Y9590D01*
X4075Y9593D01*
Y9594D01*
Y9594D01*
X4074Y9603D01*
X4072Y9611D01*
X4069Y9618D01*
X4066Y9624D01*
X4063Y9629D01*
X4060Y9633D01*
X4058Y9635D01*
X4058Y9636D01*
X4050Y9642D01*
X4043Y9646D01*
X4035Y9649D01*
X4028Y9651D01*
X4022Y9652D01*
X4017Y9654D01*
D02*
G37*
G36*
X4017Y9494D02*
X4014D01*
X4002Y9493D01*
X3990Y9491D01*
X3981Y9487D01*
X3972Y9483D01*
X3966Y9479D01*
X3961Y9475D01*
X3958Y9473D01*
X3957Y9471D01*
X3949Y9463D01*
X3943Y9453D01*
X3939Y9444D01*
X3937Y9435D01*
X3935Y9427D01*
X3934Y9421D01*
X3934Y9419D01*
Y9417D01*
Y9416D01*
Y9415D01*
X3935Y9404D01*
X3937Y9393D01*
X3941Y9383D01*
X3945Y9375D01*
X3949Y9369D01*
X3953Y9364D01*
X3955Y9362D01*
X3956Y9360D01*
X3965Y9353D01*
X3974Y9348D01*
X3983Y9344D01*
X3992Y9342D01*
X4000Y9340D01*
X4007Y9339D01*
X4009Y9339D01*
X4012D01*
X4020Y9339D01*
X4028Y9341D01*
X4035Y9342D01*
X4041Y9344D01*
X4046Y9346D01*
X4050Y9347D01*
X4052Y9348D01*
X4053Y9349D01*
X4060Y9353D01*
X4065Y9358D01*
X4070Y9363D01*
X4074Y9368D01*
X4078Y9372D01*
X4080Y9375D01*
X4081Y9378D01*
X4082Y9378D01*
X4084Y9385D01*
X4087Y9392D01*
X4088Y9399D01*
X4089Y9405D01*
X4090Y9410D01*
X4090Y9414D01*
Y9416D01*
Y9417D01*
X4089Y9429D01*
X4087Y9439D01*
X4084Y9449D01*
X4079Y9457D01*
X4075Y9463D01*
X4072Y9468D01*
X4070Y9471D01*
X4069Y9472D01*
X4060Y9479D01*
X4051Y9485D01*
X4042Y9489D01*
X4033Y9491D01*
X4025Y9493D01*
X4019Y9494D01*
X4017Y9494D01*
D02*
G37*
G36*
X6279Y8257D02*
X6152D01*
Y8136D01*
X6152Y8121D01*
X6154Y8108D01*
X6157Y8097D01*
X6160Y8089D01*
X6164Y8082D01*
X6167Y8077D01*
X6169Y8074D01*
X6169Y8073D01*
X6177Y8067D01*
X6184Y8062D01*
X6191Y8058D01*
X6198Y8056D01*
X6205Y8055D01*
X6210Y8054D01*
X6213Y8053D01*
X6214D01*
X6214D01*
X6221Y8054D01*
X6228Y8055D01*
X6233Y8057D01*
X6238Y8058D01*
X6243Y8061D01*
X6246Y8062D01*
X6248Y8063D01*
X6249Y8064D01*
X6254Y8068D01*
X6259Y8073D01*
X6263Y8078D01*
X6266Y8083D01*
X6269Y8087D01*
X6270Y8091D01*
X6271Y8093D01*
X6272Y8094D01*
X6274Y8102D01*
X6276Y8111D01*
X6277Y8119D01*
X6278Y8128D01*
X6278Y8136D01*
X6279Y8143D01*
Y8257D01*
D02*
G37*
G36*
X6357Y7612D02*
X6185Y7491D01*
X6357D01*
Y7612D01*
D02*
G37*
G36*
X5375Y8258D02*
X5248D01*
Y8137D01*
X5249Y8122D01*
X5251Y8109D01*
X5254Y8098D01*
X5257Y8090D01*
X5260Y8083D01*
X5263Y8078D01*
X5265Y8075D01*
X5266Y8074D01*
X5273Y8068D01*
X5280Y8063D01*
X5288Y8059D01*
X5295Y8056D01*
X5301Y8055D01*
X5306Y8055D01*
X5310Y8054D01*
X5310D01*
X5311D01*
X5318Y8055D01*
X5324Y8056D01*
X5330Y8058D01*
X5335Y8059D01*
X5339Y8061D01*
X5343Y8063D01*
X5345Y8064D01*
X5345Y8065D01*
X5351Y8069D01*
X5356Y8074D01*
X5360Y8079D01*
X5363Y8084D01*
X5365Y8088D01*
X5367Y8091D01*
X5368Y8094D01*
X5369Y8095D01*
X5371Y8103D01*
X5373Y8111D01*
X5374Y8120D01*
X5374Y8129D01*
X5375Y8137D01*
X5375Y8144D01*
Y8258D01*
D02*
G37*
G36*
X4479Y8256D02*
X4352D01*
Y8135D01*
X4352Y8120D01*
X4354Y8107D01*
X4357Y8096D01*
X4360Y8088D01*
X4364Y8081D01*
X4367Y8076D01*
X4369Y8073D01*
X4369Y8072D01*
X4377Y8066D01*
X4384Y8061D01*
X4392Y8057D01*
X4398Y8055D01*
X4405Y8053D01*
X4410Y8053D01*
X4413Y8052D01*
X4414D01*
X4414D01*
X4421Y8053D01*
X4428Y8054D01*
X4433Y8056D01*
X4438Y8057D01*
X4443Y8060D01*
X4446Y8061D01*
X4448Y8062D01*
X4449Y8063D01*
X4454Y8067D01*
X4459Y8072D01*
X4463Y8077D01*
X4466Y8082D01*
X4469Y8086D01*
X4470Y8089D01*
X4471Y8092D01*
X4472Y8093D01*
X4474Y8101D01*
X4476Y8109D01*
X4477Y8118D01*
X4478Y8127D01*
X4478Y8135D01*
X4479Y8142D01*
Y8256D01*
D02*
G37*
G36*
X3579Y8271D02*
X3452D01*
Y8150D01*
X3452Y8135D01*
X3454Y8122D01*
X3457Y8111D01*
X3460Y8103D01*
X3464Y8095D01*
X3467Y8091D01*
X3469Y8088D01*
X3469Y8087D01*
X3477Y8080D01*
X3484Y8075D01*
X3492Y8072D01*
X3498Y8069D01*
X3505Y8068D01*
X3510Y8068D01*
X3513Y8067D01*
X3514D01*
X3514D01*
X3521Y8068D01*
X3528Y8069D01*
X3533Y8070D01*
X3538Y8072D01*
X3543Y8074D01*
X3546Y8076D01*
X3548Y8077D01*
X3549Y8078D01*
X3554Y8081D01*
X3559Y8086D01*
X3563Y8091D01*
X3566Y8096D01*
X3569Y8101D01*
X3570Y8104D01*
X3571Y8106D01*
X3572Y8108D01*
X3574Y8115D01*
X3576Y8124D01*
X3577Y8133D01*
X3578Y8142D01*
X3578Y8150D01*
X3579Y8156D01*
Y8271D01*
D02*
G37*
G36*
X8933Y1865D02*
Y1693D01*
X9054D01*
X8933Y1865D01*
D02*
G37*
%LPD*%
D10*
X6368Y617D02*
G03*
X6368Y617I-49J0D01*
G01*
D12*
X8104Y2664D02*
Y3136D01*
Y1514D02*
Y1986D01*
X3681Y1207D02*
X6319D01*
X3681Y2309D02*
X6319D01*
Y1207D02*
Y2309D01*
X3681Y1207D02*
Y2309D01*
X5251Y6671D02*
Y6829D01*
X5527Y6671D02*
Y6829D01*
X6162Y6671D02*
Y6829D01*
X6438Y6671D02*
Y6829D01*
X3704Y6671D02*
Y6829D01*
X3429Y6671D02*
Y6829D01*
X4616Y6671D02*
Y6829D01*
X4340Y6671D02*
Y6829D01*
M02*
