G04*
G04 #@! TF.GenerationSoftware,Altium Limited,Altium Designer,21.6.1 (37)*
G04*
G04 Layer_Physical_Order=1*
G04 Layer_Color=255*
%FSLAX24Y24*%
%MOIN*%
G70*
G04*
G04 #@! TF.SameCoordinates,2CDDA2BD-A9AE-4566-A957-8AB6CD1B29DF*
G04*
G04*
G04 #@! TF.FilePolarity,Positive*
G04*
G01*
G75*
%ADD14R,0.0315X0.0472*%
%ADD15R,0.0276X0.0472*%
%ADD16R,0.0299X0.0472*%
%ADD17R,0.0700X0.0500*%
%ADD18R,0.0551X0.0472*%
%ADD19R,0.0433X0.0709*%
%ADD20R,0.1024X0.0433*%
%ADD34C,0.0250*%
%ADD35C,0.0300*%
%ADD36C,0.0400*%
%ADD37O,0.0433X0.0669*%
%ADD38C,0.0591*%
%ADD39R,0.0591X0.0591*%
%ADD40C,0.0728*%
%ADD41R,0.0728X0.0728*%
%ADD42C,0.0157*%
D14*
X3867Y2646D02*
D03*
X6032D02*
D03*
D15*
X4752D02*
D03*
X5146D02*
D03*
D16*
X5548D02*
D03*
X4351D02*
D03*
D17*
X9350Y8500D02*
D03*
Y9500D02*
D03*
Y10500D02*
D03*
D18*
X1900Y1309D02*
D03*
Y600D02*
D03*
X800Y1309D02*
D03*
Y600D02*
D03*
D19*
X6969Y4199D02*
D03*
X6181D02*
D03*
X5394D02*
D03*
X4606D02*
D03*
X3819D02*
D03*
X3031D02*
D03*
D20*
X7992Y10301D02*
D03*
Y9514D02*
D03*
Y8726D02*
D03*
Y7939D02*
D03*
Y7152D02*
D03*
Y6364D02*
D03*
Y5577D02*
D03*
Y4789D02*
D03*
X2008Y4789D02*
D03*
X2008Y5577D02*
D03*
Y6364D02*
D03*
Y7152D02*
D03*
Y7939D02*
D03*
Y8726D02*
D03*
Y9514D02*
D03*
Y10301D02*
D03*
D34*
X1900Y4789D02*
X2008D01*
X1900Y4698D02*
Y4789D01*
X1713D02*
X2008D01*
X1900Y1309D02*
X1939D01*
X2381Y1750D01*
X2400D01*
X2008Y4789D02*
X2019Y4800D01*
X2750D01*
X4900Y5825D02*
Y7250D01*
X6376Y8726D01*
X7992D01*
X5800Y7450D02*
X7200D01*
X7407Y7243D01*
X7901D01*
X7992Y7152D01*
X3174Y8726D02*
X4478Y7422D01*
X2008Y8726D02*
X3174D01*
X6850Y6424D02*
Y6700D01*
X7697Y5577D02*
X7992D01*
X6850Y6424D02*
X7697Y5577D01*
X2007Y10301D02*
X2008Y10301D01*
X700Y10300D02*
X701Y10301D01*
X2007D01*
X1502Y5000D02*
X1713Y4789D01*
X700Y5000D02*
X1502D01*
X1900Y1309D02*
Y4698D01*
D35*
X5547Y2646D02*
X5548Y2645D01*
X5547Y2646D02*
X5547Y2646D01*
X5547Y2646D02*
X5548Y2645D01*
X5547Y2646D02*
X5548Y2645D01*
X5547Y2646D02*
X5547Y2646D01*
X5547Y2646D02*
X5548Y2645D01*
X3310Y975D02*
X6623D01*
X3248Y1036D02*
X3310Y975D01*
X3248Y1036D02*
Y1050D01*
X6623Y975D02*
X6650Y948D01*
Y1050D01*
X800Y1309D02*
X1241D01*
X8950Y3300D02*
Y3832D01*
X7992Y4789D02*
X8287D01*
X8354Y4723D01*
Y4428D02*
Y4723D01*
Y4428D02*
X8950Y3832D01*
X6300Y5450D02*
X6947Y4803D01*
X7978D01*
X4183Y5450D02*
X6300D01*
X5548Y2383D02*
Y2645D01*
Y2383D02*
X6181Y1750D01*
X7300D01*
X4100Y1375D02*
Y2132D01*
X4351Y2383D02*
Y2646D01*
X4104Y1379D02*
X4606D01*
X5547Y2320D01*
X4100Y2132D02*
X4351Y2383D01*
X3567Y6067D02*
Y6074D01*
Y6067D02*
X4183Y5450D01*
X6300D02*
Y6075D01*
X7978Y4803D02*
X7992Y4789D01*
X800Y600D02*
X1900D01*
X5547Y2320D02*
Y2646D01*
D36*
X800Y1309D02*
Y2848D01*
X6068Y2610D02*
X6635D01*
X6650Y2546D02*
Y2595D01*
X6032Y2646D02*
X6068Y2610D01*
X6635D02*
X6650Y2595D01*
X7999Y9507D02*
X9343D01*
X9350Y9500D01*
X7992Y9514D02*
X7999Y9507D01*
X8287Y10301D02*
X8486Y10500D01*
X7992Y10301D02*
X8287D01*
X8486Y10500D02*
X9350D01*
X9286Y8500D02*
X9350D01*
X9200Y6950D02*
X9236Y6986D01*
Y8450D01*
X9286Y8500D01*
X700Y2948D02*
X800Y2848D01*
X700Y2948D02*
Y3000D01*
X3248Y1050D02*
Y2546D01*
X3264Y2610D02*
X3830D01*
X3248Y2595D02*
X3264Y2610D01*
X3248Y2546D02*
Y2595D01*
X3830Y2610D02*
X3867Y2646D01*
D37*
X6650Y2546D02*
D03*
X3248Y1050D02*
D03*
Y2546D02*
D03*
X6650Y1050D02*
D03*
D38*
X9200Y6950D02*
D03*
Y5950D02*
D03*
X700Y3000D02*
D03*
Y4000D02*
D03*
D39*
X9200Y4950D02*
D03*
X700Y5000D02*
D03*
D40*
Y10300D02*
D03*
D41*
Y8300D02*
D03*
D42*
X5050Y10300D02*
D03*
X8800Y8150D02*
D03*
Y8950D02*
D03*
Y10000D02*
D03*
X3100Y9250D02*
D03*
X1200Y5850D02*
D03*
X2800D02*
D03*
X6550Y3700D02*
D03*
X7650Y4100D02*
D03*
X5000Y3750D02*
D03*
X2200Y3300D02*
D03*
X1450Y3250D02*
D03*
X8500Y550D02*
D03*
X7900Y500D02*
D03*
X9150Y600D02*
D03*
X9300Y1150D02*
D03*
Y2250D02*
D03*
X6050Y4850D02*
D03*
X5050Y4950D02*
D03*
X3000Y6750D02*
D03*
X700Y6700D02*
D03*
X7100Y10700D02*
D03*
X7050Y9750D02*
D03*
X6500Y9200D02*
D03*
X5500Y9050D02*
D03*
X4200D02*
D03*
X3400Y9700D02*
D03*
X3150Y10600D02*
D03*
X1241Y1309D02*
D03*
X8950Y3300D02*
D03*
X7300Y1750D02*
D03*
X2400D02*
D03*
X4100Y1375D02*
D03*
X2750Y4800D02*
D03*
X3567Y6074D02*
D03*
X4900Y5825D02*
D03*
X5800Y7450D02*
D03*
X4478Y7422D02*
D03*
X6300Y6075D02*
D03*
X6850Y6700D02*
D03*
M02*
