G04*
G04 #@! TF.GenerationSoftware,Altium Limited,Altium Designer,21.6.1 (37)*
G04*
G04 Layer_Color=16711935*
%FSLAX24Y24*%
%MOIN*%
G70*
G04*
G04 #@! TF.SameCoordinates,2CDDA2BD-A9AE-4566-A957-8AB6CD1B29DF*
G04*
G04*
G04 #@! TF.FilePolarity,Negative*
G04*
G01*
G75*
%ADD28O,0.0513X0.0749*%
%ADD29C,0.0671*%
%ADD30R,0.0671X0.0671*%
%ADD31C,0.0808*%
%ADD32R,0.0808X0.0808*%
%ADD33C,0.0237*%
%ADD47R,0.0552X0.0631*%
%ADD48R,0.0474X0.1025*%
%ADD49R,0.1379X0.1025*%
%ADD50R,0.0434X0.0356*%
D28*
X6650Y2546D02*
D03*
X3248Y1050D02*
D03*
Y2546D02*
D03*
X6650Y1050D02*
D03*
D29*
X9200Y6950D02*
D03*
Y5950D02*
D03*
X700Y3000D02*
D03*
Y4000D02*
D03*
D30*
X9200Y4950D02*
D03*
X700Y5000D02*
D03*
D31*
Y10300D02*
D03*
D32*
Y8300D02*
D03*
D33*
X5050Y10300D02*
D03*
X8800Y8150D02*
D03*
Y8950D02*
D03*
Y10000D02*
D03*
X3100Y9250D02*
D03*
X1200Y5850D02*
D03*
X2800D02*
D03*
X6550Y3700D02*
D03*
X7650Y4100D02*
D03*
X5000Y3750D02*
D03*
X2200Y3300D02*
D03*
X1450Y3250D02*
D03*
X8500Y550D02*
D03*
X7900Y500D02*
D03*
X9150Y600D02*
D03*
X9300Y1150D02*
D03*
Y2250D02*
D03*
X6050Y4850D02*
D03*
X5050Y4950D02*
D03*
X3000Y6750D02*
D03*
X700Y6700D02*
D03*
X7100Y10700D02*
D03*
X7050Y9750D02*
D03*
X6500Y9200D02*
D03*
X5500Y9050D02*
D03*
X4200D02*
D03*
X3400Y9700D02*
D03*
X3150Y10600D02*
D03*
X1241Y1309D02*
D03*
X8950Y3300D02*
D03*
X7300Y1750D02*
D03*
X2400D02*
D03*
X4100Y1375D02*
D03*
X2750Y4800D02*
D03*
X3567Y6074D02*
D03*
X4900Y5825D02*
D03*
X5800Y7450D02*
D03*
X4478Y7422D02*
D03*
X6300Y6075D02*
D03*
X6850Y6700D02*
D03*
D47*
X8459Y2900D02*
D03*
X7750D02*
D03*
X8459Y1750D02*
D03*
X7750D02*
D03*
D48*
X5906Y617D02*
D03*
X5000D02*
D03*
X4094D02*
D03*
D49*
X5000Y2900D02*
D03*
D50*
X5389Y7045D02*
D03*
Y6455D02*
D03*
X6300Y7045D02*
D03*
Y6455D02*
D03*
X3567D02*
D03*
Y7045D02*
D03*
X4478Y6455D02*
D03*
Y7045D02*
D03*
M02*
